{"glyphs":{"0":{"ha":1240,"x_min":131,"x_max":1110,"o":"m 626 -14 q 353 49 464 -14 q 187 226 243 113 q 131 486 131 339 q 187 747 131 635 q 353 923 243 860 q 626 986 464 986 q 894 923 786 986 q 1056 747 1001 860 q 1110 486 1110 635 q 1056 226 1110 339 q 894 49 1001 113 q 626 -14 786 -14 m 626 186 q 817 264 749 186 q 885 486 885 342 q 817 715 885 635 q 626 794 749 794 q 426 715 499 794 q 354 486 354 635 q 426 264 354 342 q 626 186 499 186 z "},"1":{"ha":1006,"x_min":169,"x_max":850,"o":"m 422 68 l 422 857 l 478 776 l 224 649 l 169 851 l 438 986 l 654 986 l 654 68 l 422 68 m 189 0 l 189 208 l 850 208 l 850 0 l 189 0 z "},"2":{"ha":1076,"x_min":118,"x_max":956,"o":"m 182 0 l 131 144 l 421 386 q 509 465 465 425 q 590 544 553 504 q 649 621 626 583 q 671 690 671 658 q 656 744 671 721 q 613 779 642 767 q 543 792 583 792 q 456 777 499 792 q 372 728 413 763 q 292 636 331 694 l 118 740 q 233 868 167 810 q 385 960 300 926 q 569 994 471 994 q 749 958 672 994 q 869 860 826 922 q 913 718 913 799 q 894 624 913 669 q 846 534 876 578 q 776 451 815 490 q 694 374 736 411 q 611 303 651 336 l 346 83 l 344 208 l 956 208 l 956 0 l 182 0 z "},"3":{"ha":1147,"x_min":129,"x_max":1004,"o":"m 565 -14 q 306 48 413 -14 q 129 206 199 110 l 299 335 q 357 267 321 303 q 444 207 393 232 q 560 182 494 182 q 671 195 619 182 q 754 238 722 208 q 786 317 786 268 q 754 390 786 364 q 677 426 722 415 q 590 438 632 438 q 542 435 564 438 q 503 428 519 432 q 476 418 486 424 l 414 546 l 719 817 l 742 774 l 197 782 l 197 981 l 933 981 l 979 843 l 586 494 l 531 601 q 585 610 549 607 q 664 614 622 614 q 791 592 731 614 q 900 531 851 569 q 976 438 949 492 q 1004 324 1004 385 q 945 146 1004 222 q 787 28 886 69 q 565 -14 688 -14 z "},"4":{"ha":1139,"x_min":82,"x_max":1065,"o":"m 624 0 l 624 907 l 799 913 l 256 294 l 236 394 l 1065 394 l 1065 207 l 174 207 l 82 382 l 633 981 l 851 981 l 851 0 l 624 0 z "},"5":{"ha":1093,"x_min":143,"x_max":967,"o":"m 546 -10 q 319 35 425 -10 q 143 144 214 79 l 264 301 q 394 219 321 253 q 539 186 468 186 q 649 204 601 186 q 724 257 697 222 q 750 340 750 292 q 723 417 750 383 q 649 469 696 450 q 540 488 601 488 q 422 474 474 488 q 338 447 371 461 q 292 425 304 432 l 192 551 l 251 981 l 865 981 l 865 782 l 364 782 l 424 860 l 378 551 l 296 579 q 372 620 325 601 q 474 651 418 639 q 588 663 531 663 q 776 622 690 663 q 915 506 863 581 q 967 331 967 432 q 910 158 967 235 q 759 35 854 81 q 546 -10 664 -10 z "},"6":{"ha":1131,"x_min":144,"x_max":990,"o":"m 561 0 q 402 26 478 0 q 269 100 326 53 q 178 211 211 147 q 144 351 144 275 q 163 485 144 426 q 213 594 182 544 q 283 688 244 643 q 363 778 322 733 l 553 988 l 803 988 l 808 974 l 522 676 q 440 583 479 632 q 369 479 400 535 q 318 361 338 424 l 218 415 q 274 510 235 464 q 369 595 314 557 q 492 656 425 633 q 632 679 558 679 q 812 638 731 679 q 942 525 893 597 q 990 361 990 453 q 937 182 990 264 q 788 50 883 100 q 561 0 692 0 m 564 194 q 678 213 628 194 q 756 267 728 232 q 785 350 785 301 q 758 424 785 390 q 681 479 731 458 q 565 500 632 500 q 453 481 500 500 q 381 426 406 461 q 356 350 356 392 q 381 272 356 307 q 452 215 406 236 q 564 194 499 194 z "},"7":{"ha":983,"x_min":106,"x_max":858,"o":"m 256 0 l 644 886 l 711 775 l 106 775 l 106 981 l 836 981 l 858 868 l 492 0 l 256 0 z "},"8":{"ha":1157,"x_min":149,"x_max":1008,"o":"m 578 -4 q 355 36 451 -4 q 203 147 258 76 q 149 303 149 217 q 172 409 149 365 q 233 481 196 453 q 314 527 269 510 q 400 556 358 544 l 383 475 q 323 510 356 489 q 263 562 290 532 q 217 631 235 592 q 200 715 200 669 q 250 856 200 794 q 386 952 300 917 q 578 988 472 988 q 769 952 683 988 q 904 856 854 917 q 954 715 954 794 q 935 626 954 665 q 888 557 917 586 q 828 508 860 528 q 771 475 796 488 l 758 553 q 851 521 806 542 q 931 469 896 500 q 988 398 967 439 q 1008 303 1008 357 q 953 147 1008 217 q 801 36 899 76 q 578 -4 704 -4 m 578 182 q 688 198 640 182 q 761 243 735 214 q 788 310 788 272 q 761 373 788 346 q 687 416 735 400 q 578 432 639 432 q 468 416 517 432 q 392 373 419 400 q 365 310 365 346 q 392 243 365 272 q 467 198 419 214 q 578 182 515 182 m 578 603 q 666 617 628 603 q 726 658 704 632 q 747 719 747 683 q 726 771 747 749 q 666 806 704 793 q 578 818 628 818 q 487 806 526 818 q 426 771 447 793 q 404 719 404 749 q 426 658 404 683 q 488 617 449 632 q 578 603 528 603 z "},"9":{"ha":1114,"x_min":153,"x_max":972,"o":"m 415 0 l 410 14 l 808 628 l 836 558 q 776 468 813 511 q 691 392 739 425 q 590 341 643 360 q 478 322 536 322 q 313 366 386 322 q 196 482 239 410 q 153 638 153 554 q 209 821 153 740 q 360 949 265 901 q 571 996 456 996 q 725 969 653 996 q 853 897 797 943 q 941 790 910 851 q 972 660 972 729 q 954 540 972 600 q 906 424 936 481 q 846 322 876 368 q 790 242 815 275 l 640 0 l 415 0 m 554 510 q 667 531 621 510 q 738 584 714 551 q 763 653 763 617 q 738 726 763 692 q 667 781 713 760 q 556 801 621 801 q 457 784 503 801 q 383 734 411 767 q 354 653 354 701 q 379 586 354 619 q 449 531 404 553 q 554 510 494 510 z "},"A":{"ha":1369,"x_min":92,"x_max":1278,"o":"m 92 0 l 575 972 l 797 972 l 1278 0 l 1033 0 l 746 576 q 718 634 731 607 q 694 687 706 661 q 674 738 683 713 q 656 792 665 764 l 710 793 q 690 737 700 764 q 667 683 679 710 q 643 630 656 657 q 617 575 631 603 l 331 0 l 92 0 m 315 172 l 393 350 l 975 350 l 1007 172 l 315 172 z "},"Á":{"ha":1369,"x_min":92,"x_max":1278,"o":"m 92 0 l 575 972 l 797 972 l 1278 0 l 1033 0 l 746 576 q 718 634 731 607 q 694 687 706 661 q 674 738 683 713 q 656 792 665 764 l 710 793 q 690 737 700 764 q 667 683 679 710 q 643 630 656 657 q 617 575 631 603 l 331 0 l 92 0 m 315 172 l 393 350 l 975 350 l 1007 172 l 315 172 m 556 1039 l 504 1150 l 794 1310 l 871 1147 l 556 1039 z "},"Ă":{"ha":1369,"x_min":92,"x_max":1278,"o":"m 92 0 l 575 972 l 797 972 l 1278 0 l 1033 0 l 746 576 q 718 634 731 607 q 694 687 706 661 q 674 738 683 713 q 656 792 665 764 l 710 793 q 690 737 700 764 q 667 683 679 710 q 643 630 656 657 q 617 575 631 603 l 331 0 l 92 0 m 315 172 l 393 350 l 975 350 l 1007 172 l 315 172 m 685 1051 q 571 1078 622 1051 q 484 1152 519 1104 q 436 1263 449 1200 l 578 1279 q 621 1219 592 1243 q 685 1196 650 1196 q 749 1219 719 1196 q 792 1279 778 1243 l 933 1263 q 885 1152 921 1200 q 799 1078 850 1104 q 685 1051 749 1051 z "},"Ắ":{"ha":1369,"x_min":92,"x_max":1278,"o":"m 92 0 l 575 972 l 797 972 l 1278 0 l 1033 0 l 746 576 q 718 634 731 607 q 694 687 706 661 q 674 738 683 713 q 656 792 665 764 l 710 793 q 690 737 700 764 q 667 683 679 710 q 643 630 656 657 q 617 575 631 603 l 331 0 l 92 0 m 315 172 l 393 350 l 975 350 l 1007 172 l 315 172 m 685 1035 q 523 1088 590 1035 q 436 1232 456 1140 l 571 1249 q 619 1185 588 1203 q 685 1168 650 1168 q 751 1185 719 1168 q 799 1249 782 1203 l 933 1232 q 847 1088 914 1140 q 685 1035 779 1035 m 697 1233 l 611 1297 l 743 1525 l 882 1425 l 697 1233 z "},"Ặ":{"ha":1369,"x_min":92,"x_max":1278,"o":"m 92 0 l 575 972 l 797 972 l 1278 0 l 1033 0 l 746 576 q 718 634 731 607 q 694 687 706 661 q 674 738 683 713 q 656 792 665 764 l 710 793 q 690 737 700 764 q 667 683 679 710 q 643 630 656 657 q 617 575 631 603 l 331 0 l 92 0 m 315 172 l 393 350 l 975 350 l 1007 172 l 315 172 m 685 -311 q 584 -280 619 -311 q 549 -193 549 -249 q 585 -109 549 -143 q 685 -75 621 -75 q 785 -106 750 -75 q 821 -193 821 -137 q 785 -277 821 -243 q 685 -311 749 -311 m 685 1051 q 571 1078 622 1051 q 484 1152 519 1104 q 436 1263 449 1200 l 578 1279 q 621 1219 592 1243 q 685 1196 650 1196 q 749 1219 719 1196 q 792 1279 778 1243 l 933 1263 q 885 1152 921 1200 q 799 1078 850 1104 q 685 1051 749 1051 z "},"Ằ":{"ha":1369,"x_min":92,"x_max":1278,"o":"m 92 0 l 575 972 l 797 972 l 1278 0 l 1033 0 l 746 576 q 718 634 731 607 q 694 687 706 661 q 674 738 683 713 q 656 792 665 764 l 710 793 q 690 737 700 764 q 667 683 679 710 q 643 630 656 657 q 617 575 631 603 l 331 0 l 92 0 m 315 172 l 393 350 l 975 350 l 1007 172 l 315 172 m 685 1035 q 523 1087 590 1035 q 436 1232 456 1139 l 571 1249 q 618 1185 588 1203 q 685 1168 649 1168 q 751 1185 719 1168 q 799 1249 782 1203 l 933 1232 q 847 1088 914 1140 q 685 1035 779 1035 m 682 1233 l 497 1425 l 636 1525 l 768 1297 l 682 1233 z "},"Ẳ":{"ha":1369,"x_min":92,"x_max":1278,"o":"m 92 0 l 575 972 l 797 972 l 1278 0 l 1033 0 l 746 576 q 718 634 731 607 q 694 687 706 661 q 674 738 683 713 q 656 792 665 764 l 710 793 q 690 737 700 764 q 667 683 679 710 q 643 630 656 657 q 617 575 631 603 l 331 0 l 92 0 m 315 172 l 393 350 l 975 350 l 1007 172 l 315 172 m 685 1035 q 523 1088 590 1035 q 436 1232 456 1140 l 571 1249 q 618 1185 586 1203 q 685 1168 650 1168 q 751 1185 719 1168 q 799 1249 783 1203 l 933 1232 q 847 1088 914 1140 q 685 1035 779 1035 m 650 1231 q 631 1256 639 1242 q 624 1285 624 1269 q 631 1312 625 1299 q 658 1339 638 1325 q 685 1360 674 1350 q 697 1378 696 1369 q 685 1397 697 1390 q 650 1404 672 1404 q 594 1397 624 1404 q 536 1376 565 1389 l 506 1494 q 578 1522 535 1511 q 667 1532 621 1532 q 796 1498 747 1532 q 844 1404 844 1464 q 824 1342 844 1364 q 779 1307 803 1321 q 742 1284 756 1294 q 728 1261 728 1274 q 728 1256 728 1258 q 731 1250 729 1253 l 650 1231 z "},"Ẵ":{"ha":1369,"x_min":92,"x_max":1278,"o":"m 92 0 l 575 972 l 797 972 l 1278 0 l 1033 0 l 746 576 q 718 634 731 607 q 694 687 706 661 q 674 738 683 713 q 656 792 665 764 l 710 793 q 690 737 700 764 q 667 683 679 710 q 643 630 656 657 q 617 575 631 603 l 331 0 l 92 0 m 315 172 l 393 350 l 975 350 l 1007 172 l 315 172 m 685 1035 q 523 1085 590 1035 q 436 1226 456 1136 l 571 1243 q 619 1184 588 1200 q 685 1168 650 1168 q 751 1184 719 1168 q 799 1243 782 1200 l 933 1226 q 847 1085 914 1136 q 685 1035 779 1035 m 794 1322 q 740 1331 767 1322 q 683 1353 714 1339 q 640 1371 657 1364 q 610 1378 624 1378 q 574 1363 586 1378 q 557 1324 561 1349 l 429 1331 q 476 1462 431 1411 q 590 1513 521 1513 q 645 1503 619 1513 q 700 1481 671 1494 q 738 1464 721 1471 q 769 1457 756 1457 q 801 1472 792 1457 q 814 1511 810 1486 l 942 1506 q 923 1413 942 1456 q 872 1347 904 1371 q 794 1322 839 1322 z "},"Ǎ":{"ha":1369,"x_min":92,"x_max":1278,"o":"m 92 0 l 575 972 l 797 972 l 1278 0 l 1033 0 l 746 576 q 718 634 731 607 q 694 687 706 661 q 674 738 683 713 q 656 792 665 764 l 710 793 q 690 737 700 764 q 667 683 679 710 q 643 630 656 657 q 617 575 631 603 l 331 0 l 92 0 m 315 172 l 393 350 l 975 350 l 1007 172 l 315 172 m 618 1049 l 432 1197 l 501 1275 l 706 1178 l 664 1178 l 868 1275 l 938 1197 l 751 1049 l 618 1049 z "},"Â":{"ha":1369,"x_min":92,"x_max":1278,"o":"m 92 0 l 575 972 l 797 972 l 1278 0 l 1033 0 l 746 576 q 718 634 731 607 q 694 687 706 661 q 674 738 683 713 q 656 792 665 764 l 710 793 q 690 737 700 764 q 667 683 679 710 q 643 630 656 657 q 617 575 631 603 l 331 0 l 92 0 m 315 172 l 393 350 l 975 350 l 1007 172 l 315 172 m 501 1047 l 433 1126 l 622 1274 l 747 1274 l 936 1126 l 868 1047 l 664 1146 l 706 1146 l 501 1047 z "},"Ấ":{"ha":1369,"x_min":92,"x_max":1278,"o":"m 92 0 l 575 972 l 797 972 l 1278 0 l 1033 0 l 746 576 q 718 634 731 607 q 694 687 706 661 q 674 738 683 713 q 656 792 665 764 l 710 793 q 690 737 700 764 q 667 683 679 710 q 643 630 656 657 q 617 575 631 603 l 331 0 l 92 0 m 315 172 l 393 350 l 975 350 l 1007 172 l 315 172 m 499 1042 l 436 1118 l 622 1260 l 747 1260 l 933 1118 l 871 1042 l 664 1132 l 706 1132 l 499 1042 m 935 1222 l 846 1283 l 978 1511 l 1117 1413 l 935 1222 z "},"Ậ":{"ha":1369,"x_min":92,"x_max":1278,"o":"m 92 0 l 575 972 l 797 972 l 1278 0 l 1033 0 l 746 576 q 718 634 731 607 q 694 687 706 661 q 674 738 683 713 q 656 792 665 764 l 710 793 q 690 737 700 764 q 667 683 679 710 q 643 630 656 657 q 617 575 631 603 l 331 0 l 92 0 m 315 172 l 393 350 l 975 350 l 1007 172 l 315 172 m 685 -311 q 584 -280 619 -311 q 549 -193 549 -249 q 585 -109 549 -143 q 685 -75 621 -75 q 785 -106 750 -75 q 821 -193 821 -137 q 785 -277 821 -243 q 685 -311 749 -311 m 501 1047 l 433 1126 l 622 1274 l 747 1274 l 936 1126 l 868 1047 l 664 1146 l 706 1146 l 501 1047 z "},"Ầ":{"ha":1369,"x_min":92,"x_max":1278,"o":"m 92 0 l 575 972 l 797 972 l 1278 0 l 1033 0 l 746 576 q 718 634 731 607 q 694 687 706 661 q 674 738 683 713 q 656 792 665 764 l 710 793 q 690 737 700 764 q 667 683 679 710 q 643 630 656 657 q 617 575 631 603 l 331 0 l 92 0 m 315 172 l 393 350 l 975 350 l 1007 172 l 315 172 m 499 1042 l 436 1118 l 622 1260 l 747 1260 l 933 1118 l 871 1042 l 664 1132 l 706 1132 l 499 1042 m 919 1222 l 735 1414 l 874 1514 l 1006 1285 l 919 1222 z "},"Ẩ":{"ha":1369,"x_min":92,"x_max":1278,"o":"m 92 0 l 575 972 l 797 972 l 1278 0 l 1033 0 l 746 576 q 718 634 731 607 q 694 687 706 661 q 674 738 683 713 q 656 792 665 764 l 710 793 q 690 737 700 764 q 667 683 679 710 q 643 630 656 657 q 617 575 631 603 l 331 0 l 92 0 m 315 172 l 393 350 l 975 350 l 1007 172 l 315 172 m 499 1042 l 435 1118 l 622 1260 l 747 1260 l 933 1118 l 871 1042 l 664 1132 l 706 1132 l 499 1042 m 894 1217 q 876 1243 883 1229 q 869 1272 869 1257 q 876 1299 869 1286 q 906 1326 882 1311 q 932 1347 921 1338 q 943 1365 943 1356 q 931 1385 943 1378 q 897 1392 918 1392 q 841 1383 871 1392 q 782 1364 811 1375 l 753 1482 q 824 1508 782 1497 q 914 1519 867 1519 q 1042 1485 994 1519 q 1090 1392 1090 1450 q 1069 1329 1090 1350 q 1025 1294 1049 1308 q 989 1271 1003 1282 q 975 1247 975 1260 q 975 1243 975 1246 q 976 1236 975 1240 l 894 1217 z "},"Ẫ":{"ha":1369,"x_min":92,"x_max":1278,"o":"m 92 0 l 575 972 l 797 972 l 1278 0 l 1033 0 l 746 576 q 718 634 731 607 q 694 687 706 661 q 674 738 683 713 q 656 792 665 764 l 710 793 q 690 737 700 764 q 667 683 679 710 q 643 630 656 657 q 617 575 631 603 l 331 0 l 92 0 m 315 172 l 393 350 l 975 350 l 1007 172 l 315 172 m 499 1042 l 436 1118 l 622 1260 l 747 1260 l 933 1118 l 871 1042 l 664 1132 l 706 1132 l 499 1042 m 799 1325 q 740 1333 768 1325 q 683 1353 711 1340 q 640 1369 657 1364 q 610 1375 624 1375 q 574 1361 586 1375 q 557 1324 561 1347 l 429 1331 q 476 1460 431 1410 q 590 1510 521 1510 q 643 1502 619 1510 q 697 1481 667 1494 q 738 1466 719 1472 q 769 1460 756 1460 q 801 1474 792 1460 q 814 1511 810 1488 l 942 1506 q 923 1415 942 1456 q 873 1349 904 1374 q 799 1325 842 1325 z "},"Ȁ":{"ha":1369,"x_min":92,"x_max":1278,"o":"m 92 0 l 575 972 l 797 972 l 1278 0 l 1033 0 l 746 576 q 718 634 731 607 q 694 687 706 661 q 674 738 683 713 q 656 792 665 764 l 710 793 q 690 737 700 764 q 667 683 679 710 q 643 630 656 657 q 617 575 631 603 l 331 0 l 92 0 m 315 172 l 393 350 l 975 350 l 1007 172 l 315 172 m 847 1032 l 611 1203 l 726 1333 l 924 1122 l 847 1032 m 539 1028 l 293 1194 l 407 1331 l 614 1122 l 539 1028 z "},"Ä":{"ha":1369,"x_min":92,"x_max":1278,"o":"m 92 0 l 575 972 l 797 972 l 1278 0 l 1033 0 l 746 576 q 718 634 731 607 q 694 687 706 661 q 674 738 683 713 q 656 792 665 764 l 710 793 q 690 737 700 764 q 667 683 679 710 q 643 630 656 657 q 617 575 631 603 l 331 0 l 92 0 m 315 172 l 393 350 l 975 350 l 1007 172 l 315 172 m 854 1047 q 764 1078 794 1047 q 733 1165 733 1110 q 765 1249 733 1215 q 854 1283 797 1283 q 944 1252 913 1283 q 975 1165 975 1221 q 943 1081 975 1115 q 854 1047 911 1047 m 517 1047 q 426 1078 457 1047 q 396 1165 396 1110 q 427 1249 396 1215 q 517 1283 458 1283 q 606 1252 575 1283 q 636 1165 636 1221 q 605 1081 636 1115 q 517 1047 574 1047 z "},"Ạ":{"ha":1369,"x_min":92,"x_max":1278,"o":"m 92 0 l 575 972 l 797 972 l 1278 0 l 1033 0 l 746 576 q 718 634 731 607 q 694 687 706 661 q 674 738 683 713 q 656 792 665 764 l 710 793 q 690 737 700 764 q 667 683 679 710 q 643 630 656 657 q 617 575 631 603 l 331 0 l 92 0 m 315 172 l 393 350 l 975 350 l 1007 172 l 315 172 m 685 -311 q 584 -280 619 -311 q 549 -193 549 -249 q 585 -109 549 -143 q 685 -75 621 -75 q 785 -106 750 -75 q 821 -193 821 -137 q 785 -277 821 -243 q 685 -311 749 -311 z "},"À":{"ha":1369,"x_min":92,"x_max":1278,"o":"m 92 0 l 575 972 l 797 972 l 1278 0 l 1033 0 l 746 576 q 718 634 731 607 q 694 687 706 661 q 674 738 683 713 q 656 792 665 764 l 710 793 q 690 737 700 764 q 667 683 679 710 q 643 630 656 657 q 617 575 631 603 l 331 0 l 92 0 m 315 172 l 393 350 l 975 350 l 1007 172 l 315 172 m 828 1039 l 513 1147 l 589 1310 l 879 1150 l 828 1039 z "},"Ả":{"ha":1369,"x_min":92,"x_max":1278,"o":"m 92 0 l 575 972 l 797 972 l 1278 0 l 1033 0 l 746 576 q 718 634 731 607 q 694 687 706 661 q 674 738 683 713 q 656 792 665 764 l 710 793 q 690 737 700 764 q 667 683 679 710 q 643 630 656 657 q 617 575 631 603 l 331 0 l 92 0 m 315 172 l 393 350 l 975 350 l 1007 172 l 315 172 m 650 1036 q 632 1064 640 1049 q 624 1096 624 1079 q 633 1128 624 1113 q 667 1163 642 1144 q 697 1185 686 1175 q 708 1208 708 1194 q 697 1227 708 1221 q 667 1233 685 1233 q 608 1225 639 1233 q 547 1203 578 1217 l 515 1321 q 591 1349 546 1338 q 683 1361 636 1361 q 809 1327 763 1361 q 856 1236 856 1293 q 836 1167 856 1190 q 794 1129 817 1143 q 758 1103 772 1115 q 743 1076 743 1090 q 744 1067 743 1071 q 747 1057 746 1063 l 650 1036 z "},"Ȃ":{"ha":1369,"x_min":92,"x_max":1278,"o":"m 92 0 l 575 972 l 797 972 l 1278 0 l 1033 0 l 746 576 q 718 634 731 607 q 694 687 706 661 q 674 738 683 713 q 656 792 665 764 l 710 793 q 690 737 700 764 q 667 683 679 710 q 643 630 656 657 q 617 575 631 603 l 331 0 l 92 0 m 315 172 l 393 350 l 975 350 l 1007 172 l 315 172 m 578 1053 l 436 1069 q 484 1179 449 1132 q 571 1253 519 1226 q 685 1279 622 1279 q 799 1253 749 1279 q 885 1179 850 1226 q 933 1069 921 1132 l 792 1053 q 749 1111 778 1088 q 685 1135 719 1135 q 621 1111 650 1135 q 578 1053 592 1088 z "},"Ā":{"ha":1369,"x_min":92,"x_max":1278,"o":"m 92 0 l 575 972 l 797 972 l 1278 0 l 1033 0 l 746 576 q 718 634 731 607 q 694 687 706 661 q 674 738 683 713 q 656 792 665 764 l 710 793 q 690 737 700 764 q 667 683 679 710 q 643 630 656 657 q 617 575 631 603 l 331 0 l 92 0 m 315 172 l 393 350 l 975 350 l 1007 172 l 315 172 m 435 1096 l 435 1236 l 933 1236 l 933 1096 l 435 1096 z "},"Ą":{"ha":1369,"x_min":92,"x_max":1278,"o":"m 92 0 l 575 972 l 797 972 l 1278 0 l 1033 0 l 746 576 q 718 634 731 607 q 694 687 706 661 q 674 738 683 713 q 656 792 665 764 l 710 793 q 690 737 700 764 q 667 683 679 710 q 643 630 656 657 q 617 575 631 603 l 331 0 l 92 0 m 315 172 l 393 350 l 975 350 l 1007 172 l 315 172 m 1106 -294 q 1020 -276 1058 -294 q 960 -224 982 -257 q 939 -147 939 -190 q 956 -75 939 -108 q 1005 -15 974 -42 q 1078 32 1036 11 q 1169 65 1121 53 l 1214 0 q 1150 -26 1178 -10 q 1108 -63 1122 -43 q 1093 -108 1093 -83 q 1103 -138 1093 -126 q 1131 -150 1113 -150 q 1156 -142 1146 -150 q 1176 -118 1167 -133 l 1272 -189 q 1211 -263 1254 -232 q 1106 -294 1168 -294 z "},"Å":{"ha":1369,"x_min":92,"x_max":1278,"o":"m 92 0 l 575 972 l 797 972 l 1278 0 l 1033 0 l 746 576 q 718 634 731 607 q 694 687 706 661 q 674 738 683 713 q 656 792 665 764 l 710 793 q 690 737 700 764 q 667 683 679 710 q 643 630 656 657 q 617 575 631 603 l 331 0 l 92 0 m 315 172 l 393 350 l 975 350 l 1007 172 l 315 172 m 685 982 q 594 1006 636 982 q 526 1068 551 1029 q 500 1153 500 1107 q 526 1242 500 1201 q 593 1308 551 1283 q 685 1332 635 1332 q 775 1308 733 1332 q 842 1242 817 1283 q 868 1153 868 1201 q 842 1068 868 1107 q 775 1006 817 1029 q 685 982 733 982 m 685 1096 q 725 1113 708 1096 q 742 1153 742 1129 q 724 1194 742 1179 q 685 1210 707 1210 q 644 1194 661 1210 q 628 1153 628 1178 q 644 1113 628 1129 q 685 1096 661 1096 z "},"Ǻ":{"ha":1369,"x_min":92,"x_max":1278,"o":"m 92 0 l 575 972 l 797 972 l 1278 0 l 1033 0 l 746 576 q 718 634 731 607 q 694 687 706 661 q 674 738 683 713 q 656 792 665 764 l 710 793 q 690 737 700 764 q 667 683 679 710 q 643 630 656 657 q 617 575 631 603 l 331 0 l 92 0 m 315 172 l 393 350 l 975 350 l 1007 172 l 315 172 m 685 982 q 594 1006 636 982 q 526 1068 551 1029 q 500 1153 500 1107 q 526 1242 500 1201 q 593 1308 551 1283 q 685 1332 635 1332 q 775 1308 733 1332 q 842 1242 817 1283 q 868 1153 868 1201 q 842 1068 868 1107 q 775 1006 817 1029 q 685 982 733 982 m 685 1096 q 725 1113 708 1096 q 742 1153 742 1129 q 724 1194 742 1179 q 685 1210 707 1210 q 644 1194 661 1210 q 628 1153 628 1178 q 644 1113 628 1129 q 685 1096 661 1096 m 556 1354 l 504 1465 l 794 1625 l 871 1463 l 556 1354 z "},"Ã":{"ha":1369,"x_min":92,"x_max":1278,"o":"m 92 0 l 575 972 l 797 972 l 1278 0 l 1033 0 l 746 576 q 718 634 731 607 q 694 687 706 661 q 674 738 683 713 q 656 792 665 764 l 710 793 q 690 737 700 764 q 667 683 679 710 q 643 630 656 657 q 617 575 631 603 l 331 0 l 92 0 m 315 172 l 393 350 l 975 350 l 1007 172 l 315 172 m 792 1067 q 736 1075 764 1067 q 675 1097 708 1083 q 633 1115 650 1110 q 601 1121 615 1121 q 570 1107 582 1121 q 558 1068 558 1093 l 419 1068 q 470 1212 419 1160 q 597 1264 521 1264 q 647 1257 622 1264 q 708 1233 671 1250 q 746 1217 731 1222 q 774 1211 761 1211 q 802 1226 792 1211 q 811 1264 813 1240 l 949 1264 q 928 1165 949 1211 q 874 1093 908 1119 q 792 1067 839 1067 z "},"Æ":{"ha":2121,"x_min":108,"x_max":1921,"o":"m 108 0 l 981 972 l 1921 972 l 1921 763 l 1281 763 l 1281 579 l 1858 579 l 1858 378 l 1281 378 l 1281 210 l 1921 210 l 1921 0 l 1046 0 l 1046 199 l 549 199 l 717 400 l 1046 400 l 1046 799 l 1088 782 l 392 0 l 108 0 z "},"Ǽ":{"ha":2121,"x_min":108,"x_max":1921,"o":"m 108 0 l 981 972 l 1921 972 l 1921 763 l 1281 763 l 1281 579 l 1858 579 l 1858 378 l 1281 378 l 1281 210 l 1921 210 l 1921 0 l 1046 0 l 1046 199 l 549 199 l 717 400 l 1046 400 l 1046 799 l 1088 782 l 392 0 l 108 0 m 1294 1039 l 1243 1150 l 1533 1310 l 1610 1147 l 1294 1039 z "},"B":{"ha":1410,"x_min":239,"x_max":1238,"o":"m 239 0 l 239 972 l 793 972 q 1009 943 921 972 q 1142 861 1097 914 q 1186 733 1186 808 q 1138 595 1186 653 q 990 515 1089 538 l 997 540 q 1115 497 1060 526 q 1203 417 1169 467 q 1238 294 1238 367 q 1200 149 1238 206 q 1101 59 1163 92 q 969 13 1040 26 q 829 0 897 0 l 239 0 m 461 197 l 835 197 q 922 208 883 197 q 983 244 960 219 q 1006 306 1006 268 q 976 372 1006 349 q 906 403 947 394 q 828 413 864 413 l 461 413 l 461 197 m 461 590 l 796 590 q 877 601 842 590 q 933 633 913 613 q 953 686 953 654 q 905 755 953 735 q 788 775 857 775 l 461 775 l 461 590 z "},"C":{"ha":1383,"x_min":171,"x_max":1231,"o":"m 772 -14 q 537 22 646 -14 q 345 125 428 58 q 217 284 263 192 q 171 490 171 376 q 218 693 171 601 q 347 852 265 785 q 537 956 428 919 q 769 992 646 992 q 948 971 863 992 q 1106 916 1033 950 q 1228 842 1179 882 l 1094 654 q 1006 714 1056 686 q 895 758 957 742 q 754 775 833 775 q 632 756 692 775 q 522 701 572 738 q 443 611 472 665 q 414 488 414 557 q 445 363 414 417 q 529 272 476 308 q 649 218 582 236 q 786 200 715 200 q 928 222 867 200 q 1036 274 989 243 q 1119 329 1083 304 l 1231 146 q 1119 75 1189 113 q 960 12 1049 38 q 772 -14 872 -14 z "},"Ć":{"ha":1383,"x_min":171,"x_max":1231,"o":"m 772 -14 q 537 22 646 -14 q 345 125 428 58 q 217 284 263 192 q 171 490 171 376 q 218 693 171 601 q 347 852 265 785 q 537 956 428 919 q 769 992 646 992 q 948 971 863 992 q 1106 916 1033 950 q 1228 842 1179 882 l 1094 654 q 1006 714 1056 686 q 895 758 957 742 q 754 775 833 775 q 632 756 692 775 q 522 701 572 738 q 443 611 472 665 q 414 488 414 557 q 445 363 414 417 q 529 272 476 308 q 649 218 582 236 q 786 200 715 200 q 928 222 867 200 q 1036 274 989 243 q 1119 329 1083 304 l 1231 146 q 1119 75 1189 113 q 960 12 1049 38 q 772 -14 872 -14 m 638 1039 l 586 1150 l 876 1310 l 953 1147 l 638 1039 z "},"Č":{"ha":1383,"x_min":171,"x_max":1231,"o":"m 772 -14 q 537 22 646 -14 q 345 125 428 58 q 217 284 263 192 q 171 490 171 376 q 218 693 171 601 q 347 852 265 785 q 537 956 428 919 q 769 992 646 992 q 948 971 863 992 q 1106 916 1033 950 q 1228 842 1179 882 l 1094 654 q 1006 714 1056 686 q 895 758 957 742 q 754 775 833 775 q 632 756 692 775 q 522 701 572 738 q 443 611 472 665 q 414 488 414 557 q 445 363 414 417 q 529 272 476 308 q 649 218 582 236 q 786 200 715 200 q 928 222 867 200 q 1036 274 989 243 q 1119 329 1083 304 l 1231 146 q 1119 75 1189 113 q 960 12 1049 38 q 772 -14 872 -14 m 700 1049 l 514 1197 l 583 1275 l 788 1178 l 746 1178 l 950 1275 l 1019 1197 l 833 1049 l 700 1049 z "},"Ç":{"ha":1383,"x_min":171,"x_max":1231,"o":"m 772 -14 q 537 22 646 -14 q 345 125 428 58 q 217 284 263 192 q 171 490 171 376 q 218 693 171 601 q 347 852 265 785 q 537 956 428 919 q 769 992 646 992 q 948 971 863 992 q 1106 916 1033 950 q 1228 842 1179 882 l 1094 654 q 1006 714 1056 686 q 895 758 957 742 q 754 775 833 775 q 632 756 692 775 q 522 701 572 738 q 443 611 472 665 q 414 488 414 557 q 445 363 414 417 q 529 272 476 308 q 649 218 582 236 q 786 200 715 200 q 928 222 867 200 q 1036 274 989 243 q 1119 329 1083 304 l 1231 146 q 1119 75 1189 113 q 960 12 1049 38 q 772 -14 872 -14 m 631 -342 l 617 -240 q 681 -235 649 -240 q 735 -217 714 -229 q 757 -186 757 -204 q 741 -157 757 -168 q 701 -141 725 -146 q 653 -136 676 -136 l 631 -111 l 725 33 l 839 33 l 775 -60 q 880 -103 842 -68 q 918 -193 918 -137 q 891 -265 918 -236 q 821 -312 864 -294 q 727 -336 778 -329 q 631 -342 676 -343 z "},"Ḉ":{"ha":1383,"x_min":171,"x_max":1231,"o":"m 772 -14 q 537 22 646 -14 q 345 125 428 58 q 217 284 263 192 q 171 490 171 376 q 218 693 171 601 q 347 852 265 785 q 537 956 428 919 q 769 992 646 992 q 948 971 863 992 q 1106 916 1033 950 q 1228 842 1179 882 l 1094 654 q 1006 714 1056 686 q 895 758 957 742 q 754 775 833 775 q 632 756 692 775 q 522 701 572 738 q 443 611 472 665 q 414 488 414 557 q 445 363 414 417 q 529 272 476 308 q 649 218 582 236 q 786 200 715 200 q 928 222 867 200 q 1036 274 989 243 q 1119 329 1083 304 l 1231 146 q 1119 75 1189 113 q 960 12 1049 38 q 772 -14 872 -14 m 631 -342 l 617 -240 q 681 -235 649 -240 q 735 -217 714 -229 q 757 -186 757 -204 q 741 -157 757 -168 q 701 -141 725 -146 q 653 -136 676 -136 l 631 -111 l 725 33 l 839 33 l 775 -60 q 880 -103 842 -68 q 918 -193 918 -137 q 891 -265 918 -236 q 821 -312 864 -294 q 727 -336 778 -329 q 631 -342 676 -343 m 638 1039 l 586 1150 l 876 1310 l 953 1147 l 638 1039 z "},"Ĉ":{"ha":1383,"x_min":171,"x_max":1231,"o":"m 772 -14 q 537 22 646 -14 q 345 125 428 58 q 217 284 263 192 q 171 490 171 376 q 218 693 171 601 q 347 852 265 785 q 537 956 428 919 q 769 992 646 992 q 948 971 863 992 q 1106 916 1033 950 q 1228 842 1179 882 l 1094 654 q 1006 714 1056 686 q 895 758 957 742 q 754 775 833 775 q 632 756 692 775 q 522 701 572 738 q 443 611 472 665 q 414 488 414 557 q 445 363 414 417 q 529 272 476 308 q 649 218 582 236 q 786 200 715 200 q 928 222 867 200 q 1036 274 989 243 q 1119 329 1083 304 l 1231 146 q 1119 75 1189 113 q 960 12 1049 38 q 772 -14 872 -14 m 583 1047 l 515 1126 l 704 1274 l 829 1274 l 1018 1126 l 950 1047 l 746 1146 l 788 1146 l 583 1047 z "},"Ċ":{"ha":1383,"x_min":171,"x_max":1231,"o":"m 772 -14 q 537 22 646 -14 q 345 125 428 58 q 217 284 263 192 q 171 490 171 376 q 218 693 171 601 q 347 852 265 785 q 537 956 428 919 q 769 992 646 992 q 948 971 863 992 q 1106 916 1033 950 q 1228 842 1179 882 l 1094 654 q 1006 714 1056 686 q 895 758 957 742 q 754 775 833 775 q 632 756 692 775 q 522 701 572 738 q 443 611 472 665 q 414 488 414 557 q 445 363 414 417 q 529 272 476 308 q 649 218 582 236 q 786 200 715 200 q 928 222 867 200 q 1036 274 989 243 q 1119 329 1083 304 l 1231 146 q 1119 75 1189 113 q 960 12 1049 38 q 772 -14 872 -14 m 767 1050 q 669 1081 703 1050 q 635 1165 635 1111 q 669 1247 635 1214 q 767 1281 704 1281 q 865 1250 831 1281 q 899 1165 899 1219 q 864 1083 899 1117 q 767 1050 829 1050 z "},"D":{"ha":1501,"x_min":239,"x_max":1331,"o":"m 239 0 l 239 972 l 757 972 q 1001 933 894 972 q 1181 826 1107 893 q 1292 671 1254 758 q 1331 486 1331 583 q 1292 300 1331 388 q 1181 145 1254 213 q 1000 39 1107 78 q 757 0 893 0 l 239 0 m 475 161 l 443 208 l 750 208 q 901 231 838 208 q 1004 294 964 254 q 1065 383 1044 333 q 1085 486 1085 433 q 1065 588 1085 539 q 1004 677 1044 638 q 901 740 964 717 q 750 764 838 764 l 439 764 l 475 808 l 475 161 z "},"Ǳ":{"ha":2700,"x_min":239,"x_max":2557,"o":"m 239 0 l 239 972 l 757 972 q 1001 933 894 972 q 1181 826 1107 893 q 1292 671 1254 758 q 1331 486 1331 583 q 1292 300 1331 388 q 1181 145 1254 213 q 1000 39 1107 78 q 757 0 893 0 l 239 0 m 475 161 l 443 208 l 750 208 q 901 231 838 208 q 1004 294 964 254 q 1065 383 1044 333 q 1085 486 1085 433 q 1065 588 1085 539 q 1004 677 1044 638 q 901 740 964 717 q 750 764 838 764 l 439 764 l 475 808 l 475 161 m 1578 0 l 1578 157 l 2261 851 l 2376 753 l 1614 753 l 1614 972 l 2542 972 l 2542 817 l 1858 121 l 1744 210 l 2557 210 l 2557 0 l 1578 0 z "},"Ǆ":{"ha":2700,"x_min":239,"x_max":2557,"o":"m 239 0 l 239 972 l 757 972 q 1001 933 894 972 q 1181 826 1107 893 q 1292 671 1254 758 q 1331 486 1331 583 q 1292 300 1331 388 q 1181 145 1254 213 q 1000 39 1107 78 q 757 0 893 0 l 239 0 m 475 161 l 443 208 l 750 208 q 901 231 838 208 q 1004 294 964 254 q 1065 383 1044 333 q 1085 486 1085 433 q 1065 588 1085 539 q 1004 677 1044 638 q 901 740 964 717 q 750 764 838 764 l 439 764 l 475 808 l 475 161 m 1578 0 l 1578 157 l 2261 851 l 2376 753 l 1614 753 l 1614 972 l 2542 972 l 2542 817 l 1858 121 l 1744 210 l 2557 210 l 2557 0 l 1578 0 m 2000 1049 l 1814 1197 l 1883 1275 l 2088 1178 l 2046 1178 l 2250 1275 l 2319 1197 l 2133 1049 l 2000 1049 z "},"Ð":{"ha":1501,"x_min":118,"x_max":1331,"o":"m 118 407 l 118 565 l 765 565 l 765 407 l 118 407 m 239 0 l 239 972 l 757 972 q 1001 933 894 972 q 1181 826 1107 893 q 1292 671 1254 758 q 1331 486 1331 583 q 1292 300 1331 388 q 1181 145 1254 213 q 1000 39 1107 78 q 757 0 893 0 l 239 0 m 475 161 l 443 208 l 750 208 q 901 231 838 208 q 1004 294 964 254 q 1065 383 1044 333 q 1085 486 1085 433 q 1065 588 1085 539 q 1004 677 1044 638 q 901 740 964 717 q 750 764 838 764 l 439 764 l 475 808 l 475 161 z "},"Ď":{"ha":1501,"x_min":239,"x_max":1331,"o":"m 239 0 l 239 972 l 757 972 q 1001 933 894 972 q 1181 826 1107 893 q 1292 671 1254 758 q 1331 486 1331 583 q 1292 300 1331 388 q 1181 145 1254 213 q 1000 39 1107 78 q 757 0 893 0 l 239 0 m 475 161 l 443 208 l 750 208 q 901 231 838 208 q 1004 294 964 254 q 1065 383 1044 333 q 1085 486 1085 433 q 1065 588 1085 539 q 1004 677 1044 638 q 901 740 964 717 q 750 764 838 764 l 439 764 l 475 808 l 475 161 m 688 1049 l 501 1197 l 571 1275 l 775 1178 l 733 1178 l 938 1275 l 1007 1197 l 821 1049 l 688 1049 z "},"Đ":{"ha":1501,"x_min":118,"x_max":1331,"o":"m 118 407 l 118 565 l 765 565 l 765 407 l 118 407 m 239 0 l 239 972 l 757 972 q 1001 933 894 972 q 1181 826 1107 893 q 1292 671 1254 758 q 1331 486 1331 583 q 1292 300 1331 388 q 1181 145 1254 213 q 1000 39 1107 78 q 757 0 893 0 l 239 0 m 475 161 l 443 208 l 750 208 q 901 231 838 208 q 1004 294 964 254 q 1065 383 1044 333 q 1085 486 1085 433 q 1065 588 1085 539 q 1004 677 1044 638 q 901 740 964 717 q 750 764 838 764 l 439 764 l 475 808 l 475 161 z "},"Ḍ":{"ha":1501,"x_min":239,"x_max":1331,"o":"m 239 0 l 239 972 l 757 972 q 1001 933 894 972 q 1181 826 1107 893 q 1292 671 1254 758 q 1331 486 1331 583 q 1292 300 1331 388 q 1181 145 1254 213 q 1000 39 1107 78 q 757 0 893 0 l 239 0 m 475 161 l 443 208 l 750 208 q 901 231 838 208 q 1004 294 964 254 q 1065 383 1044 333 q 1085 486 1085 433 q 1065 588 1085 539 q 1004 677 1044 638 q 901 740 964 717 q 750 764 838 764 l 439 764 l 475 808 l 475 161 m 754 -311 q 653 -280 689 -311 q 618 -193 618 -249 q 654 -109 618 -143 q 754 -75 690 -75 q 855 -106 819 -75 q 890 -193 890 -137 q 854 -277 890 -243 q 754 -311 818 -311 z "},"Ḏ":{"ha":1501,"x_min":239,"x_max":1331,"o":"m 239 0 l 239 972 l 757 972 q 1001 933 894 972 q 1181 826 1107 893 q 1292 671 1254 758 q 1331 486 1331 583 q 1292 300 1331 388 q 1181 145 1254 213 q 1000 39 1107 78 q 757 0 893 0 l 239 0 m 475 161 l 443 208 l 750 208 q 901 231 838 208 q 1004 294 964 254 q 1065 383 1044 333 q 1085 486 1085 433 q 1065 588 1085 539 q 1004 677 1044 638 q 901 740 964 717 q 750 764 838 764 l 439 764 l 475 808 l 475 161 m 542 -275 l 542 -111 l 967 -111 l 967 -275 l 542 -275 z "},"ǲ":{"ha":2604,"x_min":239,"x_max":2457,"o":"m 239 0 l 239 972 l 757 972 q 1001 933 894 972 q 1181 826 1107 893 q 1292 671 1254 758 q 1331 486 1331 583 q 1292 300 1331 388 q 1181 145 1254 213 q 1000 39 1107 78 q 757 0 893 0 l 239 0 m 475 161 l 443 208 l 750 208 q 901 231 838 208 q 1004 294 964 254 q 1065 383 1044 333 q 1085 486 1085 433 q 1065 588 1085 539 q 1004 677 1044 638 q 901 740 964 717 q 750 764 838 764 l 439 764 l 475 808 l 475 161 m 1639 0 l 1639 128 l 2215 631 l 2239 561 l 1639 561 l 1639 738 l 2444 738 l 2444 604 l 1888 117 l 1860 176 l 2457 176 l 2457 0 l 1639 0 z "},"ǅ":{"ha":2604,"x_min":239,"x_max":2457,"o":"m 239 0 l 239 972 l 757 972 q 1001 933 894 972 q 1181 826 1107 893 q 1292 671 1254 758 q 1331 486 1331 583 q 1292 300 1331 388 q 1181 145 1254 213 q 1000 39 1107 78 q 757 0 893 0 l 239 0 m 475 161 l 443 208 l 750 208 q 901 231 838 208 q 1004 294 964 254 q 1065 383 1044 333 q 1085 486 1085 433 q 1065 588 1085 539 q 1004 677 1044 638 q 901 740 964 717 q 750 764 838 764 l 439 764 l 475 808 l 475 161 m 1639 0 l 1639 128 l 2215 631 l 2239 561 l 1639 561 l 1639 738 l 2444 738 l 2444 604 l 1888 117 l 1860 176 l 2457 176 l 2457 0 l 1639 0 m 1982 843 l 1788 1022 l 1868 1092 l 2069 972 l 2028 972 l 2229 1092 l 2310 1022 l 2115 843 l 1982 843 z "},"E":{"ha":1325,"x_min":239,"x_max":1125,"o":"m 239 0 l 239 972 l 1111 972 l 1111 771 l 468 771 l 468 201 l 1125 201 l 1125 0 l 239 0 m 364 399 l 364 590 l 1049 590 l 1049 399 l 364 399 z "},"É":{"ha":1325,"x_min":239,"x_max":1125,"o":"m 239 0 l 239 972 l 1111 972 l 1111 771 l 468 771 l 468 201 l 1125 201 l 1125 0 l 239 0 m 364 399 l 364 590 l 1049 590 l 1049 399 l 364 399 m 568 1039 l 517 1150 l 807 1310 l 883 1147 l 568 1039 z "},"Ĕ":{"ha":1325,"x_min":239,"x_max":1125,"o":"m 239 0 l 239 972 l 1111 972 l 1111 771 l 468 771 l 468 201 l 1125 201 l 1125 0 l 239 0 m 364 399 l 364 590 l 1049 590 l 1049 399 l 364 399 m 697 1051 q 583 1078 635 1051 q 497 1152 532 1104 q 449 1263 461 1200 l 590 1279 q 633 1219 604 1243 q 697 1196 663 1196 q 761 1219 732 1196 q 804 1279 790 1243 l 946 1263 q 898 1152 933 1200 q 812 1078 863 1104 q 697 1051 761 1051 z "},"Ě":{"ha":1325,"x_min":239,"x_max":1125,"o":"m 239 0 l 239 972 l 1111 972 l 1111 771 l 468 771 l 468 201 l 1125 201 l 1125 0 l 239 0 m 364 399 l 364 590 l 1049 590 l 1049 399 l 364 399 m 631 1049 l 444 1197 l 514 1275 l 718 1178 l 676 1178 l 881 1275 l 950 1197 l 764 1049 l 631 1049 z "},"Ḝ":{"ha":1325,"x_min":239,"x_max":1125,"o":"m 239 0 l 239 972 l 1111 972 l 1111 771 l 468 771 l 468 201 l 1125 201 l 1125 0 l 239 0 m 364 399 l 364 590 l 1049 590 l 1049 399 l 364 399 m 525 -342 l 511 -240 q 576 -235 543 -240 q 630 -217 608 -229 q 651 -186 651 -204 q 635 -157 651 -168 q 595 -141 619 -146 q 547 -136 571 -136 l 525 -111 l 619 33 l 733 33 l 669 -60 q 774 -103 736 -68 q 813 -193 813 -137 q 785 -265 813 -236 q 715 -312 758 -294 q 622 -336 672 -329 q 525 -342 571 -343 m 697 1051 q 583 1078 635 1051 q 497 1152 532 1104 q 449 1263 461 1200 l 590 1279 q 633 1219 604 1243 q 697 1196 663 1196 q 761 1219 732 1196 q 804 1279 790 1243 l 946 1263 q 898 1152 933 1200 q 812 1078 863 1104 q 697 1051 761 1051 z "},"Ê":{"ha":1325,"x_min":239,"x_max":1125,"o":"m 239 0 l 239 972 l 1111 972 l 1111 771 l 468 771 l 468 201 l 1125 201 l 1125 0 l 239 0 m 364 399 l 364 590 l 1049 590 l 1049 399 l 364 399 m 514 1047 l 446 1126 l 635 1274 l 760 1274 l 949 1126 l 881 1047 l 676 1146 l 718 1146 l 514 1047 z "},"Ế":{"ha":1325,"x_min":239,"x_max":1129,"o":"m 239 0 l 239 972 l 1111 972 l 1111 771 l 468 771 l 468 201 l 1125 201 l 1125 0 l 239 0 m 364 399 l 364 590 l 1049 590 l 1049 399 l 364 399 m 511 1042 l 449 1118 l 635 1260 l 760 1260 l 946 1118 l 883 1042 l 676 1132 l 718 1132 l 511 1042 m 947 1222 l 858 1283 l 990 1511 l 1129 1413 l 947 1222 z "},"Ệ":{"ha":1325,"x_min":239,"x_max":1125,"o":"m 239 0 l 239 972 l 1111 972 l 1111 771 l 468 771 l 468 201 l 1125 201 l 1125 0 l 239 0 m 364 399 l 364 590 l 1049 590 l 1049 399 l 364 399 m 663 -311 q 562 -280 597 -311 q 526 -193 526 -249 q 563 -109 526 -143 q 663 -75 599 -75 q 763 -106 728 -75 q 799 -193 799 -137 q 763 -277 799 -243 q 663 -311 726 -311 m 514 1047 l 446 1126 l 635 1274 l 760 1274 l 949 1126 l 881 1047 l 676 1146 l 718 1146 l 514 1047 z "},"Ề":{"ha":1325,"x_min":239,"x_max":1125,"o":"m 239 0 l 239 972 l 1111 972 l 1111 771 l 468 771 l 468 201 l 1125 201 l 1125 0 l 239 0 m 364 399 l 364 590 l 1049 590 l 1049 399 l 364 399 m 511 1042 l 449 1118 l 635 1260 l 760 1260 l 946 1118 l 883 1042 l 676 1132 l 718 1132 l 511 1042 m 932 1222 l 747 1414 l 886 1514 l 1018 1285 l 932 1222 z "},"Ể":{"ha":1325,"x_min":239,"x_max":1125,"o":"m 239 0 l 239 972 l 1111 972 l 1111 771 l 468 771 l 468 201 l 1125 201 l 1125 0 l 239 0 m 364 399 l 364 590 l 1049 590 l 1049 399 l 364 399 m 511 1042 l 447 1118 l 635 1260 l 760 1260 l 946 1118 l 883 1042 l 676 1132 l 718 1132 l 511 1042 m 907 1217 q 889 1243 896 1229 q 882 1272 882 1257 q 888 1299 882 1286 q 918 1326 894 1311 q 944 1347 933 1338 q 956 1365 956 1356 q 943 1385 956 1378 q 910 1392 931 1392 q 853 1383 883 1392 q 794 1364 824 1375 l 765 1482 q 837 1508 794 1497 q 926 1519 879 1519 q 1055 1485 1007 1519 q 1103 1392 1103 1450 q 1082 1329 1103 1350 q 1038 1294 1061 1308 q 1001 1271 1015 1282 q 988 1247 988 1260 q 988 1243 988 1246 q 989 1236 988 1240 l 907 1217 z "},"Ễ":{"ha":1325,"x_min":239,"x_max":1125,"o":"m 239 0 l 239 972 l 1111 972 l 1111 771 l 468 771 l 468 201 l 1125 201 l 1125 0 l 239 0 m 364 399 l 364 590 l 1049 590 l 1049 399 l 364 399 m 511 1042 l 449 1118 l 635 1260 l 760 1260 l 946 1118 l 883 1042 l 676 1132 l 718 1132 l 511 1042 m 811 1325 q 752 1333 781 1325 q 696 1353 724 1340 q 653 1369 669 1364 q 622 1375 636 1375 q 586 1361 599 1375 q 569 1324 574 1347 l 442 1331 q 488 1460 443 1410 q 603 1510 533 1510 q 656 1502 632 1510 q 710 1481 679 1494 q 750 1466 732 1472 q 782 1460 768 1460 q 813 1474 804 1460 q 826 1511 822 1488 l 954 1506 q 935 1415 954 1456 q 885 1349 917 1374 q 811 1325 854 1325 z "},"Ȅ":{"ha":1325,"x_min":239,"x_max":1125,"o":"m 239 0 l 239 972 l 1111 972 l 1111 771 l 468 771 l 468 201 l 1125 201 l 1125 0 l 239 0 m 364 399 l 364 590 l 1049 590 l 1049 399 l 364 399 m 861 1032 l 625 1203 l 740 1333 l 938 1122 l 861 1032 m 553 1028 l 307 1194 l 421 1331 l 628 1122 l 553 1028 z "},"Ë":{"ha":1325,"x_min":239,"x_max":1125,"o":"m 239 0 l 239 972 l 1111 972 l 1111 771 l 468 771 l 468 201 l 1125 201 l 1125 0 l 239 0 m 364 399 l 364 590 l 1049 590 l 1049 399 l 364 399 m 867 1047 q 776 1078 807 1047 q 746 1165 746 1110 q 778 1249 746 1215 q 867 1283 810 1283 q 956 1252 925 1283 q 988 1165 988 1221 q 956 1081 988 1115 q 867 1047 924 1047 m 529 1047 q 439 1078 469 1047 q 408 1165 408 1110 q 440 1249 408 1215 q 529 1283 471 1283 q 618 1252 588 1283 q 649 1165 649 1221 q 617 1081 649 1115 q 529 1047 586 1047 z "},"Ė":{"ha":1325,"x_min":239,"x_max":1125,"o":"m 239 0 l 239 972 l 1111 972 l 1111 771 l 468 771 l 468 201 l 1125 201 l 1125 0 l 239 0 m 364 399 l 364 590 l 1049 590 l 1049 399 l 364 399 m 697 1050 q 599 1081 633 1050 q 565 1165 565 1111 q 600 1247 565 1214 q 697 1281 635 1281 q 795 1250 761 1281 q 829 1165 829 1219 q 794 1083 829 1117 q 697 1050 760 1050 z "},"Ẹ":{"ha":1325,"x_min":239,"x_max":1125,"o":"m 239 0 l 239 972 l 1111 972 l 1111 771 l 468 771 l 468 201 l 1125 201 l 1125 0 l 239 0 m 364 399 l 364 590 l 1049 590 l 1049 399 l 364 399 m 663 -311 q 562 -280 597 -311 q 526 -193 526 -249 q 563 -109 526 -143 q 663 -75 599 -75 q 763 -106 728 -75 q 799 -193 799 -137 q 763 -277 799 -243 q 663 -311 726 -311 z "},"È":{"ha":1325,"x_min":239,"x_max":1125,"o":"m 239 0 l 239 972 l 1111 972 l 1111 771 l 468 771 l 468 201 l 1125 201 l 1125 0 l 239 0 m 364 399 l 364 590 l 1049 590 l 1049 399 l 364 399 m 840 1039 l 525 1147 l 601 1310 l 892 1150 l 840 1039 z "},"Ẻ":{"ha":1325,"x_min":239,"x_max":1125,"o":"m 239 0 l 239 972 l 1111 972 l 1111 771 l 468 771 l 468 201 l 1125 201 l 1125 0 l 239 0 m 364 399 l 364 590 l 1049 590 l 1049 399 l 364 399 m 663 1036 q 644 1064 653 1049 q 636 1096 636 1079 q 645 1128 636 1113 q 679 1163 654 1144 q 710 1185 699 1175 q 721 1208 721 1194 q 709 1227 721 1221 q 679 1233 697 1233 q 621 1225 651 1233 q 560 1203 590 1217 l 528 1321 q 603 1349 558 1338 q 696 1361 649 1361 q 822 1327 775 1361 q 868 1236 868 1293 q 849 1167 868 1190 q 807 1129 829 1143 q 770 1103 785 1115 q 756 1076 756 1090 q 757 1067 756 1071 q 760 1057 758 1063 l 663 1036 z "},"Ȇ":{"ha":1325,"x_min":239,"x_max":1125,"o":"m 239 0 l 239 972 l 1111 972 l 1111 771 l 468 771 l 468 201 l 1125 201 l 1125 0 l 239 0 m 364 399 l 364 590 l 1049 590 l 1049 399 l 364 399 m 590 1053 l 449 1069 q 497 1179 461 1132 q 583 1253 532 1226 q 697 1279 635 1279 q 812 1253 761 1279 q 898 1179 863 1226 q 946 1069 933 1132 l 804 1053 q 761 1111 790 1088 q 697 1135 732 1135 q 633 1111 663 1135 q 590 1053 604 1088 z "},"Ē":{"ha":1325,"x_min":239,"x_max":1125,"o":"m 239 0 l 239 972 l 1111 972 l 1111 771 l 468 771 l 468 201 l 1125 201 l 1125 0 l 239 0 m 364 399 l 364 590 l 1049 590 l 1049 399 l 364 399 m 447 1096 l 447 1236 l 946 1236 l 946 1096 l 447 1096 z "},"Ḗ":{"ha":1325,"x_min":239,"x_max":1125,"o":"m 239 0 l 239 972 l 1111 972 l 1111 771 l 468 771 l 468 201 l 1125 201 l 1125 0 l 239 0 m 364 399 l 364 590 l 1049 590 l 1049 399 l 364 399 m 447 1096 l 447 1236 l 946 1236 l 946 1096 l 447 1096 m 568 1303 l 517 1414 l 807 1574 l 883 1411 l 568 1303 z "},"Ḕ":{"ha":1325,"x_min":239,"x_max":1125,"o":"m 239 0 l 239 972 l 1111 972 l 1111 771 l 468 771 l 468 201 l 1125 201 l 1125 0 l 239 0 m 364 399 l 364 590 l 1049 590 l 1049 399 l 364 399 m 447 1096 l 447 1236 l 946 1236 l 946 1096 l 447 1096 m 840 1303 l 525 1411 l 601 1574 l 892 1414 l 840 1303 z "},"Ę":{"ha":1325,"x_min":239,"x_max":1125,"o":"m 239 0 l 239 972 l 1111 972 l 1111 771 l 468 771 l 468 201 l 1125 201 l 1125 0 l 239 0 m 364 399 l 364 590 l 1049 590 l 1049 399 l 364 399 m 946 -294 q 860 -276 899 -294 q 801 -224 822 -257 q 779 -147 779 -190 q 797 -75 779 -108 q 845 -15 814 -42 q 919 32 876 11 q 1010 65 961 53 l 1054 0 q 990 -26 1018 -10 q 948 -63 963 -43 q 933 -108 933 -83 q 943 -138 933 -126 q 971 -150 953 -150 q 997 -142 986 -150 q 1017 -118 1007 -133 l 1113 -189 q 1051 -263 1094 -232 q 946 -294 1008 -294 z "},"Ẽ":{"ha":1325,"x_min":239,"x_max":1125,"o":"m 239 0 l 239 972 l 1111 972 l 1111 771 l 468 771 l 468 201 l 1125 201 l 1125 0 l 239 0 m 364 399 l 364 590 l 1049 590 l 1049 399 l 364 399 m 804 1067 q 749 1075 776 1067 q 688 1097 721 1083 q 645 1115 663 1110 q 614 1121 628 1121 q 583 1107 594 1121 q 571 1068 571 1093 l 432 1068 q 483 1212 432 1160 q 610 1264 533 1264 q 659 1257 635 1264 q 721 1233 683 1250 q 758 1217 743 1222 q 786 1211 774 1211 q 815 1226 804 1211 q 824 1264 825 1240 l 961 1264 q 941 1165 961 1211 q 886 1093 921 1119 q 804 1067 851 1067 z "},"F":{"ha":1267,"x_min":239,"x_max":1075,"o":"m 239 0 l 239 972 l 475 972 l 475 0 l 239 0 m 332 358 l 332 556 l 1018 556 l 1018 358 l 332 358 m 351 764 l 351 972 l 1075 972 l 1075 764 l 351 764 z "},"G":{"ha":1525,"x_min":171,"x_max":1360,"o":"m 758 -14 q 525 17 632 -14 q 339 111 418 49 q 215 269 260 174 q 171 490 171 364 q 217 690 171 599 q 348 849 264 781 q 546 954 432 917 q 793 992 660 992 q 997 968 906 992 q 1158 908 1088 944 q 1271 831 1228 872 l 1128 671 q 1034 727 1085 703 q 923 767 983 751 q 792 783 863 783 q 645 761 713 783 q 527 699 578 739 q 449 606 476 660 q 421 490 421 553 q 451 351 421 408 q 532 260 481 294 q 649 210 583 226 q 786 194 714 194 q 922 208 860 194 q 1031 247 985 222 q 1103 306 1078 271 q 1126 382 1128 340 l 1126 408 l 1158 350 l 772 350 l 772 532 l 1354 532 q 1358 487 1357 511 q 1360 444 1360 463 q 1360 421 1360 426 q 1317 231 1360 313 q 1194 95 1274 149 q 1004 14 1115 42 q 758 -14 893 -14 z "},"Ğ":{"ha":1525,"x_min":171,"x_max":1360,"o":"m 758 -14 q 525 17 632 -14 q 339 111 418 49 q 215 269 260 174 q 171 490 171 364 q 217 690 171 599 q 348 849 264 781 q 546 954 432 917 q 793 992 660 992 q 997 968 906 992 q 1158 908 1088 944 q 1271 831 1228 872 l 1128 671 q 1034 727 1085 703 q 923 767 983 751 q 792 783 863 783 q 645 761 713 783 q 527 699 578 739 q 449 606 476 660 q 421 490 421 553 q 451 351 421 408 q 532 260 481 294 q 649 210 583 226 q 786 194 714 194 q 922 208 860 194 q 1031 247 985 222 q 1103 306 1078 271 q 1126 382 1128 340 l 1126 408 l 1158 350 l 772 350 l 772 532 l 1354 532 q 1358 487 1357 511 q 1360 444 1360 463 q 1360 421 1360 426 q 1317 231 1360 313 q 1194 95 1274 149 q 1004 14 1115 42 q 758 -14 893 -14 m 790 1051 q 676 1078 728 1051 q 590 1152 625 1104 q 542 1263 554 1200 l 683 1279 q 726 1219 697 1243 q 790 1196 756 1196 q 854 1219 825 1196 q 897 1279 883 1243 l 1039 1263 q 991 1152 1026 1200 q 905 1078 956 1104 q 790 1051 854 1051 z "},"Ǧ":{"ha":1525,"x_min":171,"x_max":1360,"o":"m 758 -14 q 525 17 632 -14 q 339 111 418 49 q 215 269 260 174 q 171 490 171 364 q 217 690 171 599 q 348 849 264 781 q 546 954 432 917 q 793 992 660 992 q 997 968 906 992 q 1158 908 1088 944 q 1271 831 1228 872 l 1128 671 q 1034 727 1085 703 q 923 767 983 751 q 792 783 863 783 q 645 761 713 783 q 527 699 578 739 q 449 606 476 660 q 421 490 421 553 q 451 351 421 408 q 532 260 481 294 q 649 210 583 226 q 786 194 714 194 q 922 208 860 194 q 1031 247 985 222 q 1103 306 1078 271 q 1126 382 1128 340 l 1126 408 l 1158 350 l 772 350 l 772 532 l 1354 532 q 1358 487 1357 511 q 1360 444 1360 463 q 1360 421 1360 426 q 1317 231 1360 313 q 1194 95 1274 149 q 1004 14 1115 42 q 758 -14 893 -14 m 724 1049 l 538 1197 l 607 1275 l 811 1178 l 769 1178 l 974 1275 l 1043 1197 l 857 1049 l 724 1049 z "},"Ĝ":{"ha":1525,"x_min":171,"x_max":1360,"o":"m 758 -14 q 525 17 632 -14 q 339 111 418 49 q 215 269 260 174 q 171 490 171 364 q 217 690 171 599 q 348 849 264 781 q 546 954 432 917 q 793 992 660 992 q 997 968 906 992 q 1158 908 1088 944 q 1271 831 1228 872 l 1128 671 q 1034 727 1085 703 q 923 767 983 751 q 792 783 863 783 q 645 761 713 783 q 527 699 578 739 q 449 606 476 660 q 421 490 421 553 q 451 351 421 408 q 532 260 481 294 q 649 210 583 226 q 786 194 714 194 q 922 208 860 194 q 1031 247 985 222 q 1103 306 1078 271 q 1126 382 1128 340 l 1126 408 l 1158 350 l 772 350 l 772 532 l 1354 532 q 1358 487 1357 511 q 1360 444 1360 463 q 1360 421 1360 426 q 1317 231 1360 313 q 1194 95 1274 149 q 1004 14 1115 42 q 758 -14 893 -14 m 606 1047 l 538 1126 l 726 1274 l 851 1274 l 1040 1126 l 972 1047 l 768 1146 l 810 1146 l 606 1047 z "},"Ģ":{"ha":1525,"x_min":171,"x_max":1360,"o":"m 758 -14 q 525 17 632 -14 q 339 111 418 49 q 215 269 260 174 q 171 490 171 364 q 217 690 171 599 q 348 849 264 781 q 546 954 432 917 q 793 992 660 992 q 997 968 906 992 q 1158 908 1088 944 q 1271 831 1228 872 l 1128 671 q 1034 727 1085 703 q 923 767 983 751 q 792 783 863 783 q 645 761 713 783 q 527 699 578 739 q 449 606 476 660 q 421 490 421 553 q 451 351 421 408 q 532 260 481 294 q 649 210 583 226 q 786 194 714 194 q 922 208 860 194 q 1031 247 985 222 q 1103 306 1078 271 q 1126 382 1128 340 l 1126 408 l 1158 350 l 772 350 l 772 532 l 1354 532 q 1358 487 1357 511 q 1360 444 1360 463 q 1360 421 1360 426 q 1317 231 1360 313 q 1194 95 1274 149 q 1004 14 1115 42 q 758 -14 893 -14 m 689 -408 l 633 -332 q 676 -315 653 -326 q 716 -285 699 -303 q 733 -251 733 -268 q 724 -233 733 -239 q 700 -219 714 -226 q 660 -193 675 -208 q 646 -146 646 -178 q 678 -78 646 -100 q 758 -56 711 -56 q 855 -88 813 -56 q 897 -190 897 -121 q 880 -270 897 -235 q 832 -333 863 -306 q 765 -378 801 -360 q 689 -408 728 -396 z "},"Ġ":{"ha":1525,"x_min":171,"x_max":1360,"o":"m 758 -14 q 525 17 632 -14 q 339 111 418 49 q 215 269 260 174 q 171 490 171 364 q 217 690 171 599 q 348 849 264 781 q 546 954 432 917 q 793 992 660 992 q 997 968 906 992 q 1158 908 1088 944 q 1271 831 1228 872 l 1128 671 q 1034 727 1085 703 q 923 767 983 751 q 792 783 863 783 q 645 761 713 783 q 527 699 578 739 q 449 606 476 660 q 421 490 421 553 q 451 351 421 408 q 532 260 481 294 q 649 210 583 226 q 786 194 714 194 q 922 208 860 194 q 1031 247 985 222 q 1103 306 1078 271 q 1126 382 1128 340 l 1126 408 l 1158 350 l 772 350 l 772 532 l 1354 532 q 1358 487 1357 511 q 1360 444 1360 463 q 1360 421 1360 426 q 1317 231 1360 313 q 1194 95 1274 149 q 1004 14 1115 42 q 758 -14 893 -14 m 790 1050 q 692 1081 726 1050 q 658 1165 658 1111 q 693 1247 658 1214 q 790 1281 728 1281 q 888 1250 854 1281 q 922 1165 922 1219 q 888 1083 922 1117 q 790 1050 853 1050 z "},"Ḡ":{"ha":1525,"x_min":171,"x_max":1360,"o":"m 758 -14 q 525 17 632 -14 q 339 111 418 49 q 215 269 260 174 q 171 490 171 364 q 217 690 171 599 q 348 849 264 781 q 546 954 432 917 q 793 992 660 992 q 997 968 906 992 q 1158 908 1088 944 q 1271 831 1228 872 l 1128 671 q 1034 727 1085 703 q 923 767 983 751 q 792 783 863 783 q 645 761 713 783 q 527 699 578 739 q 449 606 476 660 q 421 490 421 553 q 451 351 421 408 q 532 260 481 294 q 649 210 583 226 q 786 194 714 194 q 922 208 860 194 q 1031 247 985 222 q 1103 306 1078 271 q 1126 382 1128 340 l 1126 408 l 1158 350 l 772 350 l 772 532 l 1354 532 q 1358 487 1357 511 q 1360 444 1360 463 q 1360 421 1360 426 q 1317 231 1360 313 q 1194 95 1274 149 q 1004 14 1115 42 q 758 -14 893 -14 m 540 1096 l 540 1236 l 1039 1236 l 1039 1096 l 540 1096 z "},"H":{"ha":1510,"x_min":239,"x_max":1272,"o":"m 1036 0 l 1036 972 l 1272 972 l 1272 0 l 1036 0 m 239 0 l 239 972 l 475 972 l 475 0 l 239 0 m 331 374 l 333 585 l 1161 585 l 1161 374 l 331 374 z "},"Ħ":{"ha":1739,"x_min":169,"x_max":1571,"o":"m 169 665 l 169 858 l 406 858 l 513 844 l 1235 844 l 1349 858 l 1571 858 l 1571 665 l 1339 665 l 1251 679 l 499 679 l 414 665 l 169 665 m 1151 0 l 1151 972 l 1388 972 l 1388 0 l 1151 0 m 354 0 l 354 972 l 590 972 l 590 0 l 354 0 m 447 374 l 449 585 l 1278 585 l 1278 374 l 447 374 z "},"Ḫ":{"ha":1510,"x_min":239,"x_max":1272,"o":"m 1036 0 l 1036 972 l 1272 972 l 1272 0 l 1036 0 m 239 0 l 239 972 l 475 972 l 475 0 l 239 0 m 331 374 l 333 585 l 1161 585 l 1161 374 l 331 374 m 756 -326 q 594 -267 661 -326 q 507 -104 526 -207 l 649 -87 q 692 -155 663 -128 q 756 -182 721 -182 q 819 -155 790 -182 q 863 -87 849 -128 l 1004 -104 q 917 -267 985 -207 q 756 -326 850 -326 z "},"Ĥ":{"ha":1510,"x_min":239,"x_max":1272,"o":"m 1036 0 l 1036 972 l 1272 972 l 1272 0 l 1036 0 m 239 0 l 239 972 l 475 972 l 475 0 l 239 0 m 331 374 l 333 585 l 1161 585 l 1161 374 l 331 374 m 572 1047 l 504 1126 l 693 1274 l 818 1274 l 1007 1126 l 939 1047 l 735 1146 l 776 1146 l 572 1047 z "},"Ḥ":{"ha":1510,"x_min":239,"x_max":1272,"o":"m 1036 0 l 1036 972 l 1272 972 l 1272 0 l 1036 0 m 239 0 l 239 972 l 475 972 l 475 0 l 239 0 m 331 374 l 333 585 l 1161 585 l 1161 374 l 331 374 m 756 -311 q 655 -280 690 -311 q 619 -193 619 -249 q 656 -109 619 -143 q 756 -75 692 -75 q 856 -106 821 -75 q 892 -193 892 -137 q 856 -277 892 -243 q 756 -311 819 -311 z "},"I":{"ha":1293,"x_min":267,"x_max":1026,"o":"m 267 0 l 267 208 l 528 208 l 528 764 l 267 764 l 267 972 l 1026 972 l 1026 764 l 764 764 l 764 208 l 1026 208 l 1026 0 l 267 0 z "},"Ĳ":{"ha":2549,"x_min":267,"x_max":2456,"o":"m 267 0 l 267 208 l 528 208 l 528 764 l 267 764 l 267 972 l 1026 972 l 1026 764 l 764 764 l 764 208 l 1026 208 l 1026 0 l 267 0 m 1857 -14 q 1691 12 1763 -14 q 1572 74 1619 38 q 1494 147 1524 111 q 1451 203 1464 182 l 1592 350 q 1628 301 1607 328 q 1677 249 1649 274 q 1744 208 1706 224 q 1832 192 1782 192 q 1944 221 1897 192 q 2017 299 1992 250 q 2042 407 2042 349 l 2042 757 l 1800 757 l 1800 972 l 2456 972 l 2456 757 l 2272 757 l 2272 379 q 2244 228 2272 300 q 2162 103 2215 157 q 2031 17 2108 49 q 1857 -14 1954 -14 z "},"Í":{"ha":1293,"x_min":267,"x_max":1026,"o":"m 267 0 l 267 208 l 528 208 l 528 764 l 267 764 l 267 972 l 1026 972 l 1026 764 l 764 764 l 764 208 l 1026 208 l 1026 0 l 267 0 m 518 1039 l 467 1150 l 757 1310 l 833 1147 l 518 1039 z "},"Ĭ":{"ha":1293,"x_min":267,"x_max":1026,"o":"m 267 0 l 267 208 l 528 208 l 528 764 l 267 764 l 267 972 l 1026 972 l 1026 764 l 764 764 l 764 208 l 1026 208 l 1026 0 l 267 0 m 646 1051 q 532 1078 583 1051 q 445 1152 481 1104 q 397 1263 410 1200 l 539 1279 q 582 1219 553 1243 q 646 1196 611 1196 q 710 1219 681 1196 q 753 1279 739 1243 l 894 1263 q 847 1152 882 1200 q 760 1078 811 1104 q 646 1051 710 1051 z "},"Ǐ":{"ha":1293,"x_min":267,"x_max":1026,"o":"m 267 0 l 267 208 l 528 208 l 528 764 l 267 764 l 267 972 l 1026 972 l 1026 764 l 764 764 l 764 208 l 1026 208 l 1026 0 l 267 0 m 579 1049 l 393 1197 l 463 1275 l 667 1178 l 625 1178 l 829 1275 l 899 1197 l 713 1049 l 579 1049 z "},"Î":{"ha":1293,"x_min":267,"x_max":1026,"o":"m 267 0 l 267 208 l 528 208 l 528 764 l 267 764 l 267 972 l 1026 972 l 1026 764 l 764 764 l 764 208 l 1026 208 l 1026 0 l 267 0 m 463 1047 l 394 1126 l 583 1274 l 708 1274 l 897 1126 l 829 1047 l 625 1146 l 667 1146 l 463 1047 z "},"Ȉ":{"ha":1293,"x_min":254,"x_max":1026,"o":"m 267 0 l 267 208 l 528 208 l 528 764 l 267 764 l 267 972 l 1026 972 l 1026 764 l 764 764 l 764 208 l 1026 208 l 1026 0 l 267 0 m 810 1032 l 574 1203 l 689 1333 l 886 1122 l 810 1032 m 501 1028 l 256 1194 l 369 1331 l 576 1122 l 501 1028 z "},"Ï":{"ha":1293,"x_min":267,"x_max":1026,"o":"m 267 0 l 267 208 l 528 208 l 528 764 l 267 764 l 267 972 l 1026 972 l 1026 764 l 764 764 l 764 208 l 1026 208 l 1026 0 l 267 0 m 815 1047 q 725 1078 756 1047 q 694 1165 694 1110 q 726 1249 694 1215 q 815 1283 758 1283 q 905 1252 874 1283 q 936 1165 936 1221 q 904 1081 936 1115 q 815 1047 872 1047 m 478 1047 q 388 1078 418 1047 q 357 1165 357 1110 q 388 1249 357 1215 q 478 1283 419 1283 q 567 1252 536 1283 q 597 1165 597 1221 q 566 1081 597 1115 q 478 1047 535 1047 z "},"Ḯ":{"ha":1293,"x_min":267,"x_max":1026,"o":"m 267 0 l 267 208 l 528 208 l 528 764 l 267 764 l 267 972 l 1026 972 l 1026 764 l 764 764 l 764 208 l 1026 208 l 1026 0 l 267 0 m 524 1324 l 472 1436 l 763 1596 l 839 1433 l 524 1324 m 478 1047 q 388 1078 418 1047 q 357 1165 357 1110 q 388 1249 357 1215 q 478 1283 419 1283 q 567 1252 536 1283 q 597 1165 597 1221 q 566 1081 597 1115 q 478 1047 535 1047 m 815 1047 q 725 1078 756 1047 q 694 1165 694 1110 q 726 1249 694 1215 q 815 1283 758 1283 q 905 1252 874 1283 q 936 1165 936 1221 q 904 1081 936 1115 q 815 1047 872 1047 z "},"İ":{"ha":1293,"x_min":267,"x_max":1026,"o":"m 267 0 l 267 208 l 528 208 l 528 764 l 267 764 l 267 972 l 1026 972 l 1026 764 l 764 764 l 764 208 l 1026 208 l 1026 0 l 267 0 m 646 1050 q 548 1081 582 1050 q 514 1165 514 1111 q 549 1247 514 1214 q 646 1281 583 1281 q 744 1250 710 1281 q 778 1165 778 1219 q 743 1083 778 1117 q 646 1050 708 1050 z "},"Ị":{"ha":1293,"x_min":267,"x_max":1026,"o":"m 267 0 l 267 208 l 528 208 l 528 764 l 267 764 l 267 972 l 1026 972 l 1026 764 l 764 764 l 764 208 l 1026 208 l 1026 0 l 267 0 m 646 -311 q 545 -280 581 -311 q 510 -193 510 -249 q 546 -109 510 -143 q 646 -75 582 -75 q 747 -106 711 -75 q 782 -193 782 -137 q 746 -277 782 -243 q 646 -311 710 -311 z "},"Ì":{"ha":1293,"x_min":267,"x_max":1026,"o":"m 267 0 l 267 208 l 528 208 l 528 764 l 267 764 l 267 972 l 1026 972 l 1026 764 l 764 764 l 764 208 l 1026 208 l 1026 0 l 267 0 m 789 1039 l 474 1147 l 550 1310 l 840 1150 l 789 1039 z "},"Ỉ":{"ha":1293,"x_min":267,"x_max":1026,"o":"m 267 0 l 267 208 l 528 208 l 528 764 l 267 764 l 267 972 l 1026 972 l 1026 764 l 764 764 l 764 208 l 1026 208 l 1026 0 l 267 0 m 611 1036 q 593 1064 601 1049 q 585 1096 585 1079 q 594 1128 585 1113 q 628 1163 603 1144 q 658 1185 647 1175 q 669 1208 669 1194 q 658 1227 669 1221 q 628 1233 646 1233 q 569 1225 600 1233 q 508 1203 539 1217 l 476 1321 q 552 1349 507 1338 q 644 1361 597 1361 q 770 1327 724 1361 q 817 1236 817 1293 q 797 1167 817 1190 q 756 1129 778 1143 q 719 1103 733 1115 q 704 1076 704 1090 q 706 1067 704 1071 q 708 1057 707 1063 l 611 1036 z "},"Ȋ":{"ha":1293,"x_min":267,"x_max":1026,"o":"m 267 0 l 267 208 l 528 208 l 528 764 l 267 764 l 267 972 l 1026 972 l 1026 764 l 764 764 l 764 208 l 1026 208 l 1026 0 l 267 0 m 539 1053 l 397 1069 q 445 1179 410 1132 q 532 1253 481 1226 q 646 1279 583 1279 q 760 1253 710 1279 q 847 1179 811 1226 q 894 1069 882 1132 l 753 1053 q 710 1111 739 1088 q 646 1135 681 1135 q 582 1111 611 1135 q 539 1053 553 1088 z "},"Ī":{"ha":1293,"x_min":267,"x_max":1026,"o":"m 267 0 l 267 208 l 528 208 l 528 764 l 267 764 l 267 972 l 1026 972 l 1026 764 l 764 764 l 764 208 l 1026 208 l 1026 0 l 267 0 m 396 1096 l 396 1236 l 894 1236 l 894 1096 l 396 1096 z "},"Į":{"ha":1293,"x_min":267,"x_max":1026,"o":"m 267 0 l 267 208 l 528 208 l 528 764 l 267 764 l 267 972 l 1026 972 l 1026 764 l 764 764 l 764 208 l 1026 208 l 1026 0 l 267 0 m 689 -294 q 603 -276 642 -294 q 544 -224 565 -257 q 522 -147 522 -190 q 540 -75 522 -108 q 588 -15 557 -42 q 662 32 619 11 q 753 65 704 53 l 797 0 q 733 -26 761 -10 q 691 -63 706 -43 q 676 -108 676 -83 q 686 -138 676 -126 q 714 -150 696 -150 q 740 -142 729 -150 q 760 -118 750 -133 l 856 -189 q 794 -263 838 -232 q 689 -294 751 -294 z "},"Ĩ":{"ha":1293,"x_min":267,"x_max":1026,"o":"m 267 0 l 267 208 l 528 208 l 528 764 l 267 764 l 267 972 l 1026 972 l 1026 764 l 764 764 l 764 208 l 1026 208 l 1026 0 l 267 0 m 753 1067 q 697 1075 725 1067 q 636 1097 669 1083 q 594 1115 611 1110 q 563 1121 576 1121 q 531 1107 543 1121 q 519 1068 519 1093 l 381 1068 q 431 1212 381 1160 q 558 1264 482 1264 q 608 1257 583 1264 q 669 1233 632 1250 q 707 1217 692 1222 q 735 1211 722 1211 q 763 1226 753 1211 q 772 1264 774 1240 l 910 1264 q 890 1165 910 1211 q 835 1093 869 1119 q 753 1067 800 1067 z "},"J":{"ha":1256,"x_min":158,"x_max":1163,"o":"m 564 -14 q 398 12 469 -14 q 278 74 326 38 q 201 147 231 111 q 158 203 171 182 l 299 350 q 335 301 314 328 q 384 249 356 274 q 451 208 413 224 q 539 192 489 192 q 651 221 604 192 q 724 299 699 250 q 749 407 749 349 l 749 757 l 507 757 l 507 972 l 1163 972 l 1163 757 l 979 757 l 979 379 q 951 228 979 300 q 869 103 922 157 q 738 17 815 49 q 564 -14 661 -14 z "},"Ĵ":{"ha":1256,"x_min":158,"x_max":1163,"o":"m 564 -14 q 398 12 469 -14 q 278 74 326 38 q 201 147 231 111 q 158 203 171 182 l 299 350 q 335 301 314 328 q 384 249 356 274 q 451 208 413 224 q 539 192 489 192 q 651 221 604 192 q 724 299 699 250 q 749 407 749 349 l 749 757 l 507 757 l 507 972 l 1163 972 l 1163 757 l 979 757 l 979 379 q 951 228 979 300 q 869 103 922 157 q 738 17 815 49 q 564 -14 661 -14 m 669 1047 l 601 1126 l 790 1274 l 915 1274 l 1104 1126 l 1036 1047 l 832 1146 l 874 1146 l 669 1047 z "},"K":{"ha":1497,"x_min":239,"x_max":1333,"o":"m 393 232 l 340 433 l 1029 972 l 1333 972 l 393 232 m 239 0 l 239 972 l 475 972 l 475 0 l 239 0 m 1044 0 l 629 504 l 771 665 l 1332 0 l 1044 0 z "},"Ķ":{"ha":1497,"x_min":239,"x_max":1333,"o":"m 393 232 l 340 433 l 1029 972 l 1333 972 l 393 232 m 239 0 l 239 972 l 475 972 l 475 0 l 239 0 m 1044 0 l 629 504 l 771 665 l 1332 0 l 1044 0 m 660 -408 l 604 -332 q 647 -315 624 -326 q 687 -285 669 -303 q 704 -251 704 -268 q 694 -233 704 -239 q 671 -219 685 -226 q 631 -193 646 -208 q 617 -146 617 -178 q 649 -78 617 -100 q 729 -56 682 -56 q 826 -88 783 -56 q 868 -190 868 -121 q 851 -270 868 -235 q 803 -333 833 -306 q 735 -378 772 -360 q 660 -408 699 -396 z "},"L":{"ha":1261,"x_min":239,"x_max":1103,"o":"m 239 0 l 239 972 l 475 972 l 475 208 l 1103 208 l 1103 0 l 239 0 z "},"Ǉ":{"ha":2517,"x_min":239,"x_max":2424,"o":"m 239 0 l 239 972 l 475 972 l 475 208 l 1103 208 l 1103 0 l 239 0 m 1825 -14 q 1659 12 1731 -14 q 1540 74 1588 38 q 1462 147 1492 111 q 1419 203 1432 182 l 1560 350 q 1596 301 1575 328 q 1645 249 1617 274 q 1712 208 1674 224 q 1800 192 1750 192 q 1913 221 1865 192 q 1985 299 1960 250 q 2010 407 2010 349 l 2010 757 l 1768 757 l 1768 972 l 2424 972 l 2424 757 l 2240 757 l 2240 379 q 2212 228 2240 300 q 2130 103 2183 157 q 1999 17 2076 49 q 1825 -14 1922 -14 z "},"Ĺ":{"ha":1261,"x_min":179,"x_max":1103,"o":"m 239 0 l 239 972 l 475 972 l 475 208 l 1103 208 l 1103 0 l 239 0 m 229 1039 l 178 1150 l 468 1310 l 544 1147 l 229 1039 z "},"Ľ":{"ha":1261,"x_min":239,"x_max":1103,"o":"m 239 0 l 239 972 l 475 972 l 475 208 l 1103 208 l 1103 0 l 239 0 m 775 621 l 719 696 q 762 714 739 701 q 802 743 785 726 q 819 776 819 760 q 810 796 819 790 q 786 808 800 801 q 747 835 761 819 q 732 882 732 851 q 765 950 732 928 q 844 972 797 972 q 941 940 899 972 q 983 838 983 908 q 966 758 983 794 q 918 696 949 722 q 851 651 888 669 q 775 621 814 632 z "},"Ļ":{"ha":1261,"x_min":239,"x_max":1103,"o":"m 239 0 l 239 972 l 475 972 l 475 208 l 1103 208 l 1103 0 l 239 0 m 561 -408 l 506 -332 q 548 -315 525 -326 q 588 -285 571 -303 q 606 -251 606 -268 q 596 -233 606 -239 q 572 -219 586 -226 q 533 -193 547 -208 q 518 -146 518 -178 q 551 -78 518 -100 q 631 -56 583 -56 q 727 -88 685 -56 q 769 -190 769 -121 q 752 -270 769 -235 q 704 -333 735 -306 q 637 -378 674 -360 q 561 -408 600 -396 z "},"Ŀ":{"ha":1261,"x_min":239,"x_max":1103,"o":"m 239 0 l 239 972 l 475 972 l 475 208 l 1103 208 l 1103 0 l 239 0 m 933 415 q 807 449 849 415 q 765 539 765 482 q 808 626 765 588 q 933 664 850 664 q 1060 630 1018 664 q 1103 539 1103 596 q 1060 453 1103 492 q 933 415 1018 415 z "},"Ḷ":{"ha":1261,"x_min":239,"x_max":1103,"o":"m 239 0 l 239 972 l 475 972 l 475 208 l 1103 208 l 1103 0 l 239 0 m 638 -311 q 537 -280 572 -311 q 501 -193 501 -249 q 538 -109 501 -143 q 638 -75 574 -75 q 738 -106 703 -75 q 774 -193 774 -137 q 738 -277 774 -243 q 638 -311 701 -311 z "},"ǈ":{"ha":2175,"x_min":239,"x_max":1897,"o":"m 239 0 l 239 972 l 475 972 l 475 208 l 1103 208 l 1103 0 l 239 0 m 1460 -292 l 1376 -101 q 1540 -64 1479 -101 q 1628 49 1601 -26 q 1654 238 1654 124 l 1654 738 l 1876 738 l 1876 185 q 1825 -81 1876 25 q 1681 -239 1774 -186 q 1460 -292 1588 -292 m 1764 889 q 1667 919 1701 889 q 1632 1004 1632 949 q 1667 1087 1632 1054 q 1764 1119 1703 1119 q 1862 1090 1826 1119 q 1897 1004 1897 1060 q 1861 921 1897 953 q 1764 889 1825 889 z "},"Ḻ":{"ha":1261,"x_min":239,"x_max":1103,"o":"m 239 0 l 239 972 l 475 972 l 475 208 l 1103 208 l 1103 0 l 239 0 m 424 -275 l 424 -111 l 849 -111 l 849 -275 l 424 -275 z "},"Ł":{"ha":1271,"x_min":-11,"x_max":1113,"o":"m 56 289 l -11 489 l 860 828 l 929 625 l 56 289 m 249 0 l 249 972 l 485 972 l 485 208 l 1113 208 l 1113 0 l 249 0 z "},"M":{"ha":1653,"x_min":239,"x_max":1414,"o":"m 239 0 l 239 972 l 450 972 l 893 424 l 760 424 l 1203 972 l 1414 972 l 1414 0 l 1185 0 l 1185 317 q 1190 533 1185 432 q 1213 740 1196 635 l 1235 663 l 872 236 l 781 236 l 414 665 l 440 740 q 463 533 457 635 q 468 317 468 432 l 468 0 l 239 0 z "},"Ṃ":{"ha":1653,"x_min":239,"x_max":1414,"o":"m 239 0 l 239 972 l 450 972 l 893 424 l 760 424 l 1203 972 l 1414 972 l 1414 0 l 1185 0 l 1185 317 q 1190 533 1185 432 q 1213 740 1196 635 l 1235 663 l 872 236 l 781 236 l 414 665 l 440 740 q 463 533 457 635 q 468 317 468 432 l 468 0 l 239 0 m 826 -311 q 726 -280 761 -311 q 690 -193 690 -249 q 726 -109 690 -143 q 826 -75 763 -75 q 927 -106 892 -75 q 963 -193 963 -137 q 926 -277 963 -243 q 826 -311 890 -311 z "},"N":{"ha":1576,"x_min":239,"x_max":1338,"o":"m 239 0 l 239 972 l 464 972 l 1168 278 l 1136 285 q 1123 386 1128 338 q 1115 479 1118 435 q 1111 565 1113 524 q 1109 649 1110 607 q 1108 732 1108 690 l 1108 972 l 1338 972 l 1338 0 l 1110 0 l 383 717 l 440 707 q 448 660 444 686 q 455 600 451 633 q 462 526 458 567 q 467 435 465 485 q 468 325 468 385 l 468 0 l 239 0 z "},"Ǌ":{"ha":2832,"x_min":239,"x_max":2739,"o":"m 239 0 l 239 972 l 464 972 l 1168 278 l 1136 285 q 1123 386 1128 338 q 1115 479 1118 435 q 1111 565 1113 524 q 1109 649 1110 607 q 1108 732 1108 690 l 1108 972 l 1338 972 l 1338 0 l 1110 0 l 383 717 l 440 707 q 448 660 444 686 q 455 600 451 633 q 462 526 458 567 q 467 435 465 485 q 468 325 468 385 l 468 0 l 239 0 m 2140 -14 q 1974 12 2046 -14 q 1855 74 1903 38 q 1777 147 1807 111 q 1735 203 1747 182 l 1875 350 q 1911 301 1890 328 q 1960 249 1932 274 q 2027 208 1989 224 q 2115 192 2065 192 q 2228 221 2181 192 q 2300 299 2275 250 q 2325 407 2325 349 l 2325 757 l 2083 757 l 2083 972 l 2739 972 l 2739 757 l 2556 757 l 2556 379 q 2527 228 2556 300 q 2445 103 2499 157 q 2315 17 2392 49 q 2140 -14 2238 -14 z "},"Ń":{"ha":1576,"x_min":239,"x_max":1338,"o":"m 239 0 l 239 972 l 464 972 l 1168 278 l 1136 285 q 1123 386 1128 338 q 1115 479 1118 435 q 1111 565 1113 524 q 1109 649 1110 607 q 1108 732 1108 690 l 1108 972 l 1338 972 l 1338 0 l 1110 0 l 383 717 l 440 707 q 448 660 444 686 q 455 600 451 633 q 462 526 458 567 q 467 435 465 485 q 468 325 468 385 l 468 0 l 239 0 m 660 1039 l 608 1150 l 899 1310 l 975 1147 l 660 1039 z "},"Ň":{"ha":1576,"x_min":239,"x_max":1338,"o":"m 239 0 l 239 972 l 464 972 l 1168 278 l 1136 285 q 1123 386 1128 338 q 1115 479 1118 435 q 1111 565 1113 524 q 1109 649 1110 607 q 1108 732 1108 690 l 1108 972 l 1338 972 l 1338 0 l 1110 0 l 383 717 l 440 707 q 448 660 444 686 q 455 600 451 633 q 462 526 458 567 q 467 435 465 485 q 468 325 468 385 l 468 0 l 239 0 m 722 1049 l 536 1197 l 606 1275 l 810 1178 l 768 1178 l 972 1275 l 1042 1197 l 856 1049 l 722 1049 z "},"Ņ":{"ha":1576,"x_min":239,"x_max":1338,"o":"m 239 0 l 239 972 l 464 972 l 1168 278 l 1136 285 q 1123 386 1128 338 q 1115 479 1118 435 q 1111 565 1113 524 q 1109 649 1110 607 q 1108 732 1108 690 l 1108 972 l 1338 972 l 1338 0 l 1110 0 l 383 717 l 440 707 q 448 660 444 686 q 455 600 451 633 q 462 526 458 567 q 467 435 465 485 q 468 325 468 385 l 468 0 l 239 0 m 713 -408 l 657 -332 q 699 -315 676 -326 q 740 -285 722 -303 q 757 -251 757 -268 q 747 -233 757 -239 q 724 -219 738 -226 q 684 -193 699 -208 q 669 -146 669 -178 q 702 -78 669 -100 q 782 -56 735 -56 q 878 -88 836 -56 q 921 -190 921 -121 q 903 -270 921 -235 q 856 -333 886 -306 q 788 -378 825 -360 q 713 -408 751 -396 z "},"Ṅ":{"ha":1576,"x_min":239,"x_max":1338,"o":"m 239 0 l 239 972 l 464 972 l 1168 278 l 1136 285 q 1123 386 1128 338 q 1115 479 1118 435 q 1111 565 1113 524 q 1109 649 1110 607 q 1108 732 1108 690 l 1108 972 l 1338 972 l 1338 0 l 1110 0 l 383 717 l 440 707 q 448 660 444 686 q 455 600 451 633 q 462 526 458 567 q 467 435 465 485 q 468 325 468 385 l 468 0 l 239 0 m 789 1050 q 691 1081 725 1050 q 657 1165 657 1111 q 692 1247 657 1214 q 789 1281 726 1281 q 887 1250 853 1281 q 921 1165 921 1219 q 886 1083 921 1117 q 789 1050 851 1050 z "},"Ṇ":{"ha":1576,"x_min":239,"x_max":1338,"o":"m 239 0 l 239 972 l 464 972 l 1168 278 l 1136 285 q 1123 386 1128 338 q 1115 479 1118 435 q 1111 565 1113 524 q 1109 649 1110 607 q 1108 732 1108 690 l 1108 972 l 1338 972 l 1338 0 l 1110 0 l 383 717 l 440 707 q 448 660 444 686 q 455 600 451 633 q 462 526 458 567 q 467 435 465 485 q 468 325 468 385 l 468 0 l 239 0 m 789 -311 q 688 -280 724 -311 q 653 -193 653 -249 q 689 -109 653 -143 q 789 -75 725 -75 q 890 -106 854 -75 q 925 -193 925 -137 q 889 -277 925 -243 q 789 -311 853 -311 z "},"Ɲ":{"ha":1585,"x_min":-19,"x_max":1346,"o":"m 74 -282 l -19 -76 q 185 8 124 -76 q 247 238 247 92 l 247 972 l 472 972 l 1176 306 l 1117 285 q 1101 411 1107 353 q 1093 523 1096 469 q 1090 628 1090 576 q 1089 732 1089 679 l 1089 972 l 1346 972 l 1346 0 l 1118 0 l 392 689 l 476 707 q 488 604 483 650 q 497 519 493 558 q 502 442 500 479 q 504 368 504 406 q 504 288 504 331 l 504 185 q 451 -74 504 29 q 300 -230 397 -178 q 74 -282 203 -282 z "},"ǋ":{"ha":2490,"x_min":239,"x_max":2213,"o":"m 239 0 l 239 972 l 464 972 l 1168 278 l 1136 285 q 1123 386 1128 338 q 1115 479 1118 435 q 1111 565 1113 524 q 1109 649 1110 607 q 1108 732 1108 690 l 1108 972 l 1338 972 l 1338 0 l 1110 0 l 383 717 l 440 707 q 448 660 444 686 q 455 600 451 633 q 462 526 458 567 q 467 435 465 485 q 468 325 468 385 l 468 0 l 239 0 m 1775 -292 l 1692 -101 q 1856 -64 1794 -101 q 1943 49 1917 -26 q 1969 238 1969 124 l 1969 738 l 2192 738 l 2192 185 q 2140 -81 2192 25 q 1996 -239 2089 -186 q 1775 -292 1903 -292 m 2079 889 q 1982 919 2017 889 q 1947 1004 1947 949 q 1983 1087 1947 1054 q 2079 1119 2018 1119 q 2177 1090 2142 1119 q 2213 1004 2213 1060 q 2176 921 2213 953 q 2079 889 2140 889 z "},"Ṉ":{"ha":1576,"x_min":239,"x_max":1338,"o":"m 239 0 l 239 972 l 464 972 l 1168 278 l 1136 285 q 1123 386 1128 338 q 1115 479 1118 435 q 1111 565 1113 524 q 1109 649 1110 607 q 1108 732 1108 690 l 1108 972 l 1338 972 l 1338 0 l 1110 0 l 383 717 l 440 707 q 448 660 444 686 q 455 600 451 633 q 462 526 458 567 q 467 435 465 485 q 468 325 468 385 l 468 0 l 239 0 m 575 -275 l 575 -111 l 1000 -111 l 1000 -275 l 575 -275 z "},"Ñ":{"ha":1576,"x_min":239,"x_max":1338,"o":"m 239 0 l 239 972 l 464 972 l 1168 278 l 1136 285 q 1123 386 1128 338 q 1115 479 1118 435 q 1111 565 1113 524 q 1109 649 1110 607 q 1108 732 1108 690 l 1108 972 l 1338 972 l 1338 0 l 1110 0 l 383 717 l 440 707 q 448 660 444 686 q 455 600 451 633 q 462 526 458 567 q 467 435 465 485 q 468 325 468 385 l 468 0 l 239 0 m 896 1067 q 840 1075 868 1067 q 779 1097 813 1083 q 737 1115 754 1110 q 706 1121 719 1121 q 674 1107 686 1121 q 663 1068 663 1093 l 524 1068 q 574 1212 524 1160 q 701 1264 625 1264 q 751 1257 726 1264 q 813 1233 775 1250 q 850 1217 835 1222 q 878 1211 865 1211 q 906 1226 896 1211 q 915 1264 917 1240 l 1053 1264 q 1033 1165 1053 1211 q 978 1093 1013 1119 q 896 1067 943 1067 z "},"Ŋ":{"ha":1576,"x_min":239,"x_max":1338,"o":"m 907 -282 l 814 -76 q 921 -65 868 -76 q 1015 -34 974 -54 q 1082 13 1057 -14 q 1107 68 1107 39 l 1107 76 l 1113 -3 l 444 633 l 449 646 q 454 585 451 615 q 460 523 457 554 q 465 462 463 492 q 467 406 467 432 q 468 358 468 381 l 468 0 l 239 0 l 239 972 l 464 972 l 1140 318 l 1133 307 q 1118 431 1124 374 q 1111 539 1113 488 q 1109 638 1110 590 q 1108 732 1108 686 l 1108 972 l 1338 972 l 1338 167 q 1283 -82 1338 17 q 1131 -231 1228 -181 q 907 -282 1033 -282 z "},"O":{"ha":1572,"x_min":171,"x_max":1400,"o":"m 788 -14 q 538 24 650 -14 q 343 131 425 63 q 216 292 261 200 q 171 490 171 383 q 216 689 171 597 q 344 849 261 781 q 538 956 426 918 q 786 994 650 994 q 1033 956 921 994 q 1228 849 1146 918 q 1355 689 1310 781 q 1400 490 1400 597 q 1355 292 1400 383 q 1228 131 1310 200 q 1033 24 1146 63 q 788 -14 921 -14 m 786 208 q 937 230 868 208 q 1056 290 1006 251 q 1133 379 1106 328 q 1160 490 1160 431 q 1133 601 1160 550 q 1056 691 1106 653 q 937 751 1006 729 q 786 772 868 772 q 635 751 704 772 q 516 691 567 729 q 439 601 465 653 q 413 490 413 550 q 439 379 413 431 q 516 290 465 328 q 635 230 567 251 q 786 208 704 208 z "},"Ó":{"ha":1572,"x_min":171,"x_max":1400,"o":"m 788 -14 q 538 24 650 -14 q 343 131 425 63 q 216 292 261 200 q 171 490 171 383 q 216 689 171 597 q 344 849 261 781 q 538 956 426 918 q 786 994 650 994 q 1033 956 921 994 q 1228 849 1146 918 q 1355 689 1310 781 q 1400 490 1400 597 q 1355 292 1400 383 q 1228 131 1310 200 q 1033 24 1146 63 q 788 -14 921 -14 m 786 208 q 937 230 868 208 q 1056 290 1006 251 q 1133 379 1106 328 q 1160 490 1160 431 q 1133 601 1160 550 q 1056 691 1106 653 q 937 751 1006 729 q 786 772 868 772 q 635 751 704 772 q 516 691 567 729 q 439 601 465 653 q 413 490 413 550 q 439 379 413 431 q 516 290 465 328 q 635 230 567 251 q 786 208 704 208 m 657 1039 l 606 1150 l 896 1310 l 972 1147 l 657 1039 z "},"Ŏ":{"ha":1572,"x_min":171,"x_max":1400,"o":"m 788 -14 q 538 24 650 -14 q 343 131 425 63 q 216 292 261 200 q 171 490 171 383 q 216 689 171 597 q 344 849 261 781 q 538 956 426 918 q 786 994 650 994 q 1033 956 921 994 q 1228 849 1146 918 q 1355 689 1310 781 q 1400 490 1400 597 q 1355 292 1400 383 q 1228 131 1310 200 q 1033 24 1146 63 q 788 -14 921 -14 m 786 208 q 937 230 868 208 q 1056 290 1006 251 q 1133 379 1106 328 q 1160 490 1160 431 q 1133 601 1160 550 q 1056 691 1106 653 q 937 751 1006 729 q 786 772 868 772 q 635 751 704 772 q 516 691 567 729 q 439 601 465 653 q 413 490 413 550 q 439 379 413 431 q 516 290 465 328 q 635 230 567 251 q 786 208 704 208 m 786 1051 q 672 1078 724 1051 q 585 1152 621 1104 q 538 1263 550 1200 l 679 1279 q 722 1219 693 1243 q 786 1196 751 1196 q 850 1219 821 1196 q 893 1279 879 1243 l 1035 1263 q 987 1152 1022 1200 q 901 1078 951 1104 q 786 1051 850 1051 z "},"Ǒ":{"ha":1572,"x_min":171,"x_max":1400,"o":"m 788 -14 q 538 24 650 -14 q 343 131 425 63 q 216 292 261 200 q 171 490 171 383 q 216 689 171 597 q 344 849 261 781 q 538 956 426 918 q 786 994 650 994 q 1033 956 921 994 q 1228 849 1146 918 q 1355 689 1310 781 q 1400 490 1400 597 q 1355 292 1400 383 q 1228 131 1310 200 q 1033 24 1146 63 q 788 -14 921 -14 m 786 208 q 937 230 868 208 q 1056 290 1006 251 q 1133 379 1106 328 q 1160 490 1160 431 q 1133 601 1160 550 q 1056 691 1106 653 q 937 751 1006 729 q 786 772 868 772 q 635 751 704 772 q 516 691 567 729 q 439 601 465 653 q 413 490 413 550 q 439 379 413 431 q 516 290 465 328 q 635 230 567 251 q 786 208 704 208 m 719 1049 l 533 1197 l 603 1275 l 807 1178 l 765 1178 l 969 1275 l 1039 1197 l 853 1049 l 719 1049 z "},"Ô":{"ha":1572,"x_min":171,"x_max":1400,"o":"m 788 -14 q 538 24 650 -14 q 343 131 425 63 q 216 292 261 200 q 171 490 171 383 q 216 689 171 597 q 344 849 261 781 q 538 956 426 918 q 786 994 650 994 q 1033 956 921 994 q 1228 849 1146 918 q 1355 689 1310 781 q 1400 490 1400 597 q 1355 292 1400 383 q 1228 131 1310 200 q 1033 24 1146 63 q 788 -14 921 -14 m 786 208 q 937 230 868 208 q 1056 290 1006 251 q 1133 379 1106 328 q 1160 490 1160 431 q 1133 601 1160 550 q 1056 691 1106 653 q 937 751 1006 729 q 786 772 868 772 q 635 751 704 772 q 516 691 567 729 q 439 601 465 653 q 413 490 413 550 q 439 379 413 431 q 516 290 465 328 q 635 230 567 251 q 786 208 704 208 m 603 1047 l 535 1126 l 724 1274 l 849 1274 l 1038 1126 l 969 1047 l 765 1146 l 807 1146 l 603 1047 z "},"Ố":{"ha":1572,"x_min":171,"x_max":1400,"o":"m 788 -14 q 538 24 650 -14 q 343 131 425 63 q 216 292 261 200 q 171 490 171 383 q 216 689 171 597 q 344 849 261 781 q 538 956 426 918 q 786 994 650 994 q 1033 956 921 994 q 1228 849 1146 918 q 1355 689 1310 781 q 1400 490 1400 597 q 1355 292 1400 383 q 1228 131 1310 200 q 1033 24 1146 63 q 788 -14 921 -14 m 786 208 q 937 230 868 208 q 1056 290 1006 251 q 1133 379 1106 328 q 1160 490 1160 431 q 1133 601 1160 550 q 1056 691 1106 653 q 937 751 1006 729 q 786 772 868 772 q 635 751 704 772 q 516 691 567 729 q 439 601 465 653 q 413 490 413 550 q 439 379 413 431 q 516 290 465 328 q 635 230 567 251 q 786 208 704 208 m 600 1042 l 538 1118 l 724 1260 l 849 1260 l 1035 1118 l 972 1042 l 765 1132 l 807 1132 l 600 1042 m 1036 1222 l 947 1283 l 1079 1511 l 1218 1413 l 1036 1222 z "},"Ộ":{"ha":1572,"x_min":171,"x_max":1400,"o":"m 788 -14 q 538 24 650 -14 q 343 131 425 63 q 216 292 261 200 q 171 490 171 383 q 216 689 171 597 q 344 849 261 781 q 538 956 426 918 q 786 994 650 994 q 1033 956 921 994 q 1228 849 1146 918 q 1355 689 1310 781 q 1400 490 1400 597 q 1355 292 1400 383 q 1228 131 1310 200 q 1033 24 1146 63 q 788 -14 921 -14 m 786 208 q 937 230 868 208 q 1056 290 1006 251 q 1133 379 1106 328 q 1160 490 1160 431 q 1133 601 1160 550 q 1056 691 1106 653 q 937 751 1006 729 q 786 772 868 772 q 635 751 704 772 q 516 691 567 729 q 439 601 465 653 q 413 490 413 550 q 439 379 413 431 q 516 290 465 328 q 635 230 567 251 q 786 208 704 208 m 786 -311 q 685 -280 721 -311 q 650 -193 650 -249 q 686 -109 650 -143 q 786 -75 722 -75 q 887 -106 851 -75 q 922 -193 922 -137 q 886 -277 922 -243 q 786 -311 850 -311 m 603 1047 l 535 1126 l 724 1274 l 849 1274 l 1038 1126 l 969 1047 l 765 1146 l 807 1146 l 603 1047 z "},"Ồ":{"ha":1572,"x_min":171,"x_max":1400,"o":"m 788 -14 q 538 24 650 -14 q 343 131 425 63 q 216 292 261 200 q 171 490 171 383 q 216 689 171 597 q 344 849 261 781 q 538 956 426 918 q 786 994 650 994 q 1033 956 921 994 q 1228 849 1146 918 q 1355 689 1310 781 q 1400 490 1400 597 q 1355 292 1400 383 q 1228 131 1310 200 q 1033 24 1146 63 q 788 -14 921 -14 m 786 208 q 937 230 868 208 q 1056 290 1006 251 q 1133 379 1106 328 q 1160 490 1160 431 q 1133 601 1160 550 q 1056 691 1106 653 q 937 751 1006 729 q 786 772 868 772 q 635 751 704 772 q 516 691 567 729 q 439 601 465 653 q 413 490 413 550 q 439 379 413 431 q 516 290 465 328 q 635 230 567 251 q 786 208 704 208 m 600 1042 l 538 1118 l 724 1260 l 849 1260 l 1035 1118 l 972 1042 l 765 1132 l 807 1132 l 600 1042 m 1021 1222 l 836 1414 l 975 1514 l 1107 1285 l 1021 1222 z "},"Ổ":{"ha":1572,"x_min":171,"x_max":1400,"o":"m 788 -14 q 538 24 650 -14 q 343 131 425 63 q 216 292 261 200 q 171 490 171 383 q 216 689 171 597 q 344 849 261 781 q 538 956 426 918 q 786 994 650 994 q 1033 956 921 994 q 1228 849 1146 918 q 1355 689 1310 781 q 1400 490 1400 597 q 1355 292 1400 383 q 1228 131 1310 200 q 1033 24 1146 63 q 788 -14 921 -14 m 786 208 q 937 230 868 208 q 1056 290 1006 251 q 1133 379 1106 328 q 1160 490 1160 431 q 1133 601 1160 550 q 1056 691 1106 653 q 937 751 1006 729 q 786 772 868 772 q 635 751 704 772 q 516 691 567 729 q 439 601 465 653 q 413 490 413 550 q 439 379 413 431 q 516 290 465 328 q 635 230 567 251 q 786 208 704 208 m 600 1042 l 536 1118 l 724 1260 l 849 1260 l 1035 1118 l 972 1042 l 765 1132 l 807 1132 l 600 1042 m 996 1217 q 978 1243 985 1229 q 971 1272 971 1257 q 977 1299 971 1286 q 1007 1326 983 1311 q 1033 1347 1022 1338 q 1044 1365 1044 1356 q 1032 1385 1044 1378 q 999 1392 1019 1392 q 942 1383 972 1392 q 883 1364 913 1375 l 854 1482 q 926 1508 883 1497 q 1015 1519 968 1519 q 1144 1485 1096 1519 q 1192 1392 1192 1450 q 1171 1329 1192 1350 q 1126 1294 1150 1308 q 1090 1271 1104 1282 q 1076 1247 1076 1260 q 1076 1243 1076 1246 q 1078 1236 1076 1240 l 996 1217 z "},"Ỗ":{"ha":1572,"x_min":171,"x_max":1400,"o":"m 788 -14 q 538 24 650 -14 q 343 131 425 63 q 216 292 261 200 q 171 490 171 383 q 216 689 171 597 q 344 849 261 781 q 538 956 426 918 q 786 994 650 994 q 1033 956 921 994 q 1228 849 1146 918 q 1355 689 1310 781 q 1400 490 1400 597 q 1355 292 1400 383 q 1228 131 1310 200 q 1033 24 1146 63 q 788 -14 921 -14 m 786 208 q 937 230 868 208 q 1056 290 1006 251 q 1133 379 1106 328 q 1160 490 1160 431 q 1133 601 1160 550 q 1056 691 1106 653 q 937 751 1006 729 q 786 772 868 772 q 635 751 704 772 q 516 691 567 729 q 439 601 465 653 q 413 490 413 550 q 439 379 413 431 q 516 290 465 328 q 635 230 567 251 q 786 208 704 208 m 600 1042 l 538 1118 l 724 1260 l 849 1260 l 1035 1118 l 972 1042 l 765 1132 l 807 1132 l 600 1042 m 900 1325 q 841 1333 869 1325 q 785 1353 813 1340 q 742 1369 758 1364 q 711 1375 725 1375 q 675 1361 688 1375 q 658 1324 663 1347 l 531 1331 q 577 1460 532 1410 q 692 1510 622 1510 q 744 1502 721 1510 q 799 1481 768 1494 q 839 1466 821 1472 q 871 1460 857 1460 q 902 1474 893 1460 q 915 1511 911 1488 l 1043 1506 q 1024 1415 1043 1456 q 974 1349 1006 1374 q 900 1325 943 1325 z "},"Ȍ":{"ha":1572,"x_min":171,"x_max":1400,"o":"m 788 -14 q 538 24 650 -14 q 343 131 425 63 q 216 292 261 200 q 171 490 171 383 q 216 689 171 597 q 344 849 261 781 q 538 956 426 918 q 786 994 650 994 q 1033 956 921 994 q 1228 849 1146 918 q 1355 689 1310 781 q 1400 490 1400 597 q 1355 292 1400 383 q 1228 131 1310 200 q 1033 24 1146 63 q 788 -14 921 -14 m 786 208 q 937 230 868 208 q 1056 290 1006 251 q 1133 379 1106 328 q 1160 490 1160 431 q 1133 601 1160 550 q 1056 691 1106 653 q 937 751 1006 729 q 786 772 868 772 q 635 751 704 772 q 516 691 567 729 q 439 601 465 653 q 413 490 413 550 q 439 379 413 431 q 516 290 465 328 q 635 230 567 251 q 786 208 704 208 m 949 1032 l 713 1203 l 828 1333 l 1025 1122 l 949 1032 m 640 1028 l 394 1194 l 508 1331 l 715 1122 l 640 1028 z "},"Ö":{"ha":1572,"x_min":171,"x_max":1400,"o":"m 788 -14 q 538 24 650 -14 q 343 131 425 63 q 216 292 261 200 q 171 490 171 383 q 216 689 171 597 q 344 849 261 781 q 538 956 426 918 q 786 994 650 994 q 1033 956 921 994 q 1228 849 1146 918 q 1355 689 1310 781 q 1400 490 1400 597 q 1355 292 1400 383 q 1228 131 1310 200 q 1033 24 1146 63 q 788 -14 921 -14 m 786 208 q 937 230 868 208 q 1056 290 1006 251 q 1133 379 1106 328 q 1160 490 1160 431 q 1133 601 1160 550 q 1056 691 1106 653 q 937 751 1006 729 q 786 772 868 772 q 635 751 704 772 q 516 691 567 729 q 439 601 465 653 q 413 490 413 550 q 439 379 413 431 q 516 290 465 328 q 635 230 567 251 q 786 208 704 208 m 954 1047 q 864 1078 894 1047 q 833 1165 833 1110 q 865 1249 833 1215 q 954 1283 897 1283 q 1044 1252 1013 1283 q 1075 1165 1075 1221 q 1043 1081 1075 1115 q 954 1047 1011 1047 m 617 1047 q 526 1078 557 1047 q 496 1165 496 1110 q 527 1249 496 1215 q 617 1283 558 1283 q 706 1252 675 1283 q 736 1165 736 1221 q 705 1081 736 1115 q 617 1047 674 1047 z "},"Ȫ":{"ha":1572,"x_min":171,"x_max":1400,"o":"m 788 -14 q 538 24 650 -14 q 343 131 425 63 q 216 292 261 200 q 171 490 171 383 q 216 689 171 597 q 344 849 261 781 q 538 956 426 918 q 786 994 650 994 q 1033 956 921 994 q 1228 849 1146 918 q 1355 689 1310 781 q 1400 490 1400 597 q 1355 292 1400 383 q 1228 131 1310 200 q 1033 24 1146 63 q 788 -14 921 -14 m 786 208 q 937 230 868 208 q 1056 290 1006 251 q 1133 379 1106 328 q 1160 490 1160 431 q 1133 601 1160 550 q 1056 691 1106 653 q 937 751 1006 729 q 786 772 868 772 q 635 751 704 772 q 516 691 567 729 q 439 601 465 653 q 413 490 413 550 q 439 379 413 431 q 516 290 465 328 q 635 230 567 251 q 786 208 704 208 m 954 1047 q 864 1078 894 1047 q 833 1165 833 1110 q 865 1249 833 1215 q 954 1283 897 1283 q 1044 1252 1013 1283 q 1075 1165 1075 1221 q 1043 1081 1075 1115 q 954 1047 1011 1047 m 617 1047 q 526 1078 557 1047 q 496 1165 496 1110 q 527 1249 496 1215 q 617 1283 558 1283 q 706 1252 675 1283 q 736 1165 736 1221 q 705 1081 736 1115 q 617 1047 674 1047 m 536 1360 l 536 1500 l 1035 1500 l 1035 1360 l 536 1360 z "},"Ȱ":{"ha":1572,"x_min":171,"x_max":1400,"o":"m 788 -14 q 538 24 650 -14 q 343 131 425 63 q 216 292 261 200 q 171 490 171 383 q 216 689 171 597 q 344 849 261 781 q 538 956 426 918 q 786 994 650 994 q 1033 956 921 994 q 1228 849 1146 918 q 1355 689 1310 781 q 1400 490 1400 597 q 1355 292 1400 383 q 1228 131 1310 200 q 1033 24 1146 63 q 788 -14 921 -14 m 786 208 q 937 230 868 208 q 1056 290 1006 251 q 1133 379 1106 328 q 1160 490 1160 431 q 1133 601 1160 550 q 1056 691 1106 653 q 937 751 1006 729 q 786 772 868 772 q 635 751 704 772 q 516 691 567 729 q 439 601 465 653 q 413 490 413 550 q 439 379 413 431 q 516 290 465 328 q 635 230 567 251 q 786 208 704 208 m 786 1050 q 688 1081 722 1050 q 654 1165 654 1111 q 689 1247 654 1214 q 786 1281 724 1281 q 884 1250 850 1281 q 918 1165 918 1219 q 883 1083 918 1117 q 786 1050 849 1050 m 536 1360 l 536 1500 l 1035 1500 l 1035 1360 l 536 1360 z "},"Ọ":{"ha":1572,"x_min":171,"x_max":1400,"o":"m 788 -14 q 538 24 650 -14 q 343 131 425 63 q 216 292 261 200 q 171 490 171 383 q 216 689 171 597 q 344 849 261 781 q 538 956 426 918 q 786 994 650 994 q 1033 956 921 994 q 1228 849 1146 918 q 1355 689 1310 781 q 1400 490 1400 597 q 1355 292 1400 383 q 1228 131 1310 200 q 1033 24 1146 63 q 788 -14 921 -14 m 786 208 q 937 230 868 208 q 1056 290 1006 251 q 1133 379 1106 328 q 1160 490 1160 431 q 1133 601 1160 550 q 1056 691 1106 653 q 937 751 1006 729 q 786 772 868 772 q 635 751 704 772 q 516 691 567 729 q 439 601 465 653 q 413 490 413 550 q 439 379 413 431 q 516 290 465 328 q 635 230 567 251 q 786 208 704 208 m 786 -311 q 685 -280 721 -311 q 650 -193 650 -249 q 686 -109 650 -143 q 786 -75 722 -75 q 887 -106 851 -75 q 922 -193 922 -137 q 886 -277 922 -243 q 786 -311 850 -311 z "},"Ò":{"ha":1572,"x_min":171,"x_max":1400,"o":"m 788 -14 q 538 24 650 -14 q 343 131 425 63 q 216 292 261 200 q 171 490 171 383 q 216 689 171 597 q 344 849 261 781 q 538 956 426 918 q 786 994 650 994 q 1033 956 921 994 q 1228 849 1146 918 q 1355 689 1310 781 q 1400 490 1400 597 q 1355 292 1400 383 q 1228 131 1310 200 q 1033 24 1146 63 q 788 -14 921 -14 m 786 208 q 937 230 868 208 q 1056 290 1006 251 q 1133 379 1106 328 q 1160 490 1160 431 q 1133 601 1160 550 q 1056 691 1106 653 q 937 751 1006 729 q 786 772 868 772 q 635 751 704 772 q 516 691 567 729 q 439 601 465 653 q 413 490 413 550 q 439 379 413 431 q 516 290 465 328 q 635 230 567 251 q 786 208 704 208 m 928 1039 l 613 1147 l 689 1310 l 979 1150 l 928 1039 z "},"Ỏ":{"ha":1572,"x_min":171,"x_max":1400,"o":"m 788 -14 q 538 24 650 -14 q 343 131 425 63 q 216 292 261 200 q 171 490 171 383 q 216 689 171 597 q 344 849 261 781 q 538 956 426 918 q 786 994 650 994 q 1033 956 921 994 q 1228 849 1146 918 q 1355 689 1310 781 q 1400 490 1400 597 q 1355 292 1400 383 q 1228 131 1310 200 q 1033 24 1146 63 q 788 -14 921 -14 m 786 208 q 937 230 868 208 q 1056 290 1006 251 q 1133 379 1106 328 q 1160 490 1160 431 q 1133 601 1160 550 q 1056 691 1106 653 q 937 751 1006 729 q 786 772 868 772 q 635 751 704 772 q 516 691 567 729 q 439 601 465 653 q 413 490 413 550 q 439 379 413 431 q 516 290 465 328 q 635 230 567 251 q 786 208 704 208 m 751 1036 q 733 1064 742 1049 q 725 1096 725 1079 q 734 1128 725 1113 q 768 1163 743 1144 q 799 1185 788 1175 q 810 1208 810 1194 q 798 1227 810 1221 q 768 1233 786 1233 q 710 1225 740 1233 q 649 1203 679 1217 l 617 1321 q 692 1349 647 1338 q 785 1361 738 1361 q 910 1327 864 1361 q 957 1236 957 1293 q 938 1167 957 1190 q 896 1129 918 1143 q 859 1103 874 1115 q 844 1076 844 1090 q 846 1067 844 1071 q 849 1057 847 1063 l 751 1036 z "},"Ơ":{"ha":1572,"x_min":171,"x_max":1406,"o":"m 786 -14 q 538 24 650 -14 q 343 131 425 63 q 216 292 261 200 q 171 490 171 383 q 216 689 171 597 q 344 849 261 781 q 538 956 426 918 q 786 994 650 994 q 851 991 814 994 q 925 982 888 988 q 997 971 961 976 q 1071 965 1033 965 q 1156 983 1121 965 q 1210 1040 1190 1000 q 1229 1146 1229 1079 l 1406 1146 q 1392 1034 1406 1088 q 1349 940 1379 981 q 1268 876 1319 899 q 1140 857 1217 853 l 1175 882 q 1295 776 1244 838 q 1373 643 1346 715 q 1400 490 1400 571 q 1355 292 1400 383 q 1228 131 1310 200 q 1033 24 1146 63 q 786 -14 921 -14 m 786 208 q 937 230 868 208 q 1056 290 1006 251 q 1133 379 1106 328 q 1160 490 1160 431 q 1133 601 1160 550 q 1056 691 1106 653 q 937 751 1006 729 q 786 772 868 772 q 635 751 704 772 q 516 691 567 729 q 439 601 465 653 q 413 490 413 550 q 439 379 413 431 q 516 290 465 328 q 635 230 567 251 q 786 208 704 208 z "},"Ớ":{"ha":1572,"x_min":171,"x_max":1406,"o":"m 786 -14 q 538 24 650 -14 q 343 131 425 63 q 216 292 261 200 q 171 490 171 383 q 216 689 171 597 q 344 849 261 781 q 538 956 426 918 q 786 994 650 994 q 851 991 814 994 q 925 982 888 988 q 997 971 961 976 q 1071 965 1033 965 q 1156 983 1121 965 q 1210 1040 1190 1000 q 1229 1146 1229 1079 l 1406 1146 q 1392 1034 1406 1088 q 1349 940 1379 981 q 1268 876 1319 899 q 1140 857 1217 853 l 1175 882 q 1295 776 1244 838 q 1373 643 1346 715 q 1400 490 1400 571 q 1355 292 1400 383 q 1228 131 1310 200 q 1033 24 1146 63 q 786 -14 921 -14 m 786 208 q 937 230 868 208 q 1056 290 1006 251 q 1133 379 1106 328 q 1160 490 1160 431 q 1133 601 1160 550 q 1056 691 1106 653 q 937 751 1006 729 q 786 772 868 772 q 635 751 704 772 q 516 691 567 729 q 439 601 465 653 q 413 490 413 550 q 439 379 413 431 q 516 290 465 328 q 635 230 567 251 q 786 208 704 208 m 657 1039 l 606 1150 l 896 1310 l 972 1147 l 657 1039 z "},"Ợ":{"ha":1572,"x_min":171,"x_max":1406,"o":"m 786 -14 q 538 24 650 -14 q 343 131 425 63 q 216 292 261 200 q 171 490 171 383 q 216 689 171 597 q 344 849 261 781 q 538 956 426 918 q 786 994 650 994 q 851 991 814 994 q 925 982 888 988 q 997 971 961 976 q 1071 965 1033 965 q 1156 983 1121 965 q 1210 1040 1190 1000 q 1229 1146 1229 1079 l 1406 1146 q 1392 1034 1406 1088 q 1349 940 1379 981 q 1268 876 1319 899 q 1140 857 1217 853 l 1175 882 q 1295 776 1244 838 q 1373 643 1346 715 q 1400 490 1400 571 q 1355 292 1400 383 q 1228 131 1310 200 q 1033 24 1146 63 q 786 -14 921 -14 m 786 208 q 937 230 868 208 q 1056 290 1006 251 q 1133 379 1106 328 q 1160 490 1160 431 q 1133 601 1160 550 q 1056 691 1106 653 q 937 751 1006 729 q 786 772 868 772 q 635 751 704 772 q 516 691 567 729 q 439 601 465 653 q 413 490 413 550 q 439 379 413 431 q 516 290 465 328 q 635 230 567 251 q 786 208 704 208 m 786 -311 q 685 -280 721 -311 q 650 -193 650 -249 q 686 -109 650 -143 q 786 -75 722 -75 q 887 -106 851 -75 q 922 -193 922 -137 q 886 -277 922 -243 q 786 -311 850 -311 z "},"Ờ":{"ha":1572,"x_min":171,"x_max":1406,"o":"m 786 -14 q 538 24 650 -14 q 343 131 425 63 q 216 292 261 200 q 171 490 171 383 q 216 689 171 597 q 344 849 261 781 q 538 956 426 918 q 786 994 650 994 q 851 991 814 994 q 925 982 888 988 q 997 971 961 976 q 1071 965 1033 965 q 1156 983 1121 965 q 1210 1040 1190 1000 q 1229 1146 1229 1079 l 1406 1146 q 1392 1034 1406 1088 q 1349 940 1379 981 q 1268 876 1319 899 q 1140 857 1217 853 l 1175 882 q 1295 776 1244 838 q 1373 643 1346 715 q 1400 490 1400 571 q 1355 292 1400 383 q 1228 131 1310 200 q 1033 24 1146 63 q 786 -14 921 -14 m 786 208 q 937 230 868 208 q 1056 290 1006 251 q 1133 379 1106 328 q 1160 490 1160 431 q 1133 601 1160 550 q 1056 691 1106 653 q 937 751 1006 729 q 786 772 868 772 q 635 751 704 772 q 516 691 567 729 q 439 601 465 653 q 413 490 413 550 q 439 379 413 431 q 516 290 465 328 q 635 230 567 251 q 786 208 704 208 m 928 1039 l 613 1147 l 689 1310 l 979 1150 l 928 1039 z "},"Ở":{"ha":1572,"x_min":171,"x_max":1406,"o":"m 786 -14 q 538 24 650 -14 q 343 131 425 63 q 216 292 261 200 q 171 490 171 383 q 216 689 171 597 q 344 849 261 781 q 538 956 426 918 q 786 994 650 994 q 851 991 814 994 q 925 982 888 988 q 997 971 961 976 q 1071 965 1033 965 q 1156 983 1121 965 q 1210 1040 1190 1000 q 1229 1146 1229 1079 l 1406 1146 q 1392 1034 1406 1088 q 1349 940 1379 981 q 1268 876 1319 899 q 1140 857 1217 853 l 1175 882 q 1295 776 1244 838 q 1373 643 1346 715 q 1400 490 1400 571 q 1355 292 1400 383 q 1228 131 1310 200 q 1033 24 1146 63 q 786 -14 921 -14 m 786 208 q 937 230 868 208 q 1056 290 1006 251 q 1133 379 1106 328 q 1160 490 1160 431 q 1133 601 1160 550 q 1056 691 1106 653 q 937 751 1006 729 q 786 772 868 772 q 635 751 704 772 q 516 691 567 729 q 439 601 465 653 q 413 490 413 550 q 439 379 413 431 q 516 290 465 328 q 635 230 567 251 q 786 208 704 208 m 751 1036 q 733 1064 742 1049 q 725 1096 725 1079 q 734 1128 725 1113 q 768 1163 743 1144 q 799 1185 788 1175 q 810 1208 810 1194 q 798 1227 810 1221 q 768 1233 786 1233 q 710 1225 740 1233 q 649 1203 679 1217 l 617 1321 q 692 1349 647 1338 q 785 1361 738 1361 q 910 1327 864 1361 q 957 1236 957 1293 q 938 1167 957 1190 q 896 1129 918 1143 q 859 1103 874 1115 q 844 1076 844 1090 q 846 1067 844 1071 q 849 1057 847 1063 l 751 1036 z "},"Ỡ":{"ha":1572,"x_min":171,"x_max":1406,"o":"m 786 -14 q 538 24 650 -14 q 343 131 425 63 q 216 292 261 200 q 171 490 171 383 q 216 689 171 597 q 344 849 261 781 q 538 956 426 918 q 786 994 650 994 q 851 991 814 994 q 925 982 888 988 q 997 971 961 976 q 1071 965 1033 965 q 1156 983 1121 965 q 1210 1040 1190 1000 q 1229 1146 1229 1079 l 1406 1146 q 1392 1034 1406 1088 q 1349 940 1379 981 q 1268 876 1319 899 q 1140 857 1217 853 l 1175 882 q 1295 776 1244 838 q 1373 643 1346 715 q 1400 490 1400 571 q 1355 292 1400 383 q 1228 131 1310 200 q 1033 24 1146 63 q 786 -14 921 -14 m 786 208 q 937 230 868 208 q 1056 290 1006 251 q 1133 379 1106 328 q 1160 490 1160 431 q 1133 601 1160 550 q 1056 691 1106 653 q 937 751 1006 729 q 786 772 868 772 q 635 751 704 772 q 516 691 567 729 q 439 601 465 653 q 413 490 413 550 q 439 379 413 431 q 516 290 465 328 q 635 230 567 251 q 786 208 704 208 m 893 1067 q 838 1075 865 1067 q 776 1097 810 1083 q 734 1115 751 1110 q 703 1121 717 1121 q 672 1107 683 1121 q 660 1068 660 1093 l 521 1068 q 572 1212 521 1160 q 699 1264 622 1264 q 748 1257 724 1264 q 810 1233 772 1250 q 847 1217 832 1222 q 875 1211 863 1211 q 903 1226 893 1211 q 913 1264 914 1240 l 1050 1264 q 1030 1165 1050 1211 q 975 1093 1010 1119 q 893 1067 940 1067 z "},"Ő":{"ha":1572,"x_min":171,"x_max":1400,"o":"m 788 -14 q 538 24 650 -14 q 343 131 425 63 q 216 292 261 200 q 171 490 171 383 q 216 689 171 597 q 344 849 261 781 q 538 956 426 918 q 786 994 650 994 q 1033 956 921 994 q 1228 849 1146 918 q 1355 689 1310 781 q 1400 490 1400 597 q 1355 292 1400 383 q 1228 131 1310 200 q 1033 24 1146 63 q 788 -14 921 -14 m 786 208 q 937 230 868 208 q 1056 290 1006 251 q 1133 379 1106 328 q 1160 490 1160 431 q 1133 601 1160 550 q 1056 691 1106 653 q 937 751 1006 729 q 786 772 868 772 q 635 751 704 772 q 516 691 567 729 q 439 601 465 653 q 413 490 413 550 q 439 379 413 431 q 516 290 465 328 q 635 230 567 251 q 786 208 704 208 m 617 1046 l 544 1143 l 754 1342 l 861 1206 l 617 1046 m 925 1043 l 856 1143 l 1074 1339 l 1181 1197 l 925 1043 z "},"Ȏ":{"ha":1572,"x_min":171,"x_max":1400,"o":"m 788 -14 q 538 24 650 -14 q 343 131 425 63 q 216 292 261 200 q 171 490 171 383 q 216 689 171 597 q 344 849 261 781 q 538 956 426 918 q 786 994 650 994 q 1033 956 921 994 q 1228 849 1146 918 q 1355 689 1310 781 q 1400 490 1400 597 q 1355 292 1400 383 q 1228 131 1310 200 q 1033 24 1146 63 q 788 -14 921 -14 m 786 208 q 937 230 868 208 q 1056 290 1006 251 q 1133 379 1106 328 q 1160 490 1160 431 q 1133 601 1160 550 q 1056 691 1106 653 q 937 751 1006 729 q 786 772 868 772 q 635 751 704 772 q 516 691 567 729 q 439 601 465 653 q 413 490 413 550 q 439 379 413 431 q 516 290 465 328 q 635 230 567 251 q 786 208 704 208 m 679 1053 l 538 1069 q 585 1179 550 1132 q 672 1253 621 1226 q 786 1279 724 1279 q 901 1253 850 1279 q 987 1179 951 1226 q 1035 1069 1022 1132 l 893 1053 q 850 1111 879 1088 q 786 1135 821 1135 q 722 1111 751 1135 q 679 1053 693 1088 z "},"Ō":{"ha":1572,"x_min":171,"x_max":1400,"o":"m 788 -14 q 538 24 650 -14 q 343 131 425 63 q 216 292 261 200 q 171 490 171 383 q 216 689 171 597 q 344 849 261 781 q 538 956 426 918 q 786 994 650 994 q 1033 956 921 994 q 1228 849 1146 918 q 1355 689 1310 781 q 1400 490 1400 597 q 1355 292 1400 383 q 1228 131 1310 200 q 1033 24 1146 63 q 788 -14 921 -14 m 786 208 q 937 230 868 208 q 1056 290 1006 251 q 1133 379 1106 328 q 1160 490 1160 431 q 1133 601 1160 550 q 1056 691 1106 653 q 937 751 1006 729 q 786 772 868 772 q 635 751 704 772 q 516 691 567 729 q 439 601 465 653 q 413 490 413 550 q 439 379 413 431 q 516 290 465 328 q 635 230 567 251 q 786 208 704 208 m 536 1096 l 536 1236 l 1035 1236 l 1035 1096 l 536 1096 z "},"Ṓ":{"ha":1572,"x_min":171,"x_max":1400,"o":"m 788 -14 q 538 24 650 -14 q 343 131 425 63 q 216 292 261 200 q 171 490 171 383 q 216 689 171 597 q 344 849 261 781 q 538 956 426 918 q 786 994 650 994 q 1033 956 921 994 q 1228 849 1146 918 q 1355 689 1310 781 q 1400 490 1400 597 q 1355 292 1400 383 q 1228 131 1310 200 q 1033 24 1146 63 q 788 -14 921 -14 m 786 208 q 937 230 868 208 q 1056 290 1006 251 q 1133 379 1106 328 q 1160 490 1160 431 q 1133 601 1160 550 q 1056 691 1106 653 q 937 751 1006 729 q 786 772 868 772 q 635 751 704 772 q 516 691 567 729 q 439 601 465 653 q 413 490 413 550 q 439 379 413 431 q 516 290 465 328 q 635 230 567 251 q 786 208 704 208 m 536 1096 l 536 1236 l 1035 1236 l 1035 1096 l 536 1096 m 657 1303 l 606 1414 l 896 1574 l 972 1411 l 657 1303 z "},"Ṑ":{"ha":1572,"x_min":171,"x_max":1400,"o":"m 788 -14 q 538 24 650 -14 q 343 131 425 63 q 216 292 261 200 q 171 490 171 383 q 216 689 171 597 q 344 849 261 781 q 538 956 426 918 q 786 994 650 994 q 1033 956 921 994 q 1228 849 1146 918 q 1355 689 1310 781 q 1400 490 1400 597 q 1355 292 1400 383 q 1228 131 1310 200 q 1033 24 1146 63 q 788 -14 921 -14 m 786 208 q 937 230 868 208 q 1056 290 1006 251 q 1133 379 1106 328 q 1160 490 1160 431 q 1133 601 1160 550 q 1056 691 1106 653 q 937 751 1006 729 q 786 772 868 772 q 635 751 704 772 q 516 691 567 729 q 439 601 465 653 q 413 490 413 550 q 439 379 413 431 q 516 290 465 328 q 635 230 567 251 q 786 208 704 208 m 536 1096 l 536 1236 l 1035 1236 l 1035 1096 l 536 1096 m 928 1303 l 613 1411 l 689 1574 l 979 1414 l 928 1303 z "},"Ǫ":{"ha":1572,"x_min":171,"x_max":1400,"o":"m 910 -293 q 792 -248 836 -293 q 749 -142 749 -203 q 783 -43 749 -87 q 871 36 817 1 q 984 97 925 71 q 1094 142 1043 124 l 1118 64 q 1071 42 1106 56 q 997 8 1036 29 q 931 -40 958 -12 q 903 -106 903 -68 q 913 -137 903 -124 q 942 -150 924 -150 q 969 -140 958 -150 q 988 -117 981 -131 l 1085 -187 q 1022 -259 1067 -225 q 910 -293 978 -293 m 786 -14 q 538 24 650 -14 q 343 131 425 63 q 216 292 261 200 q 171 490 171 383 q 216 689 171 597 q 344 849 261 781 q 538 956 426 918 q 786 994 650 994 q 1033 956 921 994 q 1228 849 1146 918 q 1355 689 1310 781 q 1400 490 1400 597 q 1355 292 1400 383 q 1228 131 1310 200 q 1033 24 1146 63 q 786 -14 921 -14 m 786 208 q 937 230 868 208 q 1056 290 1006 251 q 1133 379 1106 328 q 1160 490 1160 431 q 1133 601 1160 550 q 1056 691 1106 653 q 937 751 1006 729 q 786 772 868 772 q 635 751 704 772 q 516 691 567 729 q 439 601 465 653 q 413 490 413 550 q 439 379 413 431 q 516 290 465 328 q 635 230 567 251 q 786 208 704 208 z "},"Ø":{"ha":1621,"x_min":192,"x_max":1421,"o":"m 283 -47 l 200 54 l 1322 1024 l 1414 929 l 283 -47 m 807 -14 q 558 24 671 -14 q 363 131 446 63 q 236 292 281 200 q 192 490 192 383 q 237 689 192 597 q 364 849 282 781 q 558 956 446 918 q 807 994 671 994 q 1053 956 942 994 q 1248 849 1165 918 q 1376 689 1331 781 q 1421 490 1421 597 q 1376 292 1421 383 q 1248 131 1331 200 q 1053 24 1165 63 q 807 -14 942 -14 m 807 208 q 957 230 889 208 q 1075 290 1025 251 q 1153 379 1125 328 q 1181 490 1181 431 q 1153 601 1181 550 q 1075 691 1125 653 q 957 751 1025 729 q 807 772 889 772 q 655 751 724 772 q 536 691 586 729 q 459 601 486 653 q 432 490 432 550 q 459 379 432 431 q 536 290 486 328 q 655 230 586 251 q 807 208 724 208 z "},"Ǿ":{"ha":1621,"x_min":192,"x_max":1421,"o":"m 283 -47 l 200 54 l 1322 1024 l 1414 929 l 283 -47 m 807 -14 q 558 24 671 -14 q 363 131 446 63 q 236 292 281 200 q 192 490 192 383 q 237 689 192 597 q 364 849 282 781 q 558 956 446 918 q 807 994 671 994 q 1053 956 942 994 q 1248 849 1165 918 q 1376 689 1331 781 q 1421 490 1421 597 q 1376 292 1421 383 q 1248 131 1331 200 q 1053 24 1165 63 q 807 -14 942 -14 m 807 208 q 957 230 889 208 q 1075 290 1025 251 q 1153 379 1125 328 q 1181 490 1181 431 q 1153 601 1181 550 q 1075 691 1125 653 q 957 751 1025 729 q 807 772 889 772 q 655 751 724 772 q 536 691 586 729 q 459 601 486 653 q 432 490 432 550 q 459 379 432 431 q 536 290 486 328 q 655 230 586 251 q 807 208 724 208 m 681 1039 l 629 1150 l 919 1310 l 996 1147 l 681 1039 z "},"Õ":{"ha":1572,"x_min":171,"x_max":1400,"o":"m 788 -14 q 538 24 650 -14 q 343 131 425 63 q 216 292 261 200 q 171 490 171 383 q 216 689 171 597 q 344 849 261 781 q 538 956 426 918 q 786 994 650 994 q 1033 956 921 994 q 1228 849 1146 918 q 1355 689 1310 781 q 1400 490 1400 597 q 1355 292 1400 383 q 1228 131 1310 200 q 1033 24 1146 63 q 788 -14 921 -14 m 786 208 q 937 230 868 208 q 1056 290 1006 251 q 1133 379 1106 328 q 1160 490 1160 431 q 1133 601 1160 550 q 1056 691 1106 653 q 937 751 1006 729 q 786 772 868 772 q 635 751 704 772 q 516 691 567 729 q 439 601 465 653 q 413 490 413 550 q 439 379 413 431 q 516 290 465 328 q 635 230 567 251 q 786 208 704 208 m 893 1067 q 838 1075 865 1067 q 776 1097 810 1083 q 734 1115 751 1110 q 703 1121 717 1121 q 672 1107 683 1121 q 660 1068 660 1093 l 521 1068 q 572 1212 521 1160 q 699 1264 622 1264 q 748 1257 724 1264 q 810 1233 772 1250 q 847 1217 832 1222 q 875 1211 863 1211 q 903 1226 893 1211 q 913 1264 914 1240 l 1050 1264 q 1030 1165 1050 1211 q 975 1093 1010 1119 q 893 1067 940 1067 z "},"Ṍ":{"ha":1572,"x_min":171,"x_max":1400,"o":"m 788 -14 q 538 24 650 -14 q 343 131 425 63 q 216 292 261 200 q 171 490 171 383 q 216 689 171 597 q 344 849 261 781 q 538 956 426 918 q 786 994 650 994 q 1033 956 921 994 q 1228 849 1146 918 q 1355 689 1310 781 q 1400 490 1400 597 q 1355 292 1400 383 q 1228 131 1310 200 q 1033 24 1146 63 q 788 -14 921 -14 m 786 208 q 937 230 868 208 q 1056 290 1006 251 q 1133 379 1106 328 q 1160 490 1160 431 q 1133 601 1160 550 q 1056 691 1106 653 q 937 751 1006 729 q 786 772 868 772 q 635 751 704 772 q 516 691 567 729 q 439 601 465 653 q 413 490 413 550 q 439 379 413 431 q 516 290 465 328 q 635 230 567 251 q 786 208 704 208 m 893 1067 q 838 1075 865 1067 q 776 1097 810 1083 q 734 1115 751 1110 q 703 1121 717 1121 q 672 1107 683 1121 q 660 1068 660 1093 l 521 1068 q 572 1212 521 1160 q 699 1264 622 1264 q 748 1257 724 1264 q 810 1233 772 1250 q 847 1217 832 1222 q 875 1211 863 1211 q 903 1226 893 1211 q 913 1264 914 1240 l 1050 1264 q 1030 1165 1050 1211 q 975 1093 1010 1119 q 893 1067 940 1067 m 657 1303 l 606 1414 l 896 1574 l 972 1411 l 657 1303 z "},"Ṏ":{"ha":1572,"x_min":171,"x_max":1400,"o":"m 788 -14 q 538 24 650 -14 q 343 131 425 63 q 216 292 261 200 q 171 490 171 383 q 216 689 171 597 q 344 849 261 781 q 538 956 426 918 q 786 994 650 994 q 1033 956 921 994 q 1228 849 1146 918 q 1355 689 1310 781 q 1400 490 1400 597 q 1355 292 1400 383 q 1228 131 1310 200 q 1033 24 1146 63 q 788 -14 921 -14 m 786 208 q 937 230 868 208 q 1056 290 1006 251 q 1133 379 1106 328 q 1160 490 1160 431 q 1133 601 1160 550 q 1056 691 1106 653 q 937 751 1006 729 q 786 772 868 772 q 635 751 704 772 q 516 691 567 729 q 439 601 465 653 q 413 490 413 550 q 439 379 413 431 q 516 290 465 328 q 635 230 567 251 q 786 208 704 208 m 893 1067 q 838 1075 865 1067 q 776 1097 810 1083 q 734 1115 751 1110 q 703 1121 717 1121 q 672 1107 683 1121 q 660 1068 660 1093 l 521 1068 q 572 1212 521 1160 q 699 1264 622 1264 q 748 1257 724 1264 q 810 1233 772 1250 q 847 1217 832 1222 q 875 1211 863 1211 q 903 1226 893 1211 q 913 1264 914 1240 l 1050 1264 q 1030 1165 1050 1211 q 975 1093 1010 1119 q 893 1067 940 1067 m 954 1311 q 864 1342 894 1311 q 833 1429 833 1374 q 865 1513 833 1479 q 954 1547 897 1547 q 1044 1516 1013 1547 q 1075 1429 1075 1485 q 1043 1345 1075 1379 q 954 1311 1011 1311 m 617 1311 q 526 1342 557 1311 q 496 1429 496 1374 q 527 1513 496 1479 q 617 1547 558 1547 q 706 1516 675 1547 q 736 1429 736 1485 q 705 1345 736 1379 q 617 1311 674 1311 z "},"Ȭ":{"ha":1572,"x_min":171,"x_max":1400,"o":"m 788 -14 q 538 24 650 -14 q 343 131 425 63 q 216 292 261 200 q 171 490 171 383 q 216 689 171 597 q 344 849 261 781 q 538 956 426 918 q 786 994 650 994 q 1033 956 921 994 q 1228 849 1146 918 q 1355 689 1310 781 q 1400 490 1400 597 q 1355 292 1400 383 q 1228 131 1310 200 q 1033 24 1146 63 q 788 -14 921 -14 m 786 208 q 937 230 868 208 q 1056 290 1006 251 q 1133 379 1106 328 q 1160 490 1160 431 q 1133 601 1160 550 q 1056 691 1106 653 q 937 751 1006 729 q 786 772 868 772 q 635 751 704 772 q 516 691 567 729 q 439 601 465 653 q 413 490 413 550 q 439 379 413 431 q 516 290 465 328 q 635 230 567 251 q 786 208 704 208 m 893 1067 q 838 1075 865 1067 q 776 1097 810 1083 q 734 1115 751 1110 q 703 1121 717 1121 q 672 1107 683 1121 q 660 1068 660 1093 l 521 1068 q 572 1212 521 1160 q 699 1264 622 1264 q 748 1257 724 1264 q 810 1233 772 1250 q 847 1217 832 1222 q 875 1211 863 1211 q 903 1226 893 1211 q 913 1264 914 1240 l 1050 1264 q 1030 1165 1050 1211 q 975 1093 1010 1119 q 893 1067 940 1067 m 536 1360 l 536 1500 l 1035 1500 l 1035 1360 l 536 1360 z "},"Œ":{"ha":2117,"x_min":171,"x_max":1917,"o":"m 729 0 q 488 38 593 0 q 313 143 383 76 q 207 298 243 210 q 171 486 171 386 q 209 672 171 585 q 321 827 247 760 q 504 933 394 894 q 757 972 614 972 l 1917 972 l 1917 771 l 1260 771 l 1260 594 l 1840 594 l 1840 403 l 1260 403 l 1260 201 l 1917 201 l 1917 0 l 729 0 m 410 486 q 432 384 410 433 q 498 295 454 335 q 606 232 542 256 q 757 208 671 208 l 1031 208 l 1031 764 l 768 764 q 613 740 681 764 q 501 676 546 717 q 433 588 457 636 q 410 486 410 539 z "},"P":{"ha":1363,"x_min":239,"x_max":1179,"o":"m 239 0 l 239 972 l 831 972 q 1008 931 929 972 q 1133 817 1086 889 q 1179 654 1179 744 q 1128 478 1179 556 q 993 356 1078 400 q 803 311 908 311 l 475 311 l 475 0 l 239 0 m 471 518 l 758 518 q 844 535 806 518 q 907 583 883 553 q 931 650 931 613 q 907 711 931 686 q 844 750 883 736 q 758 764 806 764 l 471 764 l 471 518 z "},"Þ":{"ha":1383,"x_min":239,"x_max":1200,"o":"m 239 0 l 239 972 l 475 972 l 475 818 l 826 818 q 1027 782 944 818 q 1155 675 1110 746 q 1200 499 1200 604 q 1155 331 1200 406 q 1027 213 1110 256 q 826 169 944 169 l 475 169 l 475 0 l 239 0 m 475 378 l 814 378 q 883 392 851 378 q 933 434 914 407 q 951 496 951 461 q 933 556 951 531 q 883 595 914 581 q 814 610 851 610 l 475 610 l 475 378 z "},"Q":{"ha":1572,"x_min":171,"x_max":1400,"o":"m 1108 -153 l 736 351 l 910 458 l 1278 -42 l 1108 -153 m 786 -14 q 538 24 650 -14 q 343 131 425 63 q 216 292 261 200 q 171 490 171 383 q 216 689 171 597 q 344 849 261 781 q 538 956 426 918 q 786 994 650 994 q 1033 956 921 994 q 1228 849 1146 918 q 1355 689 1310 781 q 1400 490 1400 597 q 1355 292 1400 383 q 1228 131 1310 200 q 1033 24 1146 63 q 786 -14 921 -14 m 786 208 q 937 230 868 208 q 1056 290 1006 251 q 1133 379 1106 328 q 1160 490 1160 431 q 1133 601 1160 550 q 1056 691 1106 653 q 937 751 1006 729 q 786 772 868 772 q 635 751 704 772 q 516 691 567 729 q 439 601 465 653 q 413 490 413 550 q 439 379 413 431 q 516 290 465 328 q 635 230 567 251 q 786 208 704 208 z "},"R":{"ha":1414,"x_min":239,"x_max":1228,"o":"m 239 0 l 239 972 l 803 972 q 1001 934 919 972 q 1126 826 1083 896 q 1169 661 1169 756 q 1121 494 1169 568 q 989 377 1072 419 q 803 335 906 335 l 464 335 l 464 0 l 239 0 m 953 0 l 622 439 l 869 474 l 1228 0 l 953 0 m 464 515 l 775 515 q 852 532 817 515 q 909 578 888 549 q 931 649 931 608 q 909 717 931 689 q 851 760 888 744 q 772 775 815 775 l 464 775 l 464 515 z "},"Ŕ":{"ha":1414,"x_min":239,"x_max":1228,"o":"m 239 0 l 239 972 l 803 972 q 1001 934 919 972 q 1126 826 1083 896 q 1169 661 1169 756 q 1121 494 1169 568 q 989 377 1072 419 q 803 335 906 335 l 464 335 l 464 0 l 239 0 m 953 0 l 622 439 l 869 474 l 1228 0 l 953 0 m 464 515 l 775 515 q 852 532 817 515 q 909 578 888 549 q 931 649 931 608 q 909 717 931 689 q 851 760 888 744 q 772 775 815 775 l 464 775 l 464 515 m 540 1033 l 489 1144 l 779 1304 l 856 1142 l 540 1033 z "},"Ř":{"ha":1414,"x_min":239,"x_max":1228,"o":"m 239 0 l 239 972 l 803 972 q 1001 934 919 972 q 1126 826 1083 896 q 1169 661 1169 756 q 1121 494 1169 568 q 989 377 1072 419 q 803 335 906 335 l 464 335 l 464 0 l 239 0 m 953 0 l 622 439 l 869 474 l 1228 0 l 953 0 m 464 515 l 775 515 q 852 532 817 515 q 909 578 888 549 q 931 649 931 608 q 909 717 931 689 q 851 760 888 744 q 772 775 815 775 l 464 775 l 464 515 m 603 1043 l 417 1192 l 486 1269 l 690 1172 l 649 1172 l 853 1269 l 922 1192 l 736 1043 l 603 1043 z "},"Ŗ":{"ha":1414,"x_min":239,"x_max":1228,"o":"m 239 0 l 239 972 l 803 972 q 1001 934 919 972 q 1126 826 1083 896 q 1169 661 1169 756 q 1121 494 1169 568 q 989 377 1072 419 q 803 335 906 335 l 464 335 l 464 0 l 239 0 m 953 0 l 622 439 l 869 474 l 1228 0 l 953 0 m 464 515 l 775 515 q 852 532 817 515 q 909 578 888 549 q 931 649 931 608 q 909 717 931 689 q 851 760 888 744 q 772 775 815 775 l 464 775 l 464 515 m 618 -408 l 563 -332 q 605 -315 582 -326 q 645 -285 628 -303 q 663 -251 663 -268 q 653 -233 663 -239 q 629 -219 643 -226 q 590 -193 604 -208 q 575 -146 575 -178 q 608 -78 575 -100 q 688 -56 640 -56 q 784 -88 742 -56 q 826 -190 826 -121 q 809 -270 826 -235 q 761 -333 792 -306 q 694 -378 731 -360 q 618 -408 657 -396 z "},"Ȑ":{"ha":1414,"x_min":239,"x_max":1228,"o":"m 239 0 l 239 972 l 803 972 q 1001 934 919 972 q 1126 826 1083 896 q 1169 661 1169 756 q 1121 494 1169 568 q 989 377 1072 419 q 803 335 906 335 l 464 335 l 464 0 l 239 0 m 953 0 l 622 439 l 869 474 l 1228 0 l 953 0 m 464 515 l 775 515 q 852 532 817 515 q 909 578 888 549 q 931 649 931 608 q 909 717 931 689 q 851 760 888 744 q 772 775 815 775 l 464 775 l 464 515 m 832 1026 l 596 1197 l 711 1328 l 908 1117 l 832 1026 m 524 1022 l 278 1189 l 392 1325 l 599 1117 l 524 1022 z "},"Ṛ":{"ha":1414,"x_min":239,"x_max":1228,"o":"m 239 0 l 239 972 l 803 972 q 1001 934 919 972 q 1126 826 1083 896 q 1169 661 1169 756 q 1121 494 1169 568 q 989 377 1072 419 q 803 335 906 335 l 464 335 l 464 0 l 239 0 m 953 0 l 622 439 l 869 474 l 1228 0 l 953 0 m 464 515 l 775 515 q 852 532 817 515 q 909 578 888 549 q 931 649 931 608 q 909 717 931 689 q 851 760 888 744 q 772 775 815 775 l 464 775 l 464 515 m 694 -311 q 594 -280 629 -311 q 558 -193 558 -249 q 594 -109 558 -143 q 694 -75 631 -75 q 795 -106 760 -75 q 831 -193 831 -137 q 794 -277 831 -243 q 694 -311 758 -311 z "},"Ȓ":{"ha":1414,"x_min":239,"x_max":1228,"o":"m 239 0 l 239 972 l 803 972 q 1001 934 919 972 q 1126 826 1083 896 q 1169 661 1169 756 q 1121 494 1169 568 q 989 377 1072 419 q 803 335 906 335 l 464 335 l 464 0 l 239 0 m 953 0 l 622 439 l 869 474 l 1228 0 l 953 0 m 464 515 l 775 515 q 852 532 817 515 q 909 578 888 549 q 931 649 931 608 q 909 717 931 689 q 851 760 888 744 q 772 775 815 775 l 464 775 l 464 515 m 563 1047 l 421 1064 q 469 1174 433 1126 q 556 1247 504 1221 q 669 1274 607 1274 q 784 1247 733 1274 q 870 1174 835 1221 q 918 1064 906 1126 l 776 1047 q 733 1106 763 1082 q 669 1129 704 1129 q 606 1106 635 1129 q 563 1047 576 1082 z "},"Ṟ":{"ha":1414,"x_min":239,"x_max":1228,"o":"m 239 0 l 239 972 l 803 972 q 1001 934 919 972 q 1126 826 1083 896 q 1169 661 1169 756 q 1121 494 1169 568 q 989 377 1072 419 q 803 335 906 335 l 464 335 l 464 0 l 239 0 m 953 0 l 622 439 l 869 474 l 1228 0 l 953 0 m 464 515 l 775 515 q 852 532 817 515 q 909 578 888 549 q 931 649 931 608 q 909 717 931 689 q 851 760 888 744 q 772 775 815 775 l 464 775 l 464 515 m 482 -275 l 482 -111 l 907 -111 l 907 -275 l 482 -275 z "},"S":{"ha":1317,"x_min":136,"x_max":1160,"o":"m 676 -14 q 460 8 558 -14 q 281 66 361 29 q 136 150 201 103 l 244 339 q 474 222 358 258 q 694 185 589 185 q 790 194 740 185 q 874 226 840 203 q 908 289 908 249 q 892 328 908 313 q 849 354 876 344 q 784 370 821 364 q 705 380 747 376 q 619 388 663 383 q 443 419 522 397 q 308 477 364 442 q 221 564 251 513 q 190 682 190 615 q 227 815 190 757 q 331 913 264 874 q 484 974 397 953 q 671 994 571 994 q 859 976 775 994 q 1008 925 943 957 q 1115 856 1072 893 l 1001 692 q 902 747 958 724 q 784 782 846 769 q 661 794 722 794 q 549 784 599 794 q 472 753 500 774 q 443 701 443 733 q 467 653 443 672 q 531 624 492 635 q 617 608 569 614 q 708 597 664 603 q 872 576 792 589 q 1017 534 953 563 q 1121 453 1082 506 q 1160 313 1160 401 q 1097 137 1160 210 q 926 25 1035 64 q 676 -14 817 -14 z "},"Ś":{"ha":1317,"x_min":136,"x_max":1160,"o":"m 676 -14 q 460 8 558 -14 q 281 66 361 29 q 136 150 201 103 l 244 339 q 474 222 358 258 q 694 185 589 185 q 790 194 740 185 q 874 226 840 203 q 908 289 908 249 q 892 328 908 313 q 849 354 876 344 q 784 370 821 364 q 705 380 747 376 q 619 388 663 383 q 443 419 522 397 q 308 477 364 442 q 221 564 251 513 q 190 682 190 615 q 227 815 190 757 q 331 913 264 874 q 484 974 397 953 q 671 994 571 994 q 859 976 775 994 q 1008 925 943 957 q 1115 856 1072 893 l 1001 692 q 902 747 958 724 q 784 782 846 769 q 661 794 722 794 q 549 784 599 794 q 472 753 500 774 q 443 701 443 733 q 467 653 443 672 q 531 624 492 635 q 617 608 569 614 q 708 597 664 603 q 872 576 792 589 q 1017 534 953 563 q 1121 453 1082 506 q 1160 313 1160 401 q 1097 137 1160 210 q 926 25 1035 64 q 676 -14 817 -14 m 549 1039 l 497 1150 l 788 1310 l 864 1147 l 549 1039 z "},"Ṥ":{"ha":1317,"x_min":136,"x_max":1160,"o":"m 676 -14 q 460 8 558 -14 q 281 66 361 29 q 136 150 201 103 l 244 339 q 474 222 358 258 q 694 185 589 185 q 790 194 740 185 q 874 226 840 203 q 908 289 908 249 q 892 328 908 313 q 849 354 876 344 q 784 370 821 364 q 705 380 747 376 q 619 388 663 383 q 443 419 522 397 q 308 477 364 442 q 221 564 251 513 q 190 682 190 615 q 227 815 190 757 q 331 913 264 874 q 484 974 397 953 q 671 994 571 994 q 859 976 775 994 q 1008 925 943 957 q 1115 856 1072 893 l 1001 692 q 902 747 958 724 q 784 782 846 769 q 661 794 722 794 q 549 784 599 794 q 472 753 500 774 q 443 701 443 733 q 467 653 443 672 q 531 624 492 635 q 617 608 569 614 q 708 597 664 603 q 872 576 792 589 q 1017 534 953 563 q 1121 453 1082 506 q 1160 313 1160 401 q 1097 137 1160 210 q 926 25 1035 64 q 676 -14 817 -14 m 799 1044 l 706 1106 l 836 1335 l 976 1233 l 799 1044 m 547 1047 q 457 1076 489 1047 q 425 1154 425 1104 q 458 1231 425 1201 q 547 1260 490 1260 q 637 1233 604 1260 q 669 1154 669 1206 q 636 1077 669 1107 q 547 1047 603 1047 z "},"Š":{"ha":1317,"x_min":136,"x_max":1160,"o":"m 676 -14 q 460 8 558 -14 q 281 66 361 29 q 136 150 201 103 l 244 339 q 474 222 358 258 q 694 185 589 185 q 790 194 740 185 q 874 226 840 203 q 908 289 908 249 q 892 328 908 313 q 849 354 876 344 q 784 370 821 364 q 705 380 747 376 q 619 388 663 383 q 443 419 522 397 q 308 477 364 442 q 221 564 251 513 q 190 682 190 615 q 227 815 190 757 q 331 913 264 874 q 484 974 397 953 q 671 994 571 994 q 859 976 775 994 q 1008 925 943 957 q 1115 856 1072 893 l 1001 692 q 902 747 958 724 q 784 782 846 769 q 661 794 722 794 q 549 784 599 794 q 472 753 500 774 q 443 701 443 733 q 467 653 443 672 q 531 624 492 635 q 617 608 569 614 q 708 597 664 603 q 872 576 792 589 q 1017 534 953 563 q 1121 453 1082 506 q 1160 313 1160 401 q 1097 137 1160 210 q 926 25 1035 64 q 676 -14 817 -14 m 611 1049 l 425 1197 l 494 1275 l 699 1178 l 657 1178 l 861 1275 l 931 1197 l 744 1049 l 611 1049 z "},"Ṧ":{"ha":1317,"x_min":136,"x_max":1160,"o":"m 676 -14 q 460 8 558 -14 q 281 66 361 29 q 136 150 201 103 l 244 339 q 474 222 358 258 q 694 185 589 185 q 790 194 740 185 q 874 226 840 203 q 908 289 908 249 q 892 328 908 313 q 849 354 876 344 q 784 370 821 364 q 705 380 747 376 q 619 388 663 383 q 443 419 522 397 q 308 477 364 442 q 221 564 251 513 q 190 682 190 615 q 227 815 190 757 q 331 913 264 874 q 484 974 397 953 q 671 994 571 994 q 859 976 775 994 q 1008 925 943 957 q 1115 856 1072 893 l 1001 692 q 902 747 958 724 q 784 782 846 769 q 661 794 722 794 q 549 784 599 794 q 472 753 500 774 q 443 701 443 733 q 467 653 443 672 q 531 624 492 635 q 617 608 569 614 q 708 597 664 603 q 872 576 792 589 q 1017 534 953 563 q 1121 453 1082 506 q 1160 313 1160 401 q 1097 137 1160 210 q 926 25 1035 64 q 676 -14 817 -14 m 611 1049 l 425 1197 l 494 1275 l 699 1178 l 657 1178 l 861 1275 l 931 1197 l 744 1049 l 611 1049 m 678 1314 q 580 1344 614 1314 q 546 1429 546 1375 q 581 1511 546 1478 q 678 1544 615 1544 q 776 1514 742 1544 q 810 1429 810 1483 q 775 1347 810 1381 q 678 1314 740 1314 z "},"Ş":{"ha":1317,"x_min":136,"x_max":1160,"o":"m 676 -14 q 460 8 558 -14 q 281 66 361 29 q 136 150 201 103 l 244 339 q 474 222 358 258 q 694 185 589 185 q 790 194 740 185 q 874 226 840 203 q 908 289 908 249 q 892 328 908 313 q 849 354 876 344 q 784 370 821 364 q 705 380 747 376 q 619 388 663 383 q 443 419 522 397 q 308 477 364 442 q 221 564 251 513 q 190 682 190 615 q 227 815 190 757 q 331 913 264 874 q 484 974 397 953 q 671 994 571 994 q 859 976 775 994 q 1008 925 943 957 q 1115 856 1072 893 l 1001 692 q 902 747 958 724 q 784 782 846 769 q 661 794 722 794 q 549 784 599 794 q 472 753 500 774 q 443 701 443 733 q 467 653 443 672 q 531 624 492 635 q 617 608 569 614 q 708 597 664 603 q 872 576 792 589 q 1017 534 953 563 q 1121 453 1082 506 q 1160 313 1160 401 q 1097 137 1160 210 q 926 25 1035 64 q 676 -14 817 -14 m 582 -342 l 568 -240 q 633 -235 600 -240 q 687 -217 665 -229 q 708 -186 708 -204 q 692 -157 708 -168 q 652 -141 676 -146 q 604 -136 628 -136 l 582 -111 l 676 33 l 790 33 l 726 -60 q 831 -103 793 -68 q 869 -193 869 -137 q 842 -265 869 -236 q 772 -312 815 -294 q 678 -336 729 -329 q 582 -342 628 -343 z "},"Ŝ":{"ha":1317,"x_min":136,"x_max":1160,"o":"m 676 -14 q 460 8 558 -14 q 281 66 361 29 q 136 150 201 103 l 244 339 q 474 222 358 258 q 694 185 589 185 q 790 194 740 185 q 874 226 840 203 q 908 289 908 249 q 892 328 908 313 q 849 354 876 344 q 784 370 821 364 q 705 380 747 376 q 619 388 663 383 q 443 419 522 397 q 308 477 364 442 q 221 564 251 513 q 190 682 190 615 q 227 815 190 757 q 331 913 264 874 q 484 974 397 953 q 671 994 571 994 q 859 976 775 994 q 1008 925 943 957 q 1115 856 1072 893 l 1001 692 q 902 747 958 724 q 784 782 846 769 q 661 794 722 794 q 549 784 599 794 q 472 753 500 774 q 443 701 443 733 q 467 653 443 672 q 531 624 492 635 q 617 608 569 614 q 708 597 664 603 q 872 576 792 589 q 1017 534 953 563 q 1121 453 1082 506 q 1160 313 1160 401 q 1097 137 1160 210 q 926 25 1035 64 q 676 -14 817 -14 m 494 1047 l 426 1126 l 615 1274 l 740 1274 l 929 1126 l 861 1047 l 657 1146 l 699 1146 l 494 1047 z "},"Ș":{"ha":1317,"x_min":136,"x_max":1160,"o":"m 676 -14 q 460 8 558 -14 q 281 66 361 29 q 136 150 201 103 l 244 339 q 474 222 358 258 q 694 185 589 185 q 790 194 740 185 q 874 226 840 203 q 908 289 908 249 q 892 328 908 313 q 849 354 876 344 q 784 370 821 364 q 705 380 747 376 q 619 388 663 383 q 443 419 522 397 q 308 477 364 442 q 221 564 251 513 q 190 682 190 615 q 227 815 190 757 q 331 913 264 874 q 484 974 397 953 q 671 994 571 994 q 859 976 775 994 q 1008 925 943 957 q 1115 856 1072 893 l 1001 692 q 902 747 958 724 q 784 782 846 769 q 661 794 722 794 q 549 784 599 794 q 472 753 500 774 q 443 701 443 733 q 467 653 443 672 q 531 624 492 635 q 617 608 569 614 q 708 597 664 603 q 872 576 792 589 q 1017 534 953 563 q 1121 453 1082 506 q 1160 313 1160 401 q 1097 137 1160 210 q 926 25 1035 64 q 676 -14 817 -14 m 643 -408 l 588 -332 q 630 -315 607 -326 q 670 -285 653 -303 q 688 -251 688 -268 q 678 -233 688 -239 q 654 -219 668 -226 q 615 -193 629 -208 q 600 -146 600 -178 q 633 -78 600 -100 q 713 -56 665 -56 q 809 -88 767 -56 q 851 -190 851 -121 q 834 -270 851 -235 q 786 -333 817 -306 q 719 -378 756 -360 q 643 -408 682 -396 z "},"Ṡ":{"ha":1317,"x_min":136,"x_max":1160,"o":"m 676 -14 q 460 8 558 -14 q 281 66 361 29 q 136 150 201 103 l 244 339 q 474 222 358 258 q 694 185 589 185 q 790 194 740 185 q 874 226 840 203 q 908 289 908 249 q 892 328 908 313 q 849 354 876 344 q 784 370 821 364 q 705 380 747 376 q 619 388 663 383 q 443 419 522 397 q 308 477 364 442 q 221 564 251 513 q 190 682 190 615 q 227 815 190 757 q 331 913 264 874 q 484 974 397 953 q 671 994 571 994 q 859 976 775 994 q 1008 925 943 957 q 1115 856 1072 893 l 1001 692 q 902 747 958 724 q 784 782 846 769 q 661 794 722 794 q 549 784 599 794 q 472 753 500 774 q 443 701 443 733 q 467 653 443 672 q 531 624 492 635 q 617 608 569 614 q 708 597 664 603 q 872 576 792 589 q 1017 534 953 563 q 1121 453 1082 506 q 1160 313 1160 401 q 1097 137 1160 210 q 926 25 1035 64 q 676 -14 817 -14 m 678 1050 q 580 1081 614 1050 q 546 1165 546 1111 q 581 1247 546 1214 q 678 1281 615 1281 q 776 1250 742 1281 q 810 1165 810 1219 q 775 1083 810 1117 q 678 1050 740 1050 z "},"Ṣ":{"ha":1317,"x_min":136,"x_max":1160,"o":"m 676 -14 q 460 8 558 -14 q 281 66 361 29 q 136 150 201 103 l 244 339 q 474 222 358 258 q 694 185 589 185 q 790 194 740 185 q 874 226 840 203 q 908 289 908 249 q 892 328 908 313 q 849 354 876 344 q 784 370 821 364 q 705 380 747 376 q 619 388 663 383 q 443 419 522 397 q 308 477 364 442 q 221 564 251 513 q 190 682 190 615 q 227 815 190 757 q 331 913 264 874 q 484 974 397 953 q 671 994 571 994 q 859 976 775 994 q 1008 925 943 957 q 1115 856 1072 893 l 1001 692 q 902 747 958 724 q 784 782 846 769 q 661 794 722 794 q 549 784 599 794 q 472 753 500 774 q 443 701 443 733 q 467 653 443 672 q 531 624 492 635 q 617 608 569 614 q 708 597 664 603 q 872 576 792 589 q 1017 534 953 563 q 1121 453 1082 506 q 1160 313 1160 401 q 1097 137 1160 210 q 926 25 1035 64 q 676 -14 817 -14 m 719 -311 q 619 -280 654 -311 q 583 -193 583 -249 q 619 -109 583 -143 q 719 -75 656 -75 q 820 -106 785 -75 q 856 -193 856 -137 q 819 -277 856 -243 q 719 -311 783 -311 z "},"Ṩ":{"ha":1317,"x_min":136,"x_max":1160,"o":"m 676 -14 q 460 8 558 -14 q 281 66 361 29 q 136 150 201 103 l 244 339 q 474 222 358 258 q 694 185 589 185 q 790 194 740 185 q 874 226 840 203 q 908 289 908 249 q 892 328 908 313 q 849 354 876 344 q 784 370 821 364 q 705 380 747 376 q 619 388 663 383 q 443 419 522 397 q 308 477 364 442 q 221 564 251 513 q 190 682 190 615 q 227 815 190 757 q 331 913 264 874 q 484 974 397 953 q 671 994 571 994 q 859 976 775 994 q 1008 925 943 957 q 1115 856 1072 893 l 1001 692 q 902 747 958 724 q 784 782 846 769 q 661 794 722 794 q 549 784 599 794 q 472 753 500 774 q 443 701 443 733 q 467 653 443 672 q 531 624 492 635 q 617 608 569 614 q 708 597 664 603 q 872 576 792 589 q 1017 534 953 563 q 1121 453 1082 506 q 1160 313 1160 401 q 1097 137 1160 210 q 926 25 1035 64 q 676 -14 817 -14 m 719 -311 q 619 -280 654 -311 q 583 -193 583 -249 q 619 -109 583 -143 q 719 -75 656 -75 q 820 -106 785 -75 q 856 -193 856 -137 q 819 -277 856 -243 q 719 -311 783 -311 m 678 1050 q 580 1081 614 1050 q 546 1165 546 1111 q 581 1247 546 1214 q 678 1281 615 1281 q 776 1250 742 1281 q 810 1165 810 1219 q 775 1083 810 1117 q 678 1050 740 1050 z "},"ẞ":{"ha":1581,"x_min":239,"x_max":1424,"o":"m 1053 -14 q 903 3 972 -14 q 776 49 835 19 q 663 115 717 78 l 789 267 q 902 205 846 233 q 1038 176 958 176 q 1135 199 1094 176 q 1176 263 1176 221 q 1150 316 1176 293 q 1078 358 1124 339 q 972 393 1032 376 q 860 443 913 411 q 776 521 808 475 q 744 628 744 567 q 780 735 744 689 q 872 813 815 782 q 996 856 929 843 q 1126 860 1063 868 l 1132 804 q 1035 825 1100 813 q 890 838 971 838 q 736 811 810 838 q 604 729 663 785 q 511 584 546 674 q 476 365 476 494 l 475 -1 l 239 -1 l 239 357 q 319 721 240 576 q 545 937 399 865 q 892 1008 692 1008 q 1091 996 999 1008 q 1289 953 1183 983 l 1299 782 q 1135 765 1207 776 q 1021 727 1063 753 q 979 656 979 701 q 1005 597 979 621 q 1074 555 1031 574 q 1175 515 1118 536 q 1301 463 1246 490 q 1390 390 1357 435 q 1424 268 1424 344 q 1377 126 1424 190 q 1248 24 1331 61 q 1053 -14 1165 -14 z "},"Ə":{"ha":1331,"x_min":171,"x_max":1158,"o":"m 667 -14 q 488 18 575 -14 q 331 109 401 50 q 218 251 261 168 q 171 435 175 333 l 171 574 l 1057 574 l 1069 383 l 429 383 q 465 312 442 344 q 521 255 489 279 q 590 217 553 231 q 667 203 626 203 q 760 221 715 203 q 839 275 804 239 q 893 365 874 311 q 913 488 913 418 q 891 613 913 560 q 833 700 869 665 q 748 752 796 735 q 647 769 700 769 q 545 760 593 769 q 453 728 497 751 q 363 665 410 706 l 260 829 q 386 921 325 886 q 514 971 447 956 q 663 986 581 986 q 853 947 764 986 q 1012 840 943 908 q 1119 681 1081 771 q 1158 486 1158 590 q 1120 292 1158 382 q 1014 133 1082 201 q 857 25 946 64 q 667 -14 768 -14 z "},"T":{"ha":1285,"x_min":135,"x_max":1150,"o":"m 521 0 l 521 764 l 135 764 l 135 972 l 1150 972 l 1150 764 l 757 764 l 757 0 l 521 0 z "},"Ŧ":{"ha":1285,"x_min":135,"x_max":1150,"o":"m 325 407 l 325 567 l 971 567 l 971 407 l 325 407 m 521 0 l 521 764 l 135 764 l 135 972 l 1150 972 l 1150 764 l 757 764 l 757 0 l 521 0 z "},"Ť":{"ha":1285,"x_min":135,"x_max":1150,"o":"m 521 0 l 521 764 l 135 764 l 135 972 l 1150 972 l 1150 764 l 757 764 l 757 0 l 521 0 m 576 1049 l 390 1197 l 460 1275 l 664 1178 l 622 1178 l 826 1275 l 896 1197 l 710 1049 l 576 1049 z "},"Ţ":{"ha":1285,"x_min":135,"x_max":1150,"o":"m 521 0 l 521 764 l 135 764 l 135 972 l 1150 972 l 1150 764 l 757 764 l 757 0 l 521 0 m 506 -342 l 492 -240 q 556 -235 524 -240 q 610 -217 589 -229 q 632 -186 632 -204 q 616 -157 632 -168 q 576 -141 600 -146 q 528 -136 551 -136 l 506 -111 l 600 33 l 714 33 l 650 -60 q 755 -103 717 -68 q 793 -193 793 -137 q 766 -265 793 -236 q 696 -312 739 -294 q 602 -336 653 -329 q 506 -342 551 -343 z "},"Ț":{"ha":1285,"x_min":135,"x_max":1150,"o":"m 521 0 l 521 764 l 135 764 l 135 972 l 1150 972 l 1150 764 l 757 764 l 757 0 l 521 0 m 567 -408 l 511 -332 q 553 -315 531 -326 q 594 -285 576 -303 q 611 -251 611 -268 q 601 -233 611 -239 q 578 -219 592 -226 q 538 -193 553 -208 q 524 -146 524 -178 q 556 -78 524 -100 q 636 -56 589 -56 q 733 -88 690 -56 q 775 -190 775 -121 q 758 -270 775 -235 q 710 -333 740 -306 q 642 -378 679 -360 q 567 -408 606 -396 z "},"Ṭ":{"ha":1285,"x_min":135,"x_max":1150,"o":"m 521 0 l 521 764 l 135 764 l 135 972 l 1150 972 l 1150 764 l 757 764 l 757 0 l 521 0 m 643 -311 q 542 -280 578 -311 q 507 -193 507 -249 q 543 -109 507 -143 q 643 -75 579 -75 q 744 -106 708 -75 q 779 -193 779 -137 q 743 -277 779 -243 q 643 -311 707 -311 z "},"Ṯ":{"ha":1285,"x_min":135,"x_max":1150,"o":"m 521 0 l 521 764 l 135 764 l 135 972 l 1150 972 l 1150 764 l 757 764 l 757 0 l 521 0 m 429 -275 l 429 -111 l 854 -111 l 854 -275 l 429 -275 z "},"U":{"ha":1485,"x_min":229,"x_max":1256,"o":"m 743 -8 q 472 53 588 -8 q 293 221 357 114 q 229 465 229 328 l 229 972 l 468 972 l 468 471 q 503 331 468 392 q 601 235 539 269 q 743 201 664 201 q 888 235 825 201 q 988 331 951 269 q 1025 471 1025 392 l 1025 972 l 1256 972 l 1256 465 q 1192 221 1256 328 q 1013 53 1128 114 q 743 -8 897 -8 z "},"Ú":{"ha":1485,"x_min":229,"x_max":1256,"o":"m 743 -8 q 472 53 588 -8 q 293 221 357 114 q 229 465 229 328 l 229 972 l 468 972 l 468 471 q 503 331 468 392 q 601 235 539 269 q 743 201 664 201 q 888 235 825 201 q 988 331 951 269 q 1025 471 1025 392 l 1025 972 l 1256 972 l 1256 465 q 1192 221 1256 328 q 1013 53 1128 114 q 743 -8 897 -8 m 614 1039 l 563 1150 l 853 1310 l 929 1147 l 614 1039 z "},"Ŭ":{"ha":1485,"x_min":229,"x_max":1256,"o":"m 743 -8 q 472 53 588 -8 q 293 221 357 114 q 229 465 229 328 l 229 972 l 468 972 l 468 471 q 503 331 468 392 q 601 235 539 269 q 743 201 664 201 q 888 235 825 201 q 988 331 951 269 q 1025 471 1025 392 l 1025 972 l 1256 972 l 1256 465 q 1192 221 1256 328 q 1013 53 1128 114 q 743 -8 897 -8 m 743 1051 q 629 1078 681 1051 q 542 1152 578 1104 q 494 1263 507 1200 l 636 1279 q 679 1219 650 1243 q 743 1196 708 1196 q 807 1219 778 1196 q 850 1279 836 1243 l 992 1263 q 944 1152 979 1200 q 858 1078 908 1104 q 743 1051 807 1051 z "},"Ǔ":{"ha":1485,"x_min":229,"x_max":1256,"o":"m 743 -8 q 472 53 588 -8 q 293 221 357 114 q 229 465 229 328 l 229 972 l 468 972 l 468 471 q 503 331 468 392 q 601 235 539 269 q 743 201 664 201 q 888 235 825 201 q 988 331 951 269 q 1025 471 1025 392 l 1025 972 l 1256 972 l 1256 465 q 1192 221 1256 328 q 1013 53 1128 114 q 743 -8 897 -8 m 676 1049 l 490 1197 l 560 1275 l 764 1178 l 722 1178 l 926 1275 l 996 1197 l 810 1049 l 676 1049 z "},"Û":{"ha":1485,"x_min":229,"x_max":1256,"o":"m 743 -8 q 472 53 588 -8 q 293 221 357 114 q 229 465 229 328 l 229 972 l 468 972 l 468 471 q 503 331 468 392 q 601 235 539 269 q 743 201 664 201 q 888 235 825 201 q 988 331 951 269 q 1025 471 1025 392 l 1025 972 l 1256 972 l 1256 465 q 1192 221 1256 328 q 1013 53 1128 114 q 743 -8 897 -8 m 558 1047 l 490 1126 l 679 1274 l 804 1274 l 993 1126 l 925 1047 l 721 1146 l 763 1146 l 558 1047 z "},"Ȕ":{"ha":1485,"x_min":229,"x_max":1256,"o":"m 743 -8 q 472 53 588 -8 q 293 221 357 114 q 229 465 229 328 l 229 972 l 468 972 l 468 471 q 503 331 468 392 q 601 235 539 269 q 743 201 664 201 q 888 235 825 201 q 988 331 951 269 q 1025 471 1025 392 l 1025 972 l 1256 972 l 1256 465 q 1192 221 1256 328 q 1013 53 1128 114 q 743 -8 897 -8 m 906 1032 l 669 1203 l 785 1333 l 982 1122 l 906 1032 m 597 1028 l 351 1194 l 465 1331 l 672 1122 l 597 1028 z "},"Ü":{"ha":1485,"x_min":229,"x_max":1256,"o":"m 743 -8 q 472 53 588 -8 q 293 221 357 114 q 229 465 229 328 l 229 972 l 468 972 l 468 471 q 503 331 468 392 q 601 235 539 269 q 743 201 664 201 q 888 235 825 201 q 988 331 951 269 q 1025 471 1025 392 l 1025 972 l 1256 972 l 1256 465 q 1192 221 1256 328 q 1013 53 1128 114 q 743 -8 897 -8 m 911 1047 q 821 1078 851 1047 q 790 1165 790 1110 q 822 1249 790 1215 q 911 1283 854 1283 q 1001 1252 969 1283 q 1032 1165 1032 1221 q 1000 1081 1032 1115 q 911 1047 968 1047 m 574 1047 q 483 1078 514 1047 q 453 1165 453 1110 q 484 1249 453 1215 q 574 1283 515 1283 q 663 1252 632 1283 q 693 1165 693 1221 q 662 1081 693 1115 q 574 1047 631 1047 z "},"Ụ":{"ha":1485,"x_min":229,"x_max":1256,"o":"m 743 -8 q 472 53 588 -8 q 293 221 357 114 q 229 465 229 328 l 229 972 l 468 972 l 468 471 q 503 331 468 392 q 601 235 539 269 q 743 201 664 201 q 888 235 825 201 q 988 331 951 269 q 1025 471 1025 392 l 1025 972 l 1256 972 l 1256 465 q 1192 221 1256 328 q 1013 53 1128 114 q 743 -8 897 -8 m 743 -311 q 642 -280 678 -311 q 607 -193 607 -249 q 643 -109 607 -143 q 743 -75 679 -75 q 844 -106 808 -75 q 879 -193 879 -137 q 843 -277 879 -243 q 743 -311 807 -311 z "},"Ù":{"ha":1485,"x_min":229,"x_max":1256,"o":"m 743 -8 q 472 53 588 -8 q 293 221 357 114 q 229 465 229 328 l 229 972 l 468 972 l 468 471 q 503 331 468 392 q 601 235 539 269 q 743 201 664 201 q 888 235 825 201 q 988 331 951 269 q 1025 471 1025 392 l 1025 972 l 1256 972 l 1256 465 q 1192 221 1256 328 q 1013 53 1128 114 q 743 -8 897 -8 m 885 1039 l 569 1147 l 646 1310 l 936 1150 l 885 1039 z "},"Ủ":{"ha":1485,"x_min":229,"x_max":1256,"o":"m 743 -8 q 472 53 588 -8 q 293 221 357 114 q 229 465 229 328 l 229 972 l 468 972 l 468 471 q 503 331 468 392 q 601 235 539 269 q 743 201 664 201 q 888 235 825 201 q 988 331 951 269 q 1025 471 1025 392 l 1025 972 l 1256 972 l 1256 465 q 1192 221 1256 328 q 1013 53 1128 114 q 743 -8 897 -8 m 707 1036 q 689 1064 697 1049 q 681 1096 681 1079 q 690 1128 681 1113 q 724 1163 699 1144 q 754 1185 743 1175 q 765 1208 765 1194 q 753 1227 765 1221 q 724 1233 742 1233 q 665 1225 696 1233 q 604 1203 635 1217 l 572 1321 q 648 1349 603 1338 q 740 1361 693 1361 q 866 1327 819 1361 q 913 1236 913 1293 q 893 1167 913 1190 q 851 1129 874 1143 q 815 1103 829 1115 q 800 1076 800 1090 q 801 1067 800 1071 q 804 1057 803 1063 l 707 1036 z "},"Ư":{"ha":1485,"x_min":229,"x_max":1403,"o":"m 743 -8 q 472 53 588 -8 q 293 221 357 114 q 229 465 229 328 l 229 972 l 468 972 l 468 471 q 503 331 468 392 q 601 235 539 269 q 743 201 664 201 q 888 235 825 201 q 988 331 951 269 q 1025 471 1025 392 l 1025 972 l 1086 972 q 1197 1015 1167 972 q 1228 1146 1228 1058 l 1403 1146 q 1382 1020 1403 1079 q 1315 925 1361 961 q 1190 890 1268 889 l 1256 936 l 1256 465 q 1192 221 1256 328 q 1013 53 1128 114 q 743 -8 897 -8 z "},"Ứ":{"ha":1485,"x_min":229,"x_max":1403,"o":"m 743 -8 q 472 53 588 -8 q 293 221 357 114 q 229 465 229 328 l 229 972 l 468 972 l 468 471 q 503 331 468 392 q 601 235 539 269 q 743 201 664 201 q 888 235 825 201 q 988 331 951 269 q 1025 471 1025 392 l 1025 972 l 1086 972 q 1197 1015 1167 972 q 1228 1146 1228 1058 l 1403 1146 q 1382 1020 1403 1079 q 1315 925 1361 961 q 1190 890 1268 889 l 1256 936 l 1256 465 q 1192 221 1256 328 q 1013 53 1128 114 q 743 -8 897 -8 m 614 1039 l 563 1150 l 853 1310 l 929 1147 l 614 1039 z "},"Ự":{"ha":1485,"x_min":229,"x_max":1403,"o":"m 743 -8 q 472 53 588 -8 q 293 221 357 114 q 229 465 229 328 l 229 972 l 468 972 l 468 471 q 503 331 468 392 q 601 235 539 269 q 743 201 664 201 q 888 235 825 201 q 988 331 951 269 q 1025 471 1025 392 l 1025 972 l 1086 972 q 1197 1015 1167 972 q 1228 1146 1228 1058 l 1403 1146 q 1382 1020 1403 1079 q 1315 925 1361 961 q 1190 890 1268 889 l 1256 936 l 1256 465 q 1192 221 1256 328 q 1013 53 1128 114 q 743 -8 897 -8 m 743 -311 q 642 -280 678 -311 q 607 -193 607 -249 q 643 -109 607 -143 q 743 -75 679 -75 q 844 -106 808 -75 q 879 -193 879 -137 q 843 -277 879 -243 q 743 -311 807 -311 z "},"Ừ":{"ha":1485,"x_min":229,"x_max":1403,"o":"m 743 -8 q 472 53 588 -8 q 293 221 357 114 q 229 465 229 328 l 229 972 l 468 972 l 468 471 q 503 331 468 392 q 601 235 539 269 q 743 201 664 201 q 888 235 825 201 q 988 331 951 269 q 1025 471 1025 392 l 1025 972 l 1086 972 q 1197 1015 1167 972 q 1228 1146 1228 1058 l 1403 1146 q 1382 1020 1403 1079 q 1315 925 1361 961 q 1190 890 1268 889 l 1256 936 l 1256 465 q 1192 221 1256 328 q 1013 53 1128 114 q 743 -8 897 -8 m 885 1039 l 569 1147 l 646 1310 l 936 1150 l 885 1039 z "},"Ử":{"ha":1485,"x_min":229,"x_max":1403,"o":"m 743 -8 q 472 53 588 -8 q 293 221 357 114 q 229 465 229 328 l 229 972 l 468 972 l 468 471 q 503 331 468 392 q 601 235 539 269 q 743 201 664 201 q 888 235 825 201 q 988 331 951 269 q 1025 471 1025 392 l 1025 972 l 1086 972 q 1197 1015 1167 972 q 1228 1146 1228 1058 l 1403 1146 q 1382 1020 1403 1079 q 1315 925 1361 961 q 1190 890 1268 889 l 1256 936 l 1256 465 q 1192 221 1256 328 q 1013 53 1128 114 q 743 -8 897 -8 m 707 1036 q 689 1064 697 1049 q 681 1096 681 1079 q 690 1128 681 1113 q 724 1163 699 1144 q 754 1185 743 1175 q 765 1208 765 1194 q 753 1227 765 1221 q 724 1233 742 1233 q 665 1225 696 1233 q 604 1203 635 1217 l 572 1321 q 648 1349 603 1338 q 740 1361 693 1361 q 866 1327 819 1361 q 913 1236 913 1293 q 893 1167 913 1190 q 851 1129 874 1143 q 815 1103 829 1115 q 800 1076 800 1090 q 801 1067 800 1071 q 804 1057 803 1063 l 707 1036 z "},"Ữ":{"ha":1485,"x_min":229,"x_max":1403,"o":"m 743 -8 q 472 53 588 -8 q 293 221 357 114 q 229 465 229 328 l 229 972 l 468 972 l 468 471 q 503 331 468 392 q 601 235 539 269 q 743 201 664 201 q 888 235 825 201 q 988 331 951 269 q 1025 471 1025 392 l 1025 972 l 1086 972 q 1197 1015 1167 972 q 1228 1146 1228 1058 l 1403 1146 q 1382 1020 1403 1079 q 1315 925 1361 961 q 1190 890 1268 889 l 1256 936 l 1256 465 q 1192 221 1256 328 q 1013 53 1128 114 q 743 -8 897 -8 m 850 1067 q 794 1075 822 1067 q 733 1097 767 1083 q 691 1115 708 1110 q 660 1121 674 1121 q 628 1107 640 1121 q 617 1068 617 1093 l 478 1068 q 528 1212 478 1160 q 656 1264 579 1264 q 705 1257 681 1264 q 767 1233 729 1250 q 804 1217 789 1222 q 832 1211 819 1211 q 860 1226 850 1211 q 869 1264 871 1240 l 1007 1264 q 987 1165 1007 1211 q 932 1093 967 1119 q 850 1067 897 1067 z "},"Ű":{"ha":1485,"x_min":229,"x_max":1256,"o":"m 743 -8 q 472 53 588 -8 q 293 221 357 114 q 229 465 229 328 l 229 972 l 468 972 l 468 471 q 503 331 468 392 q 601 235 539 269 q 743 201 664 201 q 888 235 825 201 q 988 331 951 269 q 1025 471 1025 392 l 1025 972 l 1256 972 l 1256 465 q 1192 221 1256 328 q 1013 53 1128 114 q 743 -8 897 -8 m 574 1046 l 501 1143 l 711 1342 l 818 1206 l 574 1046 m 882 1043 l 813 1143 l 1031 1339 l 1138 1197 l 882 1043 z "},"Ȗ":{"ha":1485,"x_min":229,"x_max":1256,"o":"m 743 -8 q 472 53 588 -8 q 293 221 357 114 q 229 465 229 328 l 229 972 l 468 972 l 468 471 q 503 331 468 392 q 601 235 539 269 q 743 201 664 201 q 888 235 825 201 q 988 331 951 269 q 1025 471 1025 392 l 1025 972 l 1256 972 l 1256 465 q 1192 221 1256 328 q 1013 53 1128 114 q 743 -8 897 -8 m 636 1053 l 494 1069 q 542 1179 507 1132 q 629 1253 578 1226 q 743 1279 681 1279 q 858 1253 807 1279 q 944 1179 908 1226 q 992 1069 979 1132 l 850 1053 q 807 1111 836 1088 q 743 1135 778 1135 q 679 1111 708 1135 q 636 1053 650 1088 z "},"Ū":{"ha":1485,"x_min":229,"x_max":1256,"o":"m 743 -8 q 472 53 588 -8 q 293 221 357 114 q 229 465 229 328 l 229 972 l 468 972 l 468 471 q 503 331 468 392 q 601 235 539 269 q 743 201 664 201 q 888 235 825 201 q 988 331 951 269 q 1025 471 1025 392 l 1025 972 l 1256 972 l 1256 465 q 1192 221 1256 328 q 1013 53 1128 114 q 743 -8 897 -8 m 493 1096 l 493 1236 l 992 1236 l 992 1096 l 493 1096 z "},"Ṻ":{"ha":1485,"x_min":229,"x_max":1256,"o":"m 743 -8 q 472 53 588 -8 q 293 221 357 114 q 229 465 229 328 l 229 972 l 468 972 l 468 471 q 503 331 468 392 q 601 235 539 269 q 743 201 664 201 q 888 235 825 201 q 988 331 951 269 q 1025 471 1025 392 l 1025 972 l 1256 972 l 1256 465 q 1192 221 1256 328 q 1013 53 1128 114 q 743 -8 897 -8 m 493 1096 l 493 1236 l 992 1236 l 992 1096 l 493 1096 m 911 1311 q 821 1342 851 1311 q 790 1429 790 1374 q 822 1513 790 1479 q 911 1547 854 1547 q 1001 1516 969 1547 q 1032 1429 1032 1485 q 1000 1345 1032 1379 q 911 1311 968 1311 m 574 1311 q 483 1342 514 1311 q 453 1429 453 1374 q 484 1513 453 1479 q 574 1547 515 1547 q 663 1516 632 1547 q 693 1429 693 1485 q 662 1345 693 1379 q 574 1311 631 1311 z "},"Ų":{"ha":1485,"x_min":229,"x_max":1256,"o":"m 888 -293 q 769 -248 814 -293 q 725 -142 725 -203 q 756 -43 725 -87 q 834 36 788 1 q 927 97 881 71 q 1001 142 974 124 l 1026 64 q 997 46 1019 58 q 947 13 974 33 q 899 -36 919 -8 q 879 -99 879 -64 q 890 -136 879 -122 q 918 -150 901 -150 q 947 -140 936 -150 q 964 -117 958 -131 l 1061 -187 q 999 -259 1044 -225 q 888 -293 954 -293 m 743 -8 q 472 53 588 -8 q 293 221 357 114 q 229 465 229 328 l 229 972 l 468 972 l 468 471 q 503 331 468 392 q 601 235 539 269 q 743 201 664 201 q 888 235 825 201 q 988 331 951 269 q 1025 471 1025 392 l 1025 972 l 1256 972 l 1256 465 q 1192 221 1256 328 q 1013 53 1128 114 q 743 -8 897 -8 z "},"Ů":{"ha":1485,"x_min":229,"x_max":1256,"o":"m 743 -8 q 472 53 588 -8 q 293 221 357 114 q 229 465 229 328 l 229 972 l 468 972 l 468 471 q 503 331 468 392 q 601 235 539 269 q 743 201 664 201 q 888 235 825 201 q 988 331 951 269 q 1025 471 1025 392 l 1025 972 l 1256 972 l 1256 465 q 1192 221 1256 328 q 1013 53 1128 114 q 743 -8 897 -8 m 743 982 q 652 1006 694 982 q 584 1068 610 1029 q 558 1153 558 1107 q 584 1242 558 1201 q 651 1308 610 1283 q 743 1332 693 1332 q 833 1308 792 1332 q 901 1242 875 1283 q 926 1153 926 1201 q 901 1068 926 1107 q 833 1006 875 1029 q 743 982 792 982 m 743 1096 q 783 1113 767 1096 q 800 1153 800 1129 q 783 1194 800 1179 q 743 1210 765 1210 q 703 1194 719 1210 q 686 1153 686 1178 q 703 1113 686 1129 q 743 1096 719 1096 z "},"Ũ":{"ha":1485,"x_min":229,"x_max":1256,"o":"m 743 -8 q 472 53 588 -8 q 293 221 357 114 q 229 465 229 328 l 229 972 l 468 972 l 468 471 q 503 331 468 392 q 601 235 539 269 q 743 201 664 201 q 888 235 825 201 q 988 331 951 269 q 1025 471 1025 392 l 1025 972 l 1256 972 l 1256 465 q 1192 221 1256 328 q 1013 53 1128 114 q 743 -8 897 -8 m 850 1067 q 794 1075 822 1067 q 733 1097 767 1083 q 691 1115 708 1110 q 660 1121 674 1121 q 628 1107 640 1121 q 617 1068 617 1093 l 478 1068 q 528 1212 478 1160 q 656 1264 579 1264 q 705 1257 681 1264 q 767 1233 729 1250 q 804 1217 789 1222 q 832 1211 819 1211 q 860 1226 850 1211 q 869 1264 871 1240 l 1007 1264 q 987 1165 1007 1211 q 932 1093 967 1119 q 850 1067 897 1067 z "},"Ṹ":{"ha":1485,"x_min":229,"x_max":1256,"o":"m 743 -8 q 472 53 588 -8 q 293 221 357 114 q 229 465 229 328 l 229 972 l 468 972 l 468 471 q 503 331 468 392 q 601 235 539 269 q 743 201 664 201 q 888 235 825 201 q 988 331 951 269 q 1025 471 1025 392 l 1025 972 l 1256 972 l 1256 465 q 1192 221 1256 328 q 1013 53 1128 114 q 743 -8 897 -8 m 850 1067 q 794 1075 822 1067 q 733 1097 767 1083 q 691 1115 708 1110 q 660 1121 674 1121 q 628 1107 640 1121 q 617 1068 617 1093 l 478 1068 q 528 1212 478 1160 q 656 1264 579 1264 q 705 1257 681 1264 q 767 1233 729 1250 q 804 1217 789 1222 q 832 1211 819 1211 q 860 1226 850 1211 q 869 1264 871 1240 l 1007 1264 q 987 1165 1007 1211 q 932 1093 967 1119 q 850 1067 897 1067 m 614 1303 l 563 1414 l 853 1574 l 929 1411 l 614 1303 z "},"V":{"ha":1318,"x_min":100,"x_max":1218,"o":"m 549 0 l 100 972 l 344 972 l 560 488 q 585 433 568 468 q 622 354 603 399 q 660 262 642 310 q 692 168 679 214 l 640 168 q 682 281 658 224 q 729 390 706 338 q 769 485 753 443 l 975 972 l 1218 972 l 781 0 l 549 0 z "},"W":{"ha":1768,"x_min":100,"x_max":1667,"o":"m 440 0 l 100 972 l 346 972 l 510 499 q 531 432 519 471 q 555 351 543 393 q 576 270 567 308 q 589 206 585 232 l 538 206 q 558 291 544 243 q 590 393 571 339 q 629 497 608 447 l 778 846 l 976 846 l 1122 500 q 1163 395 1143 449 q 1197 294 1182 342 q 1215 211 1211 247 l 1168 207 q 1177 258 1171 229 q 1191 321 1183 288 q 1208 388 1199 354 q 1226 451 1217 421 q 1244 506 1236 482 l 1432 972 l 1667 972 l 1285 0 l 1104 0 l 849 606 l 889 603 l 640 0 l 440 0 z "},"Ẃ":{"ha":1768,"x_min":100,"x_max":1667,"o":"m 440 0 l 100 972 l 346 972 l 510 499 q 531 432 519 471 q 555 351 543 393 q 576 270 567 308 q 589 206 585 232 l 538 206 q 558 291 544 243 q 590 393 571 339 q 629 497 608 447 l 778 846 l 976 846 l 1122 500 q 1163 395 1143 449 q 1197 294 1182 342 q 1215 211 1211 247 l 1168 207 q 1177 258 1171 229 q 1191 321 1183 288 q 1208 388 1199 354 q 1226 451 1217 421 q 1244 506 1236 482 l 1432 972 l 1667 972 l 1285 0 l 1104 0 l 849 606 l 889 603 l 640 0 l 440 0 m 754 1039 l 703 1150 l 993 1310 l 1069 1147 l 754 1039 z "},"Ŵ":{"ha":1768,"x_min":100,"x_max":1667,"o":"m 440 0 l 100 972 l 346 972 l 510 499 q 531 432 519 471 q 555 351 543 393 q 576 270 567 308 q 589 206 585 232 l 538 206 q 558 291 544 243 q 590 393 571 339 q 629 497 608 447 l 778 846 l 976 846 l 1122 500 q 1163 395 1143 449 q 1197 294 1182 342 q 1215 211 1211 247 l 1168 207 q 1177 258 1171 229 q 1191 321 1183 288 q 1208 388 1199 354 q 1226 451 1217 421 q 1244 506 1236 482 l 1432 972 l 1667 972 l 1285 0 l 1104 0 l 849 606 l 889 603 l 640 0 l 440 0 m 700 1047 l 632 1126 l 821 1274 l 946 1274 l 1135 1126 l 1067 1047 l 863 1146 l 904 1146 l 700 1047 z "},"Ẅ":{"ha":1768,"x_min":100,"x_max":1667,"o":"m 440 0 l 100 972 l 346 972 l 510 499 q 531 432 519 471 q 555 351 543 393 q 576 270 567 308 q 589 206 585 232 l 538 206 q 558 291 544 243 q 590 393 571 339 q 629 497 608 447 l 778 846 l 976 846 l 1122 500 q 1163 395 1143 449 q 1197 294 1182 342 q 1215 211 1211 247 l 1168 207 q 1177 258 1171 229 q 1191 321 1183 288 q 1208 388 1199 354 q 1226 451 1217 421 q 1244 506 1236 482 l 1432 972 l 1667 972 l 1285 0 l 1104 0 l 849 606 l 889 603 l 640 0 l 440 0 m 1053 1047 q 963 1078 993 1047 q 932 1165 932 1110 q 964 1249 932 1215 q 1053 1283 996 1283 q 1142 1252 1111 1283 q 1174 1165 1174 1221 q 1142 1081 1174 1115 q 1053 1047 1110 1047 m 715 1047 q 625 1078 656 1047 q 594 1165 594 1110 q 626 1249 594 1215 q 715 1283 657 1283 q 804 1252 774 1283 q 835 1165 835 1221 q 803 1081 835 1115 q 715 1047 772 1047 z "},"Ẁ":{"ha":1768,"x_min":100,"x_max":1667,"o":"m 440 0 l 100 972 l 346 972 l 510 499 q 531 432 519 471 q 555 351 543 393 q 576 270 567 308 q 589 206 585 232 l 538 206 q 558 291 544 243 q 590 393 571 339 q 629 497 608 447 l 778 846 l 976 846 l 1122 500 q 1163 395 1143 449 q 1197 294 1182 342 q 1215 211 1211 247 l 1168 207 q 1177 258 1171 229 q 1191 321 1183 288 q 1208 388 1199 354 q 1226 451 1217 421 q 1244 506 1236 482 l 1432 972 l 1667 972 l 1285 0 l 1104 0 l 849 606 l 889 603 l 640 0 l 440 0 m 1026 1039 l 711 1147 l 788 1310 l 1078 1150 l 1026 1039 z "},"X":{"ha":1364,"x_min":93,"x_max":1271,"o":"m 968 0 l 582 439 l 100 972 l 401 972 l 772 551 l 1271 0 l 968 0 m 93 0 l 556 529 l 738 419 l 386 0 l 93 0 m 806 451 l 626 557 l 961 972 l 1256 972 l 806 451 z "},"Y":{"ha":1374,"x_min":88,"x_max":1286,"o":"m 582 0 l 582 435 l 610 328 l 88 972 l 383 972 l 763 482 l 643 482 l 1013 972 l 1286 972 l 813 365 l 819 446 l 819 0 l 582 0 z "},"Ý":{"ha":1374,"x_min":88,"x_max":1286,"o":"m 582 0 l 582 435 l 610 328 l 88 972 l 383 972 l 763 482 l 643 482 l 1013 972 l 1286 972 l 813 365 l 819 446 l 819 0 l 582 0 m 557 1039 l 506 1150 l 796 1310 l 872 1147 l 557 1039 z "},"Ŷ":{"ha":1374,"x_min":88,"x_max":1286,"o":"m 582 0 l 582 435 l 610 328 l 88 972 l 383 972 l 763 482 l 643 482 l 1013 972 l 1286 972 l 813 365 l 819 446 l 819 0 l 582 0 m 503 1047 l 435 1126 l 624 1274 l 749 1274 l 938 1126 l 869 1047 l 665 1146 l 707 1146 l 503 1047 z "},"Ÿ":{"ha":1374,"x_min":88,"x_max":1286,"o":"m 582 0 l 582 435 l 610 328 l 88 972 l 383 972 l 763 482 l 643 482 l 1013 972 l 1286 972 l 813 365 l 819 446 l 819 0 l 582 0 m 856 1047 q 765 1078 796 1047 q 735 1165 735 1110 q 767 1249 735 1215 q 856 1283 799 1283 q 945 1252 914 1283 q 976 1165 976 1221 q 944 1081 976 1115 q 856 1047 913 1047 m 518 1047 q 428 1078 458 1047 q 397 1165 397 1110 q 428 1249 397 1215 q 518 1283 460 1283 q 607 1252 576 1283 q 638 1165 638 1221 q 606 1081 638 1115 q 518 1047 575 1047 z "},"Ẏ":{"ha":1374,"x_min":88,"x_max":1286,"o":"m 582 0 l 582 435 l 610 328 l 88 972 l 383 972 l 763 482 l 643 482 l 1013 972 l 1286 972 l 813 365 l 819 446 l 819 0 l 582 0 m 686 1050 q 588 1081 622 1050 q 554 1165 554 1111 q 589 1247 554 1214 q 686 1281 624 1281 q 784 1250 750 1281 q 818 1165 818 1219 q 783 1083 818 1117 q 686 1050 749 1050 z "},"Ỵ":{"ha":1374,"x_min":88,"x_max":1286,"o":"m 582 0 l 582 435 l 610 328 l 88 972 l 383 972 l 763 482 l 643 482 l 1013 972 l 1286 972 l 813 365 l 819 446 l 819 0 l 582 0 m 686 -311 q 585 -280 621 -311 q 550 -193 550 -249 q 586 -109 550 -143 q 686 -75 622 -75 q 787 -106 751 -75 q 822 -193 822 -137 q 786 -277 822 -243 q 686 -311 750 -311 z "},"Ỳ":{"ha":1374,"x_min":88,"x_max":1286,"o":"m 582 0 l 582 435 l 610 328 l 88 972 l 383 972 l 763 482 l 643 482 l 1013 972 l 1286 972 l 813 365 l 819 446 l 819 0 l 582 0 m 829 1039 l 514 1147 l 590 1310 l 881 1150 l 829 1039 z "},"Ỷ":{"ha":1374,"x_min":88,"x_max":1286,"o":"m 582 0 l 582 435 l 610 328 l 88 972 l 383 972 l 763 482 l 643 482 l 1013 972 l 1286 972 l 813 365 l 819 446 l 819 0 l 582 0 m 651 1036 q 633 1064 642 1049 q 625 1096 625 1079 q 634 1128 625 1113 q 668 1163 643 1144 q 699 1185 688 1175 q 710 1208 710 1194 q 698 1227 710 1221 q 668 1233 686 1233 q 610 1225 640 1233 q 549 1203 579 1217 l 517 1321 q 592 1349 547 1338 q 685 1361 638 1361 q 810 1327 764 1361 q 857 1236 857 1293 q 838 1167 857 1190 q 796 1129 818 1143 q 759 1103 774 1115 q 744 1076 744 1090 q 746 1067 744 1071 q 749 1057 747 1063 l 651 1036 z "},"Ȳ":{"ha":1374,"x_min":88,"x_max":1286,"o":"m 582 0 l 582 435 l 610 328 l 88 972 l 383 972 l 763 482 l 643 482 l 1013 972 l 1286 972 l 813 365 l 819 446 l 819 0 l 582 0 m 436 1096 l 436 1236 l 935 1236 l 935 1096 l 436 1096 z "},"Ỹ":{"ha":1374,"x_min":88,"x_max":1286,"o":"m 582 0 l 582 435 l 610 328 l 88 972 l 383 972 l 763 482 l 643 482 l 1013 972 l 1286 972 l 813 365 l 819 446 l 819 0 l 582 0 m 793 1067 q 738 1075 765 1067 q 676 1097 710 1083 q 634 1115 651 1110 q 603 1121 617 1121 q 572 1107 583 1121 q 560 1068 560 1093 l 421 1068 q 472 1212 421 1160 q 599 1264 522 1264 q 648 1257 624 1264 q 710 1233 672 1250 q 747 1217 732 1222 q 775 1211 763 1211 q 803 1226 793 1211 q 813 1264 814 1240 l 950 1264 q 930 1165 950 1211 q 875 1093 910 1119 q 793 1067 840 1067 z "},"Z":{"ha":1261,"x_min":139,"x_max":1118,"o":"m 139 0 l 139 157 l 822 851 l 938 753 l 175 753 l 175 972 l 1103 972 l 1103 817 l 419 121 l 306 210 l 1118 210 l 1118 0 l 139 0 z "},"Ź":{"ha":1261,"x_min":139,"x_max":1118,"o":"m 139 0 l 139 157 l 822 851 l 938 753 l 175 753 l 175 972 l 1103 972 l 1103 817 l 419 121 l 306 210 l 1118 210 l 1118 0 l 139 0 m 499 1039 l 447 1150 l 738 1310 l 814 1147 l 499 1039 z "},"Ž":{"ha":1261,"x_min":139,"x_max":1118,"o":"m 139 0 l 139 157 l 822 851 l 938 753 l 175 753 l 175 972 l 1103 972 l 1103 817 l 419 121 l 306 210 l 1118 210 l 1118 0 l 139 0 m 561 1049 l 375 1197 l 444 1275 l 649 1178 l 607 1178 l 811 1275 l 881 1197 l 694 1049 l 561 1049 z "},"Ż":{"ha":1261,"x_min":139,"x_max":1118,"o":"m 139 0 l 139 157 l 822 851 l 938 753 l 175 753 l 175 972 l 1103 972 l 1103 817 l 419 121 l 306 210 l 1118 210 l 1118 0 l 139 0 m 628 1050 q 530 1081 564 1050 q 496 1165 496 1111 q 531 1247 496 1214 q 628 1281 565 1281 q 726 1250 692 1281 q 760 1165 760 1219 q 725 1083 760 1117 q 628 1050 690 1050 z "},"Ẓ":{"ha":1261,"x_min":139,"x_max":1118,"o":"m 139 0 l 139 157 l 822 851 l 938 753 l 175 753 l 175 972 l 1103 972 l 1103 817 l 419 121 l 306 210 l 1118 210 l 1118 0 l 139 0 m 628 -311 q 527 -280 563 -311 q 492 -193 492 -249 q 528 -109 492 -143 q 628 -75 564 -75 q 728 -106 693 -75 q 764 -193 764 -137 q 728 -277 764 -243 q 628 -311 692 -311 z "},"a":{"ha":1403,"x_min":160,"x_max":1128,"o":"m 590 -12 q 360 36 457 -12 q 212 171 264 85 q 160 368 160 257 q 214 567 160 481 q 365 703 268 654 q 593 753 463 753 q 735 735 669 753 q 850 690 800 718 q 929 631 900 663 q 964 571 958 600 l 908 563 l 908 738 l 1128 738 l 1128 0 l 904 0 l 904 206 l 949 186 q 916 118 946 153 q 838 53 886 83 q 725 6 789 24 q 590 -12 661 -12 m 646 175 q 787 199 728 175 q 878 267 846 224 q 911 368 911 311 q 878 469 911 426 q 787 538 846 513 q 646 564 728 564 q 507 538 567 564 q 414 469 447 513 q 381 368 381 426 q 414 267 381 311 q 507 199 447 224 q 646 175 567 175 z "},"á":{"ha":1403,"x_min":160,"x_max":1128,"o":"m 590 -12 q 360 36 457 -12 q 212 171 264 85 q 160 368 160 257 q 214 567 160 481 q 365 703 268 654 q 593 753 463 753 q 735 735 669 753 q 850 690 800 718 q 929 631 900 663 q 964 571 958 600 l 908 563 l 908 738 l 1128 738 l 1128 0 l 904 0 l 904 206 l 949 186 q 916 118 946 153 q 838 53 886 83 q 725 6 789 24 q 590 -12 661 -12 m 646 175 q 787 199 728 175 q 878 267 846 224 q 911 368 911 311 q 878 469 911 426 q 787 538 846 513 q 646 564 728 564 q 507 538 567 564 q 414 469 447 513 q 381 368 381 426 q 414 267 381 311 q 507 199 447 224 q 646 175 567 175 m 565 818 l 500 919 l 749 1117 l 850 971 l 565 818 z "},"ă":{"ha":1403,"x_min":160,"x_max":1128,"o":"m 590 -12 q 360 36 457 -12 q 212 171 264 85 q 160 368 160 257 q 214 567 160 481 q 365 703 268 654 q 593 753 463 753 q 735 735 669 753 q 850 690 800 718 q 929 631 900 663 q 964 571 958 600 l 908 563 l 908 738 l 1128 738 l 1128 0 l 904 0 l 904 206 l 949 186 q 916 118 946 153 q 838 53 886 83 q 725 6 789 24 q 590 -12 661 -12 m 646 175 q 787 199 728 175 q 878 267 846 224 q 911 368 911 311 q 878 469 911 426 q 787 538 846 513 q 646 564 728 564 q 507 538 567 564 q 414 469 447 513 q 381 368 381 426 q 414 267 381 311 q 507 199 447 224 q 646 175 567 175 m 669 835 q 507 894 574 835 q 421 1057 440 954 l 563 1074 q 606 1005 578 1031 q 669 979 635 979 q 733 1005 704 979 q 776 1074 761 1031 l 918 1057 q 832 894 899 954 q 669 835 765 835 z "},"ắ":{"ha":1403,"x_min":160,"x_max":1128,"o":"m 590 -12 q 360 36 457 -12 q 212 171 264 85 q 160 368 160 257 q 214 567 160 481 q 365 703 268 654 q 593 753 463 753 q 735 735 669 753 q 850 690 800 718 q 929 631 900 663 q 964 571 958 600 l 908 563 l 908 738 l 1128 738 l 1128 0 l 904 0 l 904 206 l 949 186 q 916 118 946 153 q 838 53 886 83 q 725 6 789 24 q 590 -12 661 -12 m 646 175 q 787 199 728 175 q 878 267 846 224 q 911 368 911 311 q 878 469 911 426 q 787 538 846 513 q 646 564 728 564 q 507 538 567 564 q 414 469 447 513 q 381 368 381 426 q 414 267 381 311 q 507 199 447 224 q 646 175 567 175 m 669 825 q 507 878 574 825 q 421 1022 440 931 l 557 1039 q 604 979 574 997 q 669 961 635 961 q 735 979 704 961 q 782 1039 765 997 l 918 1022 q 832 878 899 931 q 669 825 765 825 m 682 1069 l 594 1132 l 725 1360 l 865 1260 l 682 1069 z "},"ặ":{"ha":1403,"x_min":160,"x_max":1128,"o":"m 590 -12 q 360 36 457 -12 q 212 171 264 85 q 160 368 160 257 q 214 567 160 481 q 365 703 268 654 q 593 753 463 753 q 735 735 669 753 q 850 690 800 718 q 929 631 900 663 q 964 571 958 600 l 908 563 l 908 738 l 1128 738 l 1128 0 l 904 0 l 904 206 l 949 186 q 916 118 946 153 q 838 53 886 83 q 725 6 789 24 q 590 -12 661 -12 m 646 175 q 787 199 728 175 q 878 267 846 224 q 911 368 911 311 q 878 469 911 426 q 787 538 846 513 q 646 564 728 564 q 507 538 567 564 q 414 469 447 513 q 381 368 381 426 q 414 267 381 311 q 507 199 447 224 q 646 175 567 175 m 669 -311 q 569 -280 604 -311 q 533 -193 533 -249 q 569 -109 533 -143 q 669 -75 606 -75 q 770 -106 735 -75 q 806 -193 806 -137 q 769 -277 806 -243 q 669 -311 733 -311 m 669 835 q 507 894 574 835 q 421 1057 440 954 l 563 1074 q 606 1005 578 1031 q 669 979 635 979 q 733 1005 704 979 q 776 1074 761 1031 l 918 1057 q 832 894 899 954 q 669 835 765 835 z "},"ằ":{"ha":1403,"x_min":160,"x_max":1128,"o":"m 590 -12 q 360 36 457 -12 q 212 171 264 85 q 160 368 160 257 q 214 567 160 481 q 365 703 268 654 q 593 753 463 753 q 735 735 669 753 q 850 690 800 718 q 929 631 900 663 q 964 571 958 600 l 908 563 l 908 738 l 1128 738 l 1128 0 l 904 0 l 904 206 l 949 186 q 916 118 946 153 q 838 53 886 83 q 725 6 789 24 q 590 -12 661 -12 m 646 175 q 787 199 728 175 q 878 267 846 224 q 911 368 911 311 q 878 469 911 426 q 787 538 846 513 q 646 564 728 564 q 507 538 567 564 q 414 469 447 513 q 381 368 381 426 q 414 267 381 311 q 507 199 447 224 q 646 175 567 175 m 669 825 q 507 878 574 825 q 421 1029 440 932 l 557 1046 q 604 981 574 1000 q 669 961 635 961 q 735 981 704 961 q 782 1046 765 1000 l 918 1029 q 833 879 899 933 q 669 825 767 825 m 669 1068 l 483 1260 l 622 1360 l 754 1132 l 669 1068 z "},"ẳ":{"ha":1403,"x_min":160,"x_max":1128,"o":"m 590 -12 q 360 36 457 -12 q 212 171 264 85 q 160 368 160 257 q 214 567 160 481 q 365 703 268 654 q 593 753 463 753 q 735 735 669 753 q 850 690 800 718 q 929 631 900 663 q 964 571 958 600 l 908 563 l 908 738 l 1128 738 l 1128 0 l 904 0 l 904 206 l 949 186 q 916 118 946 153 q 838 53 886 83 q 725 6 789 24 q 590 -12 661 -12 m 646 175 q 787 199 728 175 q 878 267 846 224 q 911 368 911 311 q 878 469 911 426 q 787 538 846 513 q 646 564 728 564 q 507 538 567 564 q 414 469 447 513 q 381 368 381 426 q 414 267 381 311 q 507 199 447 224 q 646 175 567 175 m 669 825 q 507 878 574 825 q 421 1029 440 932 l 557 1046 q 604 981 574 1000 q 669 961 635 961 q 735 981 704 961 q 782 1046 765 1000 l 918 1029 q 833 879 899 933 q 669 825 767 825 m 633 1067 q 615 1094 621 1079 q 608 1124 608 1108 q 615 1151 608 1138 q 644 1179 622 1164 q 671 1200 660 1190 q 682 1219 682 1210 q 669 1240 682 1233 q 636 1247 657 1247 q 580 1239 610 1247 q 521 1219 550 1231 l 492 1338 q 563 1365 519 1354 q 653 1375 606 1375 q 781 1340 733 1375 q 829 1247 829 1306 q 809 1181 829 1203 q 764 1146 789 1158 q 728 1124 742 1135 q 714 1099 714 1113 q 714 1092 714 1096 q 715 1086 714 1089 l 633 1067 z "},"ẵ":{"ha":1403,"x_min":160,"x_max":1128,"o":"m 590 -12 q 360 36 457 -12 q 212 171 264 85 q 160 368 160 257 q 214 567 160 481 q 365 703 268 654 q 593 753 463 753 q 735 735 669 753 q 850 690 800 718 q 929 631 900 663 q 964 571 958 600 l 908 563 l 908 738 l 1128 738 l 1128 0 l 904 0 l 904 206 l 949 186 q 916 118 946 153 q 838 53 886 83 q 725 6 789 24 q 590 -12 661 -12 m 646 175 q 787 199 728 175 q 878 267 846 224 q 911 368 911 311 q 878 469 911 426 q 787 538 846 513 q 646 564 728 564 q 507 538 567 564 q 414 469 447 513 q 381 368 381 426 q 414 267 381 311 q 507 199 447 224 q 646 175 567 175 m 671 825 q 508 878 574 825 q 421 1029 442 932 l 558 1046 q 606 981 575 1000 q 671 961 636 961 q 735 981 704 961 q 782 1046 765 1000 l 919 1029 q 833 879 900 933 q 671 825 767 825 m 779 1153 q 722 1162 750 1153 q 663 1183 694 1171 q 625 1198 642 1193 q 596 1203 608 1203 q 561 1190 576 1203 q 542 1153 546 1178 l 418 1171 q 461 1290 419 1240 q 569 1340 503 1340 q 621 1332 594 1340 q 676 1311 647 1324 q 714 1297 697 1303 q 746 1290 731 1290 q 780 1303 765 1290 q 797 1342 794 1317 l 922 1324 q 903 1240 921 1279 q 854 1177 886 1201 q 779 1153 822 1153 z "},"ǎ":{"ha":1403,"x_min":160,"x_max":1128,"o":"m 590 -12 q 360 36 457 -12 q 212 171 264 85 q 160 368 160 257 q 214 567 160 481 q 365 703 268 654 q 593 753 463 753 q 735 735 669 753 q 850 690 800 718 q 929 631 900 663 q 964 571 958 600 l 908 563 l 908 738 l 1128 738 l 1128 0 l 904 0 l 904 206 l 949 186 q 916 118 946 153 q 838 53 886 83 q 725 6 789 24 q 590 -12 661 -12 m 646 175 q 787 199 728 175 q 878 267 846 224 q 911 368 911 311 q 878 469 911 426 q 787 538 846 513 q 646 564 728 564 q 507 538 567 564 q 414 469 447 513 q 381 368 381 426 q 414 267 381 311 q 507 199 447 224 q 646 175 567 175 m 603 843 l 408 1022 l 489 1092 l 690 972 l 649 972 l 850 1092 l 931 1022 l 736 843 l 603 843 z "},"â":{"ha":1403,"x_min":160,"x_max":1128,"o":"m 590 -12 q 360 36 457 -12 q 212 171 264 85 q 160 368 160 257 q 214 567 160 481 q 365 703 268 654 q 593 753 463 753 q 735 735 669 753 q 850 690 800 718 q 929 631 900 663 q 964 571 958 600 l 908 563 l 908 738 l 1128 738 l 1128 0 l 904 0 l 904 206 l 949 186 q 916 118 946 153 q 838 53 886 83 q 725 6 789 24 q 590 -12 661 -12 m 646 175 q 787 199 728 175 q 878 267 846 224 q 911 368 911 311 q 878 469 911 426 q 787 538 846 513 q 646 564 728 564 q 507 538 567 564 q 414 469 447 513 q 381 368 381 426 q 414 267 381 311 q 507 199 447 224 q 646 175 567 175 m 483 835 l 403 904 l 603 1083 l 736 1083 l 936 904 l 856 835 l 649 954 l 690 954 l 483 835 z "},"ấ":{"ha":1403,"x_min":160,"x_max":1128,"o":"m 590 -12 q 360 36 457 -12 q 212 171 264 85 q 160 368 160 257 q 214 567 160 481 q 365 703 268 654 q 593 753 463 753 q 735 735 669 753 q 850 690 800 718 q 929 631 900 663 q 964 571 958 600 l 908 563 l 908 738 l 1128 738 l 1128 0 l 904 0 l 904 206 l 949 186 q 916 118 946 153 q 838 53 886 83 q 725 6 789 24 q 590 -12 661 -12 m 646 175 q 787 199 728 175 q 878 267 846 224 q 911 368 911 311 q 878 469 911 426 q 787 538 846 513 q 646 564 728 564 q 507 538 567 564 q 414 469 447 513 q 381 368 381 426 q 414 267 381 311 q 507 199 447 224 q 646 175 567 175 m 486 836 l 421 910 l 604 1060 l 736 1060 l 921 910 l 854 836 l 650 931 l 692 931 l 486 836 m 939 1047 l 850 1110 l 982 1338 l 1121 1239 l 939 1047 z "},"ậ":{"ha":1403,"x_min":160,"x_max":1128,"o":"m 590 -12 q 360 36 457 -12 q 212 171 264 85 q 160 368 160 257 q 214 567 160 481 q 365 703 268 654 q 593 753 463 753 q 735 735 669 753 q 850 690 800 718 q 929 631 900 663 q 964 571 958 600 l 908 563 l 908 738 l 1128 738 l 1128 0 l 904 0 l 904 206 l 949 186 q 916 118 946 153 q 838 53 886 83 q 725 6 789 24 q 590 -12 661 -12 m 646 175 q 787 199 728 175 q 878 267 846 224 q 911 368 911 311 q 878 469 911 426 q 787 538 846 513 q 646 564 728 564 q 507 538 567 564 q 414 469 447 513 q 381 368 381 426 q 414 267 381 311 q 507 199 447 224 q 646 175 567 175 m 669 -311 q 569 -280 604 -311 q 533 -193 533 -249 q 569 -109 533 -143 q 669 -75 606 -75 q 770 -106 735 -75 q 806 -193 806 -137 q 769 -277 806 -243 q 669 -311 733 -311 m 483 835 l 403 904 l 603 1083 l 736 1083 l 936 904 l 856 835 l 649 954 l 690 954 l 483 835 z "},"ầ":{"ha":1403,"x_min":160,"x_max":1128,"o":"m 590 -12 q 360 36 457 -12 q 212 171 264 85 q 160 368 160 257 q 214 567 160 481 q 365 703 268 654 q 593 753 463 753 q 735 735 669 753 q 850 690 800 718 q 929 631 900 663 q 964 571 958 600 l 908 563 l 908 738 l 1128 738 l 1128 0 l 904 0 l 904 206 l 949 186 q 916 118 946 153 q 838 53 886 83 q 725 6 789 24 q 590 -12 661 -12 m 646 175 q 787 199 728 175 q 878 267 846 224 q 911 368 911 311 q 878 469 911 426 q 787 538 846 513 q 646 564 728 564 q 507 538 567 564 q 414 469 447 513 q 381 368 381 426 q 414 267 381 311 q 507 199 447 224 q 646 175 567 175 m 486 835 l 419 910 l 604 1058 l 736 1058 l 919 910 l 854 835 l 649 929 l 690 929 l 486 835 m 906 1046 l 721 1238 l 860 1338 l 992 1108 l 906 1046 z "},"ẩ":{"ha":1403,"x_min":160,"x_max":1128,"o":"m 590 -12 q 360 36 457 -12 q 212 171 264 85 q 160 368 160 257 q 214 567 160 481 q 365 703 268 654 q 593 753 463 753 q 735 735 669 753 q 850 690 800 718 q 929 631 900 663 q 964 571 958 600 l 908 563 l 908 738 l 1128 738 l 1128 0 l 904 0 l 904 206 l 949 186 q 916 118 946 153 q 838 53 886 83 q 725 6 789 24 q 590 -12 661 -12 m 646 175 q 787 199 728 175 q 878 267 846 224 q 911 368 911 311 q 878 469 911 426 q 787 538 846 513 q 646 564 728 564 q 507 538 567 564 q 414 469 447 513 q 381 368 381 426 q 414 267 381 311 q 507 199 447 224 q 646 175 567 175 m 485 836 l 418 910 l 603 1060 l 735 1060 l 919 910 l 853 836 l 649 931 l 690 931 l 485 836 m 885 1036 q 867 1063 874 1049 q 860 1093 860 1078 q 867 1121 860 1107 q 896 1149 874 1135 q 923 1169 913 1160 q 933 1190 933 1179 q 921 1210 933 1203 q 889 1217 908 1217 q 832 1209 861 1217 q 772 1189 803 1201 l 743 1307 q 815 1333 772 1322 q 904 1344 858 1344 q 1033 1310 985 1344 q 1082 1217 1082 1275 q 1061 1151 1082 1174 q 1015 1115 1040 1129 q 980 1094 994 1104 q 965 1068 965 1083 q 965 1063 965 1065 q 967 1056 965 1060 l 885 1036 z "},"ẫ":{"ha":1403,"x_min":160,"x_max":1128,"o":"m 590 -12 q 360 36 457 -12 q 212 171 264 85 q 160 368 160 257 q 214 567 160 481 q 365 703 268 654 q 593 753 463 753 q 735 735 669 753 q 850 690 800 718 q 929 631 900 663 q 964 571 958 600 l 908 563 l 908 738 l 1128 738 l 1128 0 l 904 0 l 904 206 l 949 186 q 916 118 946 153 q 838 53 886 83 q 725 6 789 24 q 590 -12 661 -12 m 646 175 q 787 199 728 175 q 878 267 846 224 q 911 368 911 311 q 878 469 911 426 q 787 538 846 513 q 646 564 728 564 q 507 538 567 564 q 414 469 447 513 q 381 368 381 426 q 414 267 381 311 q 507 199 447 224 q 646 175 567 175 m 485 836 l 419 910 l 603 1060 l 735 1060 l 918 910 l 853 836 l 649 931 l 690 931 l 485 836 m 778 1147 q 721 1156 749 1147 q 661 1178 693 1164 q 624 1192 640 1186 q 594 1197 607 1197 q 560 1185 575 1197 q 540 1147 544 1172 l 417 1164 q 460 1285 418 1235 q 568 1335 501 1335 q 619 1326 593 1335 q 675 1306 646 1318 q 713 1290 696 1296 q 744 1285 729 1285 q 778 1298 764 1285 q 796 1335 793 1311 l 921 1317 q 902 1235 919 1274 q 853 1172 885 1196 q 778 1147 821 1147 z "},"ȁ":{"ha":1403,"x_min":160,"x_max":1128,"o":"m 590 -12 q 360 36 457 -12 q 212 171 264 85 q 160 368 160 257 q 214 567 160 481 q 365 703 268 654 q 593 753 463 753 q 735 735 669 753 q 850 690 800 718 q 929 631 900 663 q 964 571 958 600 l 908 563 l 908 738 l 1128 738 l 1128 0 l 904 0 l 904 206 l 949 186 q 916 118 946 153 q 838 53 886 83 q 725 6 789 24 q 590 -12 661 -12 m 646 175 q 787 199 728 175 q 878 267 846 224 q 911 368 911 311 q 878 469 911 426 q 787 538 846 513 q 646 564 728 564 q 507 538 567 564 q 414 469 447 513 q 381 368 381 426 q 414 267 381 311 q 507 199 447 224 q 646 175 567 175 m 807 815 l 571 1010 l 703 1126 l 900 882 l 807 815 m 521 819 l 274 1000 l 399 1125 l 610 890 l 521 819 z "},"ä":{"ha":1403,"x_min":160,"x_max":1128,"o":"m 590 -12 q 360 36 457 -12 q 212 171 264 85 q 160 368 160 257 q 214 567 160 481 q 365 703 268 654 q 593 753 463 753 q 735 735 669 753 q 850 690 800 718 q 929 631 900 663 q 964 571 958 600 l 908 563 l 908 738 l 1128 738 l 1128 0 l 904 0 l 904 206 l 949 186 q 916 118 946 153 q 838 53 886 83 q 725 6 789 24 q 590 -12 661 -12 m 646 175 q 787 199 728 175 q 878 267 846 224 q 911 368 911 311 q 878 469 911 426 q 787 538 846 513 q 646 564 728 564 q 507 538 567 564 q 414 469 447 513 q 381 368 381 426 q 414 267 381 311 q 507 199 447 224 q 646 175 567 175 m 838 883 q 748 915 779 883 q 717 1001 717 946 q 749 1087 717 1054 q 838 1119 782 1119 q 926 1090 894 1119 q 957 1001 957 1060 q 925 917 957 950 q 838 883 893 883 m 503 883 q 413 915 444 883 q 382 1001 382 946 q 415 1087 382 1054 q 503 1119 447 1119 q 592 1090 561 1119 q 624 1001 624 1060 q 591 917 624 950 q 503 883 558 883 z "},"ạ":{"ha":1403,"x_min":160,"x_max":1128,"o":"m 590 -12 q 360 36 457 -12 q 212 171 264 85 q 160 368 160 257 q 214 567 160 481 q 365 703 268 654 q 593 753 463 753 q 735 735 669 753 q 850 690 800 718 q 929 631 900 663 q 964 571 958 600 l 908 563 l 908 738 l 1128 738 l 1128 0 l 904 0 l 904 206 l 949 186 q 916 118 946 153 q 838 53 886 83 q 725 6 789 24 q 590 -12 661 -12 m 646 175 q 787 199 728 175 q 878 267 846 224 q 911 368 911 311 q 878 469 911 426 q 787 538 846 513 q 646 564 728 564 q 507 538 567 564 q 414 469 447 513 q 381 368 381 426 q 414 267 381 311 q 507 199 447 224 q 646 175 567 175 m 669 -311 q 569 -280 604 -311 q 533 -193 533 -249 q 569 -109 533 -143 q 669 -75 606 -75 q 770 -106 735 -75 q 806 -193 806 -137 q 769 -277 806 -243 q 669 -311 733 -311 z "},"à":{"ha":1403,"x_min":160,"x_max":1128,"o":"m 590 -12 q 360 36 457 -12 q 212 171 264 85 q 160 368 160 257 q 214 567 160 481 q 365 703 268 654 q 593 753 463 753 q 735 735 669 753 q 850 690 800 718 q 929 631 900 663 q 964 571 958 600 l 908 563 l 908 738 l 1128 738 l 1128 0 l 904 0 l 904 206 l 949 186 q 916 118 946 153 q 838 53 886 83 q 725 6 789 24 q 590 -12 661 -12 m 646 175 q 787 199 728 175 q 878 267 846 224 q 911 368 911 311 q 878 469 911 426 q 787 538 846 513 q 646 564 728 564 q 507 538 567 564 q 414 469 447 513 q 381 368 381 426 q 414 267 381 311 q 507 199 447 224 q 646 175 567 175 m 757 819 l 472 972 l 574 1117 l 822 919 l 757 819 z "},"ả":{"ha":1403,"x_min":160,"x_max":1128,"o":"m 590 -12 q 360 36 457 -12 q 212 171 264 85 q 160 368 160 257 q 214 567 160 481 q 365 703 268 654 q 593 753 463 753 q 735 735 669 753 q 850 690 800 718 q 929 631 900 663 q 964 571 958 600 l 908 563 l 908 738 l 1128 738 l 1128 0 l 904 0 l 904 206 l 949 186 q 916 118 946 153 q 838 53 886 83 q 725 6 789 24 q 590 -12 661 -12 m 646 175 q 787 199 728 175 q 878 267 846 224 q 911 368 911 311 q 878 469 911 426 q 787 538 846 513 q 646 564 728 564 q 507 538 567 564 q 414 469 447 513 q 381 368 381 426 q 414 267 381 311 q 507 199 447 224 q 646 175 567 175 m 635 822 q 617 849 625 835 q 608 881 608 864 q 617 915 608 899 q 651 947 626 931 q 682 970 671 961 q 693 993 693 979 q 681 1012 693 1006 q 651 1018 669 1018 q 593 1010 624 1018 q 532 989 563 1001 l 500 1106 q 576 1135 531 1122 q 668 1147 621 1147 q 794 1113 747 1147 q 840 1021 840 1079 q 821 953 840 976 q 779 914 801 929 q 742 888 757 901 q 728 861 728 875 q 729 852 728 857 q 732 843 731 847 l 635 822 z "},"ȃ":{"ha":1403,"x_min":160,"x_max":1128,"o":"m 590 -12 q 360 36 457 -12 q 212 171 264 85 q 160 368 160 257 q 214 567 160 481 q 365 703 268 654 q 593 753 463 753 q 735 735 669 753 q 850 690 800 718 q 929 631 900 663 q 964 571 958 600 l 908 563 l 908 738 l 1128 738 l 1128 0 l 904 0 l 904 206 l 949 186 q 916 118 946 153 q 838 53 886 83 q 725 6 789 24 q 590 -12 661 -12 m 646 175 q 787 199 728 175 q 878 267 846 224 q 911 368 911 311 q 878 469 911 426 q 787 538 846 513 q 646 564 728 564 q 507 538 567 564 q 414 469 447 513 q 381 368 381 426 q 414 267 381 311 q 507 199 447 224 q 646 175 567 175 m 563 849 l 421 865 q 507 1028 440 969 q 669 1088 574 1088 q 832 1028 765 1088 q 918 865 899 969 l 776 849 q 733 918 761 893 q 669 943 704 943 q 606 918 635 943 q 563 849 578 893 z "},"ā":{"ha":1403,"x_min":160,"x_max":1128,"o":"m 590 -12 q 360 36 457 -12 q 212 171 264 85 q 160 368 160 257 q 214 567 160 481 q 365 703 268 654 q 593 753 463 753 q 735 735 669 753 q 850 690 800 718 q 929 631 900 663 q 964 571 958 600 l 908 563 l 908 738 l 1128 738 l 1128 0 l 904 0 l 904 206 l 949 186 q 916 118 946 153 q 838 53 886 83 q 725 6 789 24 q 590 -12 661 -12 m 646 175 q 787 199 728 175 q 878 267 846 224 q 911 368 911 311 q 878 469 911 426 q 787 538 846 513 q 646 564 728 564 q 507 538 567 564 q 414 469 447 513 q 381 368 381 426 q 414 267 381 311 q 507 199 447 224 q 646 175 567 175 m 431 889 l 431 1029 l 908 1029 l 908 889 l 431 889 z "},"ą":{"ha":1403,"x_min":160,"x_max":1128,"o":"m 590 -12 q 360 36 457 -12 q 212 171 264 85 q 160 368 160 257 q 214 567 160 481 q 365 703 268 654 q 593 753 463 753 q 735 735 669 753 q 850 690 800 718 q 929 631 900 663 q 964 571 958 600 l 908 563 l 908 738 l 1128 738 l 1128 0 l 904 0 l 904 206 l 949 186 q 916 118 946 153 q 838 53 886 83 q 725 6 789 24 q 590 -12 661 -12 m 646 175 q 787 199 728 175 q 878 267 846 224 q 911 368 911 311 q 878 469 911 426 q 787 538 846 513 q 646 564 728 564 q 507 538 567 564 q 414 469 447 513 q 381 368 381 426 q 414 267 381 311 q 507 199 447 224 q 646 175 567 175 m 956 -293 q 872 -273 910 -293 q 811 -217 833 -253 q 789 -139 789 -182 q 806 -67 789 -100 q 853 -9 822 -35 q 928 37 885 17 q 1022 69 971 57 l 1083 0 q 1015 -25 1047 -8 q 963 -63 982 -42 q 943 -111 943 -85 q 953 -138 943 -128 q 981 -149 963 -149 q 1006 -140 996 -149 q 1026 -117 1017 -132 l 1122 -187 q 1085 -235 1110 -211 q 1027 -276 1060 -260 q 956 -293 994 -293 z "},"å":{"ha":1403,"x_min":160,"x_max":1128,"o":"m 590 -12 q 360 36 457 -12 q 212 171 264 85 q 160 368 160 257 q 214 567 160 481 q 365 703 268 654 q 593 753 463 753 q 735 735 669 753 q 850 690 800 718 q 929 631 900 663 q 964 571 958 600 l 908 563 l 908 738 l 1128 738 l 1128 0 l 904 0 l 904 206 l 949 186 q 916 118 946 153 q 838 53 886 83 q 725 6 789 24 q 590 -12 661 -12 m 646 175 q 787 199 728 175 q 878 267 846 224 q 911 368 911 311 q 878 469 911 426 q 787 538 846 513 q 646 564 728 564 q 507 538 567 564 q 414 469 447 513 q 381 368 381 426 q 414 267 381 311 q 507 199 447 224 q 646 175 567 175 m 669 839 q 588 861 626 839 q 526 920 549 883 q 503 1000 503 957 q 525 1083 503 1046 q 586 1142 547 1119 q 669 1164 625 1164 q 753 1142 715 1164 q 815 1083 792 1119 q 838 1000 838 1046 q 814 920 838 957 q 753 861 790 883 q 669 839 715 839 m 669 951 q 706 965 692 951 q 721 1000 721 979 q 706 1038 721 1024 q 669 1051 692 1051 q 633 1038 647 1051 q 618 1001 618 1024 q 633 965 618 979 q 669 951 649 951 z "},"ǻ":{"ha":1403,"x_min":160,"x_max":1128,"o":"m 590 -12 q 360 36 457 -12 q 212 171 264 85 q 160 368 160 257 q 214 567 160 481 q 365 703 268 654 q 593 753 463 753 q 735 735 669 753 q 850 690 800 718 q 929 631 900 663 q 964 571 958 600 l 908 563 l 908 738 l 1128 738 l 1128 0 l 904 0 l 904 206 l 949 186 q 916 118 946 153 q 838 53 886 83 q 725 6 789 24 q 590 -12 661 -12 m 646 175 q 787 199 728 175 q 878 267 846 224 q 911 368 911 311 q 878 469 911 426 q 787 538 846 513 q 646 564 728 564 q 507 538 567 564 q 414 469 447 513 q 381 368 381 426 q 414 267 381 311 q 507 199 447 224 q 646 175 567 175 m 669 839 q 588 861 626 839 q 526 920 549 883 q 503 1000 503 957 q 525 1083 503 1046 q 586 1142 547 1119 q 669 1164 625 1164 q 753 1142 715 1164 q 815 1083 792 1119 q 838 1000 838 1046 q 814 920 838 957 q 753 861 790 883 q 669 839 715 839 m 669 951 q 706 965 692 951 q 721 1000 721 979 q 706 1038 721 1024 q 669 1051 692 1051 q 633 1038 647 1051 q 618 1001 618 1024 q 633 965 618 979 q 669 951 649 951 m 565 1200 l 500 1301 l 749 1499 l 850 1353 l 565 1200 z "},"ã":{"ha":1403,"x_min":160,"x_max":1128,"o":"m 590 -12 q 360 36 457 -12 q 212 171 264 85 q 160 368 160 257 q 214 567 160 481 q 365 703 268 654 q 593 753 463 753 q 735 735 669 753 q 850 690 800 718 q 929 631 900 663 q 964 571 958 600 l 908 563 l 908 738 l 1128 738 l 1128 0 l 904 0 l 904 206 l 949 186 q 916 118 946 153 q 838 53 886 83 q 725 6 789 24 q 590 -12 661 -12 m 646 175 q 787 199 728 175 q 878 267 846 224 q 911 368 911 311 q 878 469 911 426 q 787 538 846 513 q 646 564 728 564 q 507 538 567 564 q 414 469 447 513 q 381 368 381 426 q 414 267 381 311 q 507 199 447 224 q 646 175 567 175 m 765 853 q 717 861 742 853 q 660 892 692 869 q 621 919 636 911 q 596 926 606 926 q 561 910 576 926 q 542 860 546 894 l 418 878 q 463 1011 419 956 q 578 1067 506 1067 q 625 1058 601 1067 q 681 1029 649 1050 q 715 1003 699 1014 q 746 993 731 993 q 780 1010 765 993 q 797 1060 794 1028 l 922 1042 q 901 949 921 993 q 847 879 882 906 q 765 853 811 853 z "},"æ":{"ha":1899,"x_min":160,"x_max":1711,"o":"m 508 -14 q 327 10 406 -14 q 204 83 249 33 q 160 207 160 132 q 196 334 160 285 q 294 410 232 383 q 432 447 356 438 q 589 457 508 457 l 1517 457 l 1504 418 l 1504 447 q 1465 516 1499 488 q 1381 561 1432 544 q 1271 578 1331 578 q 1128 561 1197 578 q 1017 502 1060 544 q 975 382 975 460 q 1024 260 975 308 q 1153 190 1072 213 q 1328 168 1233 168 q 1490 188 1426 168 q 1589 229 1554 207 l 1686 86 q 1585 35 1646 58 q 1451 -1 1524 13 q 1304 -14 1379 -14 q 1024 35 1142 -14 q 844 171 907 85 q 781 365 781 257 q 821 528 781 457 q 929 650 861 600 q 1085 726 997 700 q 1268 753 1174 753 q 1495 706 1394 753 q 1653 575 1596 658 q 1710 381 1711 492 l 1708 318 l 596 318 q 530 316 567 318 q 459 306 493 314 q 402 283 425 299 q 379 242 379 268 q 404 197 379 214 q 472 174 429 181 q 563 167 514 167 q 684 185 631 167 q 774 227 738 203 q 826 268 811 251 l 899 146 q 819 79 874 117 q 687 14 765 42 q 508 -14 608 -14 m 776 344 l 776 433 q 758 495 776 469 q 711 539 740 521 q 647 566 682 557 q 581 575 613 575 q 439 558 511 575 q 308 496 367 542 l 200 622 q 306 685 246 656 q 442 734 365 715 q 613 753 519 753 q 735 741 672 753 q 852 702 799 729 q 939 628 906 675 q 972 510 972 582 l 972 349 l 776 344 z "},"ǽ":{"ha":1899,"x_min":160,"x_max":1711,"o":"m 508 -14 q 327 10 406 -14 q 204 83 249 33 q 160 207 160 132 q 196 334 160 285 q 294 410 232 383 q 432 447 356 438 q 589 457 508 457 l 1517 457 l 1504 418 l 1504 447 q 1465 516 1499 488 q 1381 561 1432 544 q 1271 578 1331 578 q 1128 561 1197 578 q 1017 502 1060 544 q 975 382 975 460 q 1024 260 975 308 q 1153 190 1072 213 q 1328 168 1233 168 q 1490 188 1426 168 q 1589 229 1554 207 l 1686 86 q 1585 35 1646 58 q 1451 -1 1524 13 q 1304 -14 1379 -14 q 1024 35 1142 -14 q 844 171 907 85 q 781 365 781 257 q 821 528 781 457 q 929 650 861 600 q 1085 726 997 700 q 1268 753 1174 753 q 1495 706 1394 753 q 1653 575 1596 658 q 1710 381 1711 492 l 1708 318 l 596 318 q 530 316 567 318 q 459 306 493 314 q 402 283 425 299 q 379 242 379 268 q 404 197 379 214 q 472 174 429 181 q 563 167 514 167 q 684 185 631 167 q 774 227 738 203 q 826 268 811 251 l 899 146 q 819 79 874 117 q 687 14 765 42 q 508 -14 608 -14 m 776 344 l 776 433 q 758 495 776 469 q 711 539 740 521 q 647 566 682 557 q 581 575 613 575 q 439 558 511 575 q 308 496 367 542 l 200 622 q 306 685 246 656 q 442 734 365 715 q 613 753 519 753 q 735 741 672 753 q 852 702 799 729 q 939 628 906 675 q 972 510 972 582 l 972 349 l 776 344 m 839 818 l 774 919 l 1022 1117 l 1124 971 l 839 818 z "},"b":{"ha":1419,"x_min":290,"x_max":1239,"o":"m 803 -15 q 663 3 728 -15 q 551 49 599 21 q 472 109 503 76 q 433 169 442 142 l 510 172 l 496 1 l 290 1 l 290 1028 l 514 1028 l 514 561 l 440 564 q 481 628 450 596 q 560 690 511 661 q 673 735 610 718 q 810 753 736 753 q 1027 703 931 753 q 1181 567 1124 654 q 1239 369 1239 481 q 1183 170 1239 257 q 1028 34 1126 83 q 803 -15 929 -15 m 757 175 q 896 200 838 175 q 987 269 954 225 q 1019 369 1019 313 q 987 472 1019 428 q 895 539 954 515 q 757 563 836 563 q 618 539 678 563 q 526 472 558 515 q 493 369 493 428 q 526 269 493 313 q 618 200 558 225 q 757 175 678 175 z "},"c":{"ha":1244,"x_min":181,"x_max":1076,"o":"m 668 -14 q 416 36 526 -14 q 243 173 306 86 q 181 369 181 260 q 242 567 181 481 q 411 703 304 653 q 653 753 518 753 q 892 720 782 753 q 1076 626 1001 688 l 953 463 q 873 511 919 489 q 775 547 826 533 q 671 560 724 560 q 532 535 590 560 q 443 469 474 511 q 413 369 413 426 q 444 272 413 315 q 534 204 476 228 q 668 181 592 181 q 791 192 738 181 q 885 219 844 203 q 956 251 925 236 l 1075 92 q 893 17 993 47 q 668 -14 793 -14 z "},"ć":{"ha":1244,"x_min":181,"x_max":1076,"o":"m 668 -14 q 416 36 526 -14 q 243 173 306 86 q 181 369 181 260 q 242 567 181 481 q 411 703 304 653 q 653 753 518 753 q 892 720 782 753 q 1076 626 1001 688 l 953 463 q 873 511 919 489 q 775 547 826 533 q 671 560 724 560 q 532 535 590 560 q 443 469 474 511 q 413 369 413 426 q 444 272 413 315 q 534 204 476 228 q 668 181 592 181 q 791 192 738 181 q 885 219 844 203 q 956 251 925 236 l 1075 92 q 893 17 993 47 q 668 -14 793 -14 m 547 818 l 482 919 l 731 1117 l 832 971 l 547 818 z "},"č":{"ha":1244,"x_min":181,"x_max":1076,"o":"m 668 -14 q 416 36 526 -14 q 243 173 306 86 q 181 369 181 260 q 242 567 181 481 q 411 703 304 653 q 653 753 518 753 q 892 720 782 753 q 1076 626 1001 688 l 953 463 q 873 511 919 489 q 775 547 826 533 q 671 560 724 560 q 532 535 590 560 q 443 469 474 511 q 413 369 413 426 q 444 272 413 315 q 534 204 476 228 q 668 181 592 181 q 791 192 738 181 q 885 219 844 203 q 956 251 925 236 l 1075 92 q 893 17 993 47 q 668 -14 793 -14 m 585 843 l 390 1022 l 471 1092 l 672 972 l 631 972 l 832 1092 l 913 1022 l 718 843 l 585 843 z "},"ç":{"ha":1244,"x_min":181,"x_max":1076,"o":"m 668 -14 q 416 36 526 -14 q 243 173 306 86 q 181 369 181 260 q 242 567 181 481 q 411 703 304 653 q 653 753 518 753 q 892 720 782 753 q 1076 626 1001 688 l 953 463 q 873 511 919 489 q 775 547 826 533 q 671 560 724 560 q 532 535 590 560 q 443 469 474 511 q 413 369 413 426 q 444 272 413 315 q 534 204 476 228 q 668 181 592 181 q 791 192 738 181 q 885 219 844 203 q 956 251 925 236 l 1075 92 q 893 17 993 47 q 668 -14 793 -14 m 514 -342 l 500 -240 q 565 -235 532 -240 q 619 -217 597 -229 q 640 -186 640 -204 q 624 -157 640 -168 q 584 -141 608 -146 q 536 -136 560 -136 l 514 -111 l 608 33 l 722 33 l 658 -60 q 763 -103 725 -68 q 801 -193 801 -137 q 774 -265 801 -236 q 703 -312 747 -294 q 610 -336 660 -329 q 514 -342 560 -343 z "},"ḉ":{"ha":1244,"x_min":181,"x_max":1076,"o":"m 668 -14 q 416 36 526 -14 q 243 173 306 86 q 181 369 181 260 q 242 567 181 481 q 411 703 304 653 q 653 753 518 753 q 892 720 782 753 q 1076 626 1001 688 l 953 463 q 873 511 919 489 q 775 547 826 533 q 671 560 724 560 q 532 535 590 560 q 443 469 474 511 q 413 369 413 426 q 444 272 413 315 q 534 204 476 228 q 668 181 592 181 q 791 192 738 181 q 885 219 844 203 q 956 251 925 236 l 1075 92 q 893 17 993 47 q 668 -14 793 -14 m 514 -342 l 500 -240 q 565 -235 532 -240 q 619 -217 597 -229 q 640 -186 640 -204 q 624 -157 640 -168 q 584 -141 608 -146 q 536 -136 560 -136 l 514 -111 l 608 33 l 722 33 l 658 -60 q 763 -103 725 -68 q 801 -193 801 -137 q 774 -265 801 -236 q 703 -312 747 -294 q 610 -336 660 -329 q 514 -342 560 -343 m 547 818 l 482 919 l 731 1117 l 832 971 l 547 818 z "},"ĉ":{"ha":1244,"x_min":181,"x_max":1076,"o":"m 668 -14 q 416 36 526 -14 q 243 173 306 86 q 181 369 181 260 q 242 567 181 481 q 411 703 304 653 q 653 753 518 753 q 892 720 782 753 q 1076 626 1001 688 l 953 463 q 873 511 919 489 q 775 547 826 533 q 671 560 724 560 q 532 535 590 560 q 443 469 474 511 q 413 369 413 426 q 444 272 413 315 q 534 204 476 228 q 668 181 592 181 q 791 192 738 181 q 885 219 844 203 q 956 251 925 236 l 1075 92 q 893 17 993 47 q 668 -14 793 -14 m 465 835 l 385 904 l 585 1083 l 718 1083 l 918 904 l 838 835 l 631 954 l 672 954 l 465 835 z "},"ċ":{"ha":1244,"x_min":181,"x_max":1076,"o":"m 668 -14 q 416 36 526 -14 q 243 173 306 86 q 181 369 181 260 q 242 567 181 481 q 411 703 304 653 q 653 753 518 753 q 892 720 782 753 q 1076 626 1001 688 l 953 463 q 873 511 919 489 q 775 547 826 533 q 671 560 724 560 q 532 535 590 560 q 443 469 474 511 q 413 369 413 426 q 444 272 413 315 q 534 204 476 228 q 668 181 592 181 q 791 192 738 181 q 885 219 844 203 q 956 251 925 236 l 1075 92 q 893 17 993 47 q 668 -14 793 -14 m 651 889 q 554 919 589 889 q 519 1004 519 950 q 555 1088 519 1056 q 651 1119 590 1119 q 749 1090 714 1119 q 783 1004 783 1060 q 748 922 783 954 q 651 889 713 889 z "},"d":{"ha":1367,"x_min":158,"x_max":1125,"o":"m 574 -15 q 353 33 446 -15 q 209 169 260 82 q 158 368 158 257 q 213 567 158 481 q 364 703 267 654 q 589 753 461 753 q 730 736 665 753 q 843 692 794 719 q 921 632 892 665 q 954 565 950 599 l 901 553 l 901 1028 l 1125 1028 l 1125 0 l 918 0 l 906 196 l 950 178 q 915 110 946 144 q 832 47 883 75 q 715 2 781 19 q 574 -15 649 -15 m 643 178 q 783 202 724 178 q 875 269 843 226 q 907 368 907 313 q 875 467 907 425 q 783 534 843 510 q 643 558 724 558 q 505 534 564 558 q 413 467 446 510 q 379 368 379 425 q 413 269 379 313 q 505 202 446 226 q 643 178 564 178 z "},"ð":{"ha":1303,"x_min":181,"x_max":1122,"o":"m 643 -10 q 392 40 496 -10 q 235 172 289 89 q 181 356 181 254 q 215 497 181 432 q 310 613 250 563 q 453 690 371 663 q 628 718 535 718 q 801 685 731 718 q 913 601 871 653 q 969 483 954 549 l 882 465 q 867 560 882 513 q 824 656 851 608 q 759 748 796 703 q 678 834 722 793 q 590 910 635 875 l 669 1036 q 785 963 724 1010 q 906 854 846 917 q 1015 718 965 792 q 1093 565 1064 644 q 1122 403 1122 485 q 1059 183 1122 275 q 888 40 996 90 q 643 -10 779 -10 m 644 165 q 776 192 718 165 q 869 263 835 218 q 903 364 903 308 q 867 462 903 418 q 769 532 831 506 q 631 558 708 558 q 513 533 565 558 q 429 463 460 507 q 399 364 399 419 q 431 263 399 308 q 520 192 464 218 q 644 165 576 165 m 536 746 l 515 836 l 735 874 l 813 913 l 1014 939 l 1043 847 l 886 833 l 828 799 l 536 746 z "},"ď":{"ha":1482,"x_min":158,"x_max":1494,"o":"m 574 -15 q 353 33 446 -15 q 209 169 260 82 q 158 368 158 257 q 213 567 158 481 q 364 703 267 654 q 589 753 461 753 q 730 736 665 753 q 843 692 794 719 q 921 632 892 665 q 954 565 950 599 l 901 553 l 901 1028 l 1125 1028 l 1125 0 l 918 0 l 906 196 l 950 178 q 915 110 946 144 q 832 47 883 75 q 715 2 781 19 q 574 -15 649 -15 m 643 178 q 783 202 724 178 q 875 269 843 226 q 907 368 907 313 q 875 467 907 425 q 783 534 843 510 q 643 558 724 558 q 505 534 564 558 q 413 467 446 510 q 379 368 379 425 q 413 269 379 313 q 505 202 446 226 q 643 178 564 178 m 1286 676 l 1231 751 q 1273 769 1250 757 q 1313 799 1296 782 q 1331 832 1331 815 q 1321 851 1331 846 q 1297 864 1311 857 q 1258 891 1272 875 q 1243 938 1243 907 q 1276 1006 1243 983 q 1356 1028 1308 1028 q 1452 996 1410 1028 q 1494 893 1494 964 q 1477 814 1494 850 q 1429 751 1460 778 q 1362 706 1399 725 q 1286 676 1325 688 z "},"đ":{"ha":1367,"x_min":158,"x_max":1214,"o":"m 567 801 l 567 960 l 1214 960 l 1214 801 l 567 801 m 574 -15 q 353 33 446 -15 q 209 169 260 82 q 158 368 158 257 q 213 567 158 481 q 364 703 267 654 q 589 753 461 753 q 730 736 665 753 q 843 692 794 719 q 921 632 892 665 q 954 565 950 599 l 901 553 l 901 1028 l 1125 1028 l 1125 0 l 918 0 l 906 196 l 950 178 q 915 110 946 144 q 832 47 883 75 q 715 2 781 19 q 574 -15 649 -15 m 643 178 q 783 202 724 178 q 875 269 843 226 q 907 368 907 313 q 875 467 907 425 q 783 534 843 510 q 643 558 724 558 q 505 534 564 558 q 413 467 446 510 q 379 368 379 425 q 413 269 379 313 q 505 202 446 226 q 643 178 564 178 z "},"ḍ":{"ha":1367,"x_min":158,"x_max":1125,"o":"m 574 -15 q 353 33 446 -15 q 209 169 260 82 q 158 368 158 257 q 213 567 158 481 q 364 703 267 654 q 589 753 461 753 q 730 736 665 753 q 843 692 794 719 q 921 632 892 665 q 954 565 950 599 l 901 553 l 901 1028 l 1125 1028 l 1125 0 l 918 0 l 906 196 l 950 178 q 915 110 946 144 q 832 47 883 75 q 715 2 781 19 q 574 -15 649 -15 m 643 178 q 783 202 724 178 q 875 269 843 226 q 907 368 907 313 q 875 467 907 425 q 783 534 843 510 q 643 558 724 558 q 505 534 564 558 q 413 467 446 510 q 379 368 379 425 q 413 269 379 313 q 505 202 446 226 q 643 178 564 178 m 663 -311 q 562 -280 597 -311 q 526 -193 526 -249 q 563 -109 526 -143 q 663 -75 599 -75 q 763 -106 728 -75 q 799 -193 799 -137 q 763 -277 799 -243 q 663 -311 726 -311 z "},"ḏ":{"ha":1367,"x_min":158,"x_max":1125,"o":"m 574 -15 q 353 33 446 -15 q 209 169 260 82 q 158 368 158 257 q 213 567 158 481 q 364 703 267 654 q 589 753 461 753 q 730 736 665 753 q 843 692 794 719 q 921 632 892 665 q 954 565 950 599 l 901 553 l 901 1028 l 1125 1028 l 1125 0 l 918 0 l 906 196 l 950 178 q 915 110 946 144 q 832 47 883 75 q 715 2 781 19 q 574 -15 649 -15 m 643 178 q 783 202 724 178 q 875 269 843 226 q 907 368 907 313 q 875 467 907 425 q 783 534 843 510 q 643 558 724 558 q 505 534 564 558 q 413 467 446 510 q 379 368 379 425 q 413 269 379 313 q 505 202 446 226 q 643 178 564 178 m 450 -275 l 450 -111 l 875 -111 l 875 -275 l 450 -275 z "},"ǆ":{"ha":2471,"x_min":158,"x_max":2324,"o":"m 574 -15 q 353 33 446 -15 q 209 169 260 82 q 158 368 158 257 q 213 567 158 481 q 364 703 267 654 q 589 753 461 753 q 730 736 665 753 q 843 692 794 719 q 921 632 892 665 q 954 565 950 599 l 901 553 l 901 1028 l 1125 1028 l 1125 0 l 918 0 l 906 196 l 950 178 q 915 110 946 144 q 832 47 883 75 q 715 2 781 19 q 574 -15 649 -15 m 643 178 q 783 202 724 178 q 875 269 843 226 q 907 368 907 313 q 875 467 907 425 q 783 534 843 510 q 643 558 724 558 q 505 534 564 558 q 413 467 446 510 q 379 368 379 425 q 413 269 379 313 q 505 202 446 226 q 643 178 564 178 m 1506 0 l 1506 128 l 2082 631 l 2106 561 l 1506 561 l 1506 738 l 2311 738 l 2311 604 l 1754 117 l 1726 176 l 2324 176 l 2324 0 l 1506 0 m 1849 843 l 1654 1022 l 1735 1092 l 1936 972 l 1894 972 l 2096 1092 l 2176 1022 l 1982 843 l 1849 843 z "},"e":{"ha":1293,"x_min":158,"x_max":1107,"o":"m 672 -14 q 402 35 518 -14 q 222 171 286 85 q 158 365 158 257 q 197 527 158 456 q 303 649 236 599 q 459 726 371 699 q 644 753 547 753 q 827 726 743 753 q 974 649 911 699 q 1072 532 1038 600 q 1104 381 1107 464 l 1103 313 l 321 313 l 289 451 l 922 451 l 899 419 l 899 447 q 858 513 893 485 q 767 558 822 542 q 647 575 713 575 q 508 556 572 575 q 406 494 444 536 q 367 382 367 451 q 409 274 367 322 q 528 199 451 226 q 710 171 606 171 q 881 194 815 171 q 978 233 946 217 l 1072 92 q 957 35 1021 60 q 821 -1 893 11 q 672 -14 749 -14 z "},"é":{"ha":1293,"x_min":158,"x_max":1107,"o":"m 672 -14 q 402 35 518 -14 q 222 171 286 85 q 158 365 158 257 q 197 527 158 456 q 303 649 236 599 q 459 726 371 699 q 644 753 547 753 q 827 726 743 753 q 974 649 911 699 q 1072 532 1038 600 q 1104 381 1107 464 l 1103 313 l 321 313 l 289 451 l 922 451 l 899 419 l 899 447 q 858 513 893 485 q 767 558 822 542 q 647 575 713 575 q 508 556 572 575 q 406 494 444 536 q 367 382 367 451 q 409 274 367 322 q 528 199 451 226 q 710 171 606 171 q 881 194 815 171 q 978 233 946 217 l 1072 92 q 957 35 1021 60 q 821 -1 893 11 q 672 -14 749 -14 m 540 818 l 475 919 l 724 1117 l 825 971 l 540 818 z "},"ĕ":{"ha":1293,"x_min":158,"x_max":1107,"o":"m 672 -14 q 402 35 518 -14 q 222 171 286 85 q 158 365 158 257 q 197 527 158 456 q 303 649 236 599 q 459 726 371 699 q 644 753 547 753 q 827 726 743 753 q 974 649 911 699 q 1072 532 1038 600 q 1104 381 1107 464 l 1103 313 l 321 313 l 289 451 l 922 451 l 899 419 l 899 447 q 858 513 893 485 q 767 558 822 542 q 647 575 713 575 q 508 556 572 575 q 406 494 444 536 q 367 382 367 451 q 409 274 367 322 q 528 199 451 226 q 710 171 606 171 q 881 194 815 171 q 978 233 946 217 l 1072 92 q 957 35 1021 60 q 821 -1 893 11 q 672 -14 749 -14 m 644 835 q 482 894 549 835 q 396 1057 415 954 l 538 1074 q 581 1005 553 1031 q 644 979 610 979 q 708 1005 679 979 q 751 1074 736 1031 l 893 1057 q 807 894 874 954 q 644 835 740 835 z "},"ě":{"ha":1293,"x_min":158,"x_max":1107,"o":"m 672 -14 q 402 35 518 -14 q 222 171 286 85 q 158 365 158 257 q 197 527 158 456 q 303 649 236 599 q 459 726 371 699 q 644 753 547 753 q 827 726 743 753 q 974 649 911 699 q 1072 532 1038 600 q 1104 381 1107 464 l 1103 313 l 321 313 l 289 451 l 922 451 l 899 419 l 899 447 q 858 513 893 485 q 767 558 822 542 q 647 575 713 575 q 508 556 572 575 q 406 494 444 536 q 367 382 367 451 q 409 274 367 322 q 528 199 451 226 q 710 171 606 171 q 881 194 815 171 q 978 233 946 217 l 1072 92 q 957 35 1021 60 q 821 -1 893 11 q 672 -14 749 -14 m 578 843 l 383 1022 l 464 1092 l 665 972 l 624 972 l 825 1092 l 906 1022 l 711 843 l 578 843 z "},"ḝ":{"ha":1293,"x_min":158,"x_max":1107,"o":"m 672 -14 q 402 35 518 -14 q 222 171 286 85 q 158 365 158 257 q 197 527 158 456 q 303 649 236 599 q 459 726 371 699 q 644 753 547 753 q 827 726 743 753 q 974 649 911 699 q 1072 532 1038 600 q 1104 381 1107 464 l 1103 313 l 321 313 l 289 451 l 922 451 l 899 419 l 899 447 q 858 513 893 485 q 767 558 822 542 q 647 575 713 575 q 508 556 572 575 q 406 494 444 536 q 367 382 367 451 q 409 274 367 322 q 528 199 451 226 q 710 171 606 171 q 881 194 815 171 q 978 233 946 217 l 1072 92 q 957 35 1021 60 q 821 -1 893 11 q 672 -14 749 -14 m 532 -342 l 518 -240 q 583 -235 550 -240 q 637 -217 615 -229 q 658 -186 658 -204 q 642 -157 658 -168 q 602 -141 626 -146 q 554 -136 578 -136 l 532 -111 l 626 33 l 740 33 l 676 -60 q 781 -103 743 -68 q 819 -193 819 -137 q 792 -265 819 -236 q 722 -312 765 -294 q 628 -336 678 -329 q 532 -342 578 -343 m 644 835 q 482 894 549 835 q 396 1057 415 954 l 538 1074 q 581 1005 553 1031 q 644 979 610 979 q 708 1005 679 979 q 751 1074 736 1031 l 893 1057 q 807 894 874 954 q 644 835 740 835 z "},"ê":{"ha":1293,"x_min":158,"x_max":1107,"o":"m 672 -14 q 402 35 518 -14 q 222 171 286 85 q 158 365 158 257 q 197 527 158 456 q 303 649 236 599 q 459 726 371 699 q 644 753 547 753 q 827 726 743 753 q 974 649 911 699 q 1072 532 1038 600 q 1104 381 1107 464 l 1103 313 l 321 313 l 289 451 l 922 451 l 899 419 l 899 447 q 858 513 893 485 q 767 558 822 542 q 647 575 713 575 q 508 556 572 575 q 406 494 444 536 q 367 382 367 451 q 409 274 367 322 q 528 199 451 226 q 710 171 606 171 q 881 194 815 171 q 978 233 946 217 l 1072 92 q 957 35 1021 60 q 821 -1 893 11 q 672 -14 749 -14 m 458 835 l 378 904 l 578 1083 l 711 1083 l 911 904 l 831 835 l 624 954 l 665 954 l 458 835 z "},"ế":{"ha":1293,"x_min":158,"x_max":1107,"o":"m 672 -14 q 402 35 518 -14 q 222 171 286 85 q 158 365 158 257 q 197 527 158 456 q 303 649 236 599 q 459 726 371 699 q 644 753 547 753 q 827 726 743 753 q 974 649 911 699 q 1072 532 1038 600 q 1104 381 1107 464 l 1103 313 l 321 313 l 289 451 l 922 451 l 899 419 l 899 447 q 858 513 893 485 q 767 558 822 542 q 647 575 713 575 q 508 556 572 575 q 406 494 444 536 q 367 382 367 451 q 409 274 367 322 q 528 199 451 226 q 710 171 606 171 q 881 194 815 171 q 978 233 946 217 l 1072 92 q 957 35 1021 60 q 821 -1 893 11 q 672 -14 749 -14 m 460 836 l 394 910 l 578 1060 l 710 1060 l 894 910 l 828 836 l 624 931 l 665 931 l 460 836 m 913 1047 l 824 1110 l 956 1338 l 1094 1239 l 913 1047 z "},"ệ":{"ha":1293,"x_min":158,"x_max":1107,"o":"m 672 -14 q 402 35 518 -14 q 222 171 286 85 q 158 365 158 257 q 197 527 158 456 q 303 649 236 599 q 459 726 371 699 q 644 753 547 753 q 827 726 743 753 q 974 649 911 699 q 1072 532 1038 600 q 1104 381 1107 464 l 1103 313 l 321 313 l 289 451 l 922 451 l 899 419 l 899 447 q 858 513 893 485 q 767 558 822 542 q 647 575 713 575 q 508 556 572 575 q 406 494 444 536 q 367 382 367 451 q 409 274 367 322 q 528 199 451 226 q 710 171 606 171 q 881 194 815 171 q 978 233 946 217 l 1072 92 q 957 35 1021 60 q 821 -1 893 11 q 672 -14 749 -14 m 675 -311 q 574 -280 610 -311 q 539 -193 539 -249 q 575 -109 539 -143 q 675 -75 611 -75 q 776 -106 740 -75 q 811 -193 811 -137 q 775 -277 811 -243 q 675 -311 739 -311 m 458 835 l 378 904 l 578 1083 l 711 1083 l 911 904 l 831 835 l 624 954 l 665 954 l 458 835 z "},"ề":{"ha":1293,"x_min":158,"x_max":1107,"o":"m 672 -14 q 402 35 518 -14 q 222 171 286 85 q 158 365 158 257 q 197 527 158 456 q 303 649 236 599 q 459 726 371 699 q 644 753 547 753 q 827 726 743 753 q 974 649 911 699 q 1072 532 1038 600 q 1104 381 1107 464 l 1103 313 l 321 313 l 289 451 l 922 451 l 899 419 l 899 447 q 858 513 893 485 q 767 558 822 542 q 647 575 713 575 q 508 556 572 575 q 406 494 444 536 q 367 382 367 451 q 409 274 367 322 q 528 199 451 226 q 710 171 606 171 q 881 194 815 171 q 978 233 946 217 l 1072 92 q 957 35 1021 60 q 821 -1 893 11 q 672 -14 749 -14 m 461 835 l 394 910 l 579 1058 l 711 1058 l 894 910 l 829 835 l 624 929 l 665 929 l 461 835 m 881 1046 l 696 1238 l 835 1338 l 967 1108 l 881 1046 z "},"ể":{"ha":1293,"x_min":158,"x_max":1107,"o":"m 672 -14 q 402 35 518 -14 q 222 171 286 85 q 158 365 158 257 q 197 527 158 456 q 303 649 236 599 q 459 726 371 699 q 644 753 547 753 q 827 726 743 753 q 974 649 911 699 q 1072 532 1038 600 q 1104 381 1107 464 l 1103 313 l 321 313 l 289 451 l 922 451 l 899 419 l 899 447 q 858 513 893 485 q 767 558 822 542 q 647 575 713 575 q 508 556 572 575 q 406 494 444 536 q 367 382 367 451 q 409 274 367 322 q 528 199 451 226 q 710 171 606 171 q 881 194 815 171 q 978 233 946 217 l 1072 92 q 957 35 1021 60 q 821 -1 893 11 q 672 -14 749 -14 m 460 836 l 393 910 l 578 1060 l 710 1060 l 894 910 l 828 836 l 624 931 l 665 931 l 460 836 m 860 1036 q 842 1063 849 1049 q 835 1093 835 1078 q 842 1121 835 1107 q 871 1149 849 1135 q 898 1169 888 1160 q 908 1190 908 1179 q 896 1210 908 1203 q 864 1217 883 1217 q 807 1209 836 1217 q 747 1189 778 1201 l 718 1307 q 790 1333 747 1322 q 879 1344 833 1344 q 1008 1310 960 1344 q 1057 1217 1057 1275 q 1036 1151 1057 1174 q 990 1115 1015 1129 q 955 1094 969 1104 q 940 1068 940 1083 q 940 1063 940 1065 q 942 1056 940 1060 l 860 1036 z "},"ễ":{"ha":1293,"x_min":158,"x_max":1107,"o":"m 672 -14 q 402 35 518 -14 q 222 171 286 85 q 158 365 158 257 q 197 527 158 456 q 303 649 236 599 q 459 726 371 699 q 644 753 547 753 q 827 726 743 753 q 974 649 911 699 q 1072 532 1038 600 q 1104 381 1107 464 l 1103 313 l 321 313 l 289 451 l 922 451 l 899 419 l 899 447 q 858 513 893 485 q 767 558 822 542 q 647 575 713 575 q 508 556 572 575 q 406 494 444 536 q 367 382 367 451 q 409 274 367 322 q 528 199 451 226 q 710 171 606 171 q 881 194 815 171 q 978 233 946 217 l 1072 92 q 957 35 1021 60 q 821 -1 893 11 q 672 -14 749 -14 m 460 836 l 394 910 l 578 1060 l 710 1060 l 893 910 l 828 836 l 624 931 l 665 931 l 460 836 m 753 1147 q 696 1156 724 1147 q 636 1178 668 1164 q 599 1192 615 1186 q 569 1197 582 1197 q 535 1185 550 1197 q 515 1147 519 1172 l 392 1164 q 435 1285 393 1235 q 543 1335 476 1335 q 594 1326 568 1335 q 650 1306 621 1318 q 688 1290 671 1296 q 719 1285 704 1285 q 753 1298 739 1285 q 771 1335 768 1311 l 896 1317 q 877 1235 894 1274 q 828 1172 860 1196 q 753 1147 796 1147 z "},"ȅ":{"ha":1293,"x_min":158,"x_max":1107,"o":"m 672 -14 q 402 35 518 -14 q 222 171 286 85 q 158 365 158 257 q 197 527 158 456 q 303 649 236 599 q 459 726 371 699 q 644 753 547 753 q 827 726 743 753 q 974 649 911 699 q 1072 532 1038 600 q 1104 381 1107 464 l 1103 313 l 321 313 l 289 451 l 922 451 l 899 419 l 899 447 q 858 513 893 485 q 767 558 822 542 q 647 575 713 575 q 508 556 572 575 q 406 494 444 536 q 367 382 367 451 q 409 274 367 322 q 528 199 451 226 q 710 171 606 171 q 881 194 815 171 q 978 233 946 217 l 1072 92 q 957 35 1021 60 q 821 -1 893 11 q 672 -14 749 -14 m 782 815 l 546 1010 l 678 1126 l 875 882 l 782 815 m 496 819 l 249 1000 l 374 1125 l 585 890 l 496 819 z "},"ë":{"ha":1293,"x_min":158,"x_max":1107,"o":"m 672 -14 q 402 35 518 -14 q 222 171 286 85 q 158 365 158 257 q 197 527 158 456 q 303 649 236 599 q 459 726 371 699 q 644 753 547 753 q 827 726 743 753 q 974 649 911 699 q 1072 532 1038 600 q 1104 381 1107 464 l 1103 313 l 321 313 l 289 451 l 922 451 l 899 419 l 899 447 q 858 513 893 485 q 767 558 822 542 q 647 575 713 575 q 508 556 572 575 q 406 494 444 536 q 367 382 367 451 q 409 274 367 322 q 528 199 451 226 q 710 171 606 171 q 881 194 815 171 q 978 233 946 217 l 1072 92 q 957 35 1021 60 q 821 -1 893 11 q 672 -14 749 -14 m 811 883 q 722 915 753 883 q 690 1001 690 946 q 723 1087 690 1054 q 811 1119 756 1119 q 899 1090 868 1119 q 931 1001 931 1060 q 899 917 931 950 q 811 883 867 883 m 476 883 q 387 915 418 883 q 356 1001 356 946 q 388 1087 356 1054 q 476 1119 421 1119 q 566 1090 535 1119 q 597 1001 597 1060 q 565 917 597 950 q 476 883 532 883 z "},"ė":{"ha":1293,"x_min":158,"x_max":1107,"o":"m 672 -14 q 402 35 518 -14 q 222 171 286 85 q 158 365 158 257 q 197 527 158 456 q 303 649 236 599 q 459 726 371 699 q 644 753 547 753 q 827 726 743 753 q 974 649 911 699 q 1072 532 1038 600 q 1104 381 1107 464 l 1103 313 l 321 313 l 289 451 l 922 451 l 899 419 l 899 447 q 858 513 893 485 q 767 558 822 542 q 647 575 713 575 q 508 556 572 575 q 406 494 444 536 q 367 382 367 451 q 409 274 367 322 q 528 199 451 226 q 710 171 606 171 q 881 194 815 171 q 978 233 946 217 l 1072 92 q 957 35 1021 60 q 821 -1 893 11 q 672 -14 749 -14 m 644 889 q 547 919 582 889 q 513 1004 513 950 q 548 1088 513 1056 q 644 1119 583 1119 q 742 1090 707 1119 q 776 1004 776 1060 q 741 922 776 954 q 644 889 706 889 z "},"ẹ":{"ha":1293,"x_min":158,"x_max":1107,"o":"m 672 -14 q 402 35 518 -14 q 222 171 286 85 q 158 365 158 257 q 197 527 158 456 q 303 649 236 599 q 459 726 371 699 q 644 753 547 753 q 827 726 743 753 q 974 649 911 699 q 1072 532 1038 600 q 1104 381 1107 464 l 1103 313 l 321 313 l 289 451 l 922 451 l 899 419 l 899 447 q 858 513 893 485 q 767 558 822 542 q 647 575 713 575 q 508 556 572 575 q 406 494 444 536 q 367 382 367 451 q 409 274 367 322 q 528 199 451 226 q 710 171 606 171 q 881 194 815 171 q 978 233 946 217 l 1072 92 q 957 35 1021 60 q 821 -1 893 11 q 672 -14 749 -14 m 675 -311 q 574 -280 610 -311 q 539 -193 539 -249 q 575 -109 539 -143 q 675 -75 611 -75 q 776 -106 740 -75 q 811 -193 811 -137 q 775 -277 811 -243 q 675 -311 739 -311 z "},"è":{"ha":1293,"x_min":158,"x_max":1107,"o":"m 672 -14 q 402 35 518 -14 q 222 171 286 85 q 158 365 158 257 q 197 527 158 456 q 303 649 236 599 q 459 726 371 699 q 644 753 547 753 q 827 726 743 753 q 974 649 911 699 q 1072 532 1038 600 q 1104 381 1107 464 l 1103 313 l 321 313 l 289 451 l 922 451 l 899 419 l 899 447 q 858 513 893 485 q 767 558 822 542 q 647 575 713 575 q 508 556 572 575 q 406 494 444 536 q 367 382 367 451 q 409 274 367 322 q 528 199 451 226 q 710 171 606 171 q 881 194 815 171 q 978 233 946 217 l 1072 92 q 957 35 1021 60 q 821 -1 893 11 q 672 -14 749 -14 m 732 819 l 447 972 l 549 1117 l 797 919 l 732 819 z "},"ẻ":{"ha":1293,"x_min":158,"x_max":1107,"o":"m 672 -14 q 402 35 518 -14 q 222 171 286 85 q 158 365 158 257 q 197 527 158 456 q 303 649 236 599 q 459 726 371 699 q 644 753 547 753 q 827 726 743 753 q 974 649 911 699 q 1072 532 1038 600 q 1104 381 1107 464 l 1103 313 l 321 313 l 289 451 l 922 451 l 899 419 l 899 447 q 858 513 893 485 q 767 558 822 542 q 647 575 713 575 q 508 556 572 575 q 406 494 444 536 q 367 382 367 451 q 409 274 367 322 q 528 199 451 226 q 710 171 606 171 q 881 194 815 171 q 978 233 946 217 l 1072 92 q 957 35 1021 60 q 821 -1 893 11 q 672 -14 749 -14 m 610 822 q 592 849 600 835 q 583 881 583 864 q 592 915 583 899 q 626 947 601 931 q 657 970 646 961 q 668 993 668 979 q 656 1012 668 1006 q 626 1018 644 1018 q 568 1010 599 1018 q 507 989 538 1001 l 475 1106 q 551 1135 506 1122 q 643 1147 596 1147 q 769 1113 722 1147 q 815 1021 815 1079 q 796 953 815 976 q 754 914 776 929 q 717 888 732 901 q 703 861 703 875 q 704 852 703 857 q 707 843 706 847 l 610 822 z "},"ȇ":{"ha":1293,"x_min":158,"x_max":1107,"o":"m 672 -14 q 402 35 518 -14 q 222 171 286 85 q 158 365 158 257 q 197 527 158 456 q 303 649 236 599 q 459 726 371 699 q 644 753 547 753 q 827 726 743 753 q 974 649 911 699 q 1072 532 1038 600 q 1104 381 1107 464 l 1103 313 l 321 313 l 289 451 l 922 451 l 899 419 l 899 447 q 858 513 893 485 q 767 558 822 542 q 647 575 713 575 q 508 556 572 575 q 406 494 444 536 q 367 382 367 451 q 409 274 367 322 q 528 199 451 226 q 710 171 606 171 q 881 194 815 171 q 978 233 946 217 l 1072 92 q 957 35 1021 60 q 821 -1 893 11 q 672 -14 749 -14 m 538 849 l 396 865 q 482 1028 415 969 q 644 1088 549 1088 q 807 1028 740 1088 q 893 865 874 969 l 751 849 q 708 918 736 893 q 644 943 679 943 q 581 918 610 943 q 538 849 553 893 z "},"ē":{"ha":1293,"x_min":158,"x_max":1107,"o":"m 672 -14 q 402 35 518 -14 q 222 171 286 85 q 158 365 158 257 q 197 527 158 456 q 303 649 236 599 q 459 726 371 699 q 644 753 547 753 q 827 726 743 753 q 974 649 911 699 q 1072 532 1038 600 q 1104 381 1107 464 l 1103 313 l 321 313 l 289 451 l 922 451 l 899 419 l 899 447 q 858 513 893 485 q 767 558 822 542 q 647 575 713 575 q 508 556 572 575 q 406 494 444 536 q 367 382 367 451 q 409 274 367 322 q 528 199 451 226 q 710 171 606 171 q 881 194 815 171 q 978 233 946 217 l 1072 92 q 957 35 1021 60 q 821 -1 893 11 q 672 -14 749 -14 m 406 889 l 406 1029 l 883 1029 l 883 889 l 406 889 z "},"ḗ":{"ha":1293,"x_min":158,"x_max":1107,"o":"m 672 -14 q 402 35 518 -14 q 222 171 286 85 q 158 365 158 257 q 197 527 158 456 q 303 649 236 599 q 459 726 371 699 q 644 753 547 753 q 827 726 743 753 q 974 649 911 699 q 1072 532 1038 600 q 1104 381 1107 464 l 1103 313 l 321 313 l 289 451 l 922 451 l 899 419 l 899 447 q 858 513 893 485 q 767 558 822 542 q 647 575 713 575 q 508 556 572 575 q 406 494 444 536 q 367 382 367 451 q 409 274 367 322 q 528 199 451 226 q 710 171 606 171 q 881 194 815 171 q 978 233 946 217 l 1072 92 q 957 35 1021 60 q 821 -1 893 11 q 672 -14 749 -14 m 411 875 l 411 1015 l 878 1015 l 878 875 l 411 875 m 653 1079 l 560 1140 l 690 1369 l 831 1268 l 653 1079 z "},"ḕ":{"ha":1293,"x_min":158,"x_max":1107,"o":"m 672 -14 q 402 35 518 -14 q 222 171 286 85 q 158 365 158 257 q 197 527 158 456 q 303 649 236 599 q 459 726 371 699 q 644 753 547 753 q 827 726 743 753 q 974 649 911 699 q 1072 532 1038 600 q 1104 381 1107 464 l 1103 313 l 321 313 l 289 451 l 922 451 l 899 419 l 899 447 q 858 513 893 485 q 767 558 822 542 q 647 575 713 575 q 508 556 572 575 q 406 494 444 536 q 367 382 367 451 q 409 274 367 322 q 528 199 451 226 q 710 171 606 171 q 881 194 815 171 q 978 233 946 217 l 1072 92 q 957 35 1021 60 q 821 -1 893 11 q 672 -14 749 -14 m 658 1079 l 482 1268 l 622 1369 l 753 1140 l 658 1079 m 411 875 l 411 1015 l 878 1015 l 878 875 l 411 875 z "},"ę":{"ha":1293,"x_min":158,"x_max":1107,"o":"m 838 -285 q 717 -242 761 -285 q 674 -139 674 -199 q 714 -32 674 -78 q 825 54 754 14 q 988 133 896 94 l 1025 67 q 878 -17 929 19 q 828 -100 828 -53 q 838 -130 828 -118 q 864 -142 847 -142 q 897 -133 883 -142 q 921 -108 910 -125 l 1017 -179 q 978 -228 1003 -204 q 917 -269 953 -253 q 838 -285 882 -285 m 672 -14 q 402 35 518 -14 q 222 171 286 85 q 158 365 158 257 q 197 527 158 456 q 303 649 236 599 q 459 726 371 699 q 644 753 547 753 q 827 726 743 753 q 974 649 911 699 q 1072 532 1038 600 q 1104 381 1107 464 l 1103 313 l 321 313 l 289 451 l 922 451 l 899 419 l 899 447 q 858 513 893 485 q 767 558 822 542 q 647 575 713 575 q 508 556 572 575 q 406 494 444 536 q 367 382 367 451 q 409 274 367 322 q 528 199 451 226 q 710 171 606 171 q 881 194 815 171 q 978 233 946 217 l 1072 92 q 957 35 1021 60 q 821 -1 893 11 q 672 -14 749 -14 z "},"ẽ":{"ha":1293,"x_min":158,"x_max":1107,"o":"m 672 -14 q 402 35 518 -14 q 222 171 286 85 q 158 365 158 257 q 197 527 158 456 q 303 649 236 599 q 459 726 371 699 q 644 753 547 753 q 827 726 743 753 q 974 649 911 699 q 1072 532 1038 600 q 1104 381 1107 464 l 1103 313 l 321 313 l 289 451 l 922 451 l 899 419 l 899 447 q 858 513 893 485 q 767 558 822 542 q 647 575 713 575 q 508 556 572 575 q 406 494 444 536 q 367 382 367 451 q 409 274 367 322 q 528 199 451 226 q 710 171 606 171 q 881 194 815 171 q 978 233 946 217 l 1072 92 q 957 35 1021 60 q 821 -1 893 11 q 672 -14 749 -14 m 740 853 q 692 861 717 853 q 635 892 667 869 q 596 919 611 911 q 571 926 581 926 q 536 910 551 926 q 517 860 521 894 l 393 878 q 438 1011 394 956 q 553 1067 481 1067 q 600 1058 576 1067 q 656 1029 624 1050 q 690 1003 674 1014 q 721 993 706 993 q 755 1010 740 993 q 772 1060 769 1028 l 897 1042 q 876 949 896 993 q 822 879 857 906 q 740 853 786 853 z "},"ə":{"ha":1293,"x_min":188,"x_max":1135,"o":"m 649 -15 q 414 33 519 -14 q 248 163 308 79 q 189 357 188 247 l 190 425 l 972 425 l 1004 286 l 371 286 l 394 318 l 394 290 q 435 225 400 254 q 526 179 471 196 q 646 163 582 163 q 785 182 721 163 q 888 244 849 201 q 926 356 926 286 q 884 463 926 415 q 765 539 842 511 q 583 567 689 567 q 413 544 478 567 q 315 504 347 521 l 221 647 q 336 703 272 681 q 472 739 400 726 q 621 751 544 751 q 892 703 776 751 q 1071 568 1007 654 q 1135 372 1135 482 q 1096 210 1135 282 q 990 89 1057 139 q 835 12 922 39 q 649 -15 747 -15 z "},"f":{"ha":1014,"x_min":176,"x_max":904,"o":"m 339 0 l 339 715 q 381 882 339 811 q 497 992 422 953 q 672 1031 572 1031 q 813 1011 756 1031 q 904 972 871 992 l 842 807 q 778 834 818 819 q 699 849 739 849 q 614 831 647 849 q 565 783 581 813 q 549 715 549 753 l 549 0 l 444 0 q 388 0 414 0 q 339 0 361 0 m 176 519 l 176 703 l 853 703 l 853 519 l 176 519 z "},"g":{"ha":1426,"x_min":181,"x_max":1154,"o":"m 711 -319 q 469 -291 571 -319 q 306 -225 368 -262 l 381 -61 q 455 -91 413 -74 q 553 -122 497 -108 q 682 -135 610 -135 q 812 -106 756 -135 q 899 -24 868 -78 q 931 111 931 31 l 931 179 l 972 172 q 906 91 961 129 q 769 29 851 53 q 589 6 686 6 q 376 51 468 6 q 232 181 283 97 q 181 372 181 264 q 235 570 181 485 q 387 704 290 656 q 611 753 483 753 q 690 746 643 753 q 786 725 736 739 q 880 691 836 711 q 951 643 924 671 q 981 582 979 615 l 935 571 l 943 738 l 1154 738 l 1154 115 q 1117 -76 1154 6 q 1018 -212 1081 -158 q 876 -293 956 -267 q 711 -319 796 -319 m 678 178 q 815 202 757 178 q 904 270 872 226 q 936 371 936 314 q 905 472 936 429 q 816 540 874 515 q 678 565 758 565 q 533 540 596 565 q 436 472 471 515 q 401 371 401 429 q 436 270 401 314 q 533 202 471 226 q 678 178 596 178 z "}}}
